<svg xmlns="http://www.w3.org/2000/svg" viewBox="-3556.328 -15866.279 85.328 85.368"><defs><style>.cls-1{fill:#fff}</style></defs><g id="Group_2562" data-name="Group 2562" transform="translate(-3556.278 -15866.229)"><path id="Path_3285" data-name="Path 3285" class="cls-1" d="M44.02 107.907l-12.137 12.137a17.107 17.107 0 0 1-24.2-24.183L30.538 73a17.119 17.119 0 0 1 28.344 6.7L48.071 90.519a7.711 7.711 0 0 1-12.591-2.544 1.365 1.365 0 0 0-2.526 1.036A10.436 10.436 0 0 0 50 92.463l22.854-22.857A10.432 10.432 0 0 0 58.1 54.852l-7.213 7.213a1.362 1.362 0 1 0 1.926 1.926l7.213-7.213a7.709 7.709 0 0 1 10.9 10.9l-9.92 9.92a20.267 20.267 0 0 0-4.324-6.5 19.827 19.827 0 0 0-28.035 0L5.755 93.916a19.83 19.83 0 0 0 28.053 28.035l12.137-12.137a1.371 1.371 0 0 0 0-1.926 1.354 1.354 0 0 0-1.926.018z" transform="translate(0 -42.429)"/><path id="Path_3286" data-name="Path 3286" class="cls-1" d="M121.9 5.755a19.827 19.827 0 0 0-28.035 0L81.707 17.91a1.362 1.362 0 0 0 1.926 1.926L95.788 7.681a17.1 17.1 0 0 1 24.183 24.183L97.132 54.721a17.119 17.119 0 0 1-28.344-6.7L79.6 37.206a7.711 7.711 0 0 1 12.59 2.544 1.365 1.365 0 1 0 2.526-1.036 10.436 10.436 0 0 0-17.043-3.452l-11.12 11.174a1.466 1.466 0 0 0-.472.472L54.852 58.137a10.432 10.432 0 0 0 14.754 14.754l7.213-7.213a1.362 1.362 0 1 0-1.926-1.926l-7.213 7.213a7.709 7.709 0 0 1-10.9-10.9l9.92-9.92a20.267 20.267 0 0 0 4.324 6.5 19.827 19.827 0 0 0 28.053 0l22.856-22.855a19.86 19.86 0 0 0-.033-28.035z" transform="translate(-42.429)"/></g></svg>