<svg xmlns="http://www.w3.org/2000/svg" viewBox="-2978 -15854 97 69.089"><defs><style>.a{fill:#fff}</style></defs><path class="a" d="M-2890.648-15784.911h-77.704a9.632 9.632 0 0 1-9.648-9.648v-1.379a2.281 2.281 0 0 1 2.24-2.24h.689a.741.741 0 0 0 .689-.689v-50.309a4.816 4.816 0 0 1 4.824-4.824h79.943a4.782 4.782 0 0 1 4.652 4.824v50.309a.741.741 0 0 0 .689.689h1.034a2.281 2.281 0 0 1 2.24 2.24v1.378a9.632 9.632 0 0 1-9.648 9.649zm-84.423-9.648a6.728 6.728 0 0 0 6.719 6.719h77.7a6.728 6.728 0 0 0 6.719-6.719.741.741 0 0 0-.689-.689h-34.278c-.345 0-.689.172-.689.517a4.439 4.439 0 0 1-4.307 3.79h-11.031a4.439 4.439 0 0 1-4.307-3.79c0-.345-.345-.517-.689-.517h-34.459a.741.741 0 0 0-.689.689zm4.307-3.618h32.046a2.281 2.281 0 0 1 2.24 2.24 2.281 2.281 0 0 0 2.24 2.24h9.648a2.281 2.281 0 0 0 2.24-2.24 2.281 2.281 0 0 1 2.24-2.24h31.7a.741.741 0 0 0 .689-.689v-50.31a1.912 1.912 0 0 0-1.9-1.9h-79.937a1.912 1.912 0 0 0-1.9 1.9v50.309a.741.741 0 0 0 .694.689z"/><path class="a" d="M-2909.772-15808.344a15.851 15.851 0 1 0 0-31.7h-.172a16.057 16.057 0 0 0-11.716 5.169l-7.925 8.615-7.925-8.615a15.774 15.774 0 0 0-11.717-5.169h-.172a15.851 15.851 0 0 0 0 31.7h.172a16.057 16.057 0 0 0 11.716-5.169l7.925-8.615 7.925 8.615a15.774 15.774 0 0 0 11.717 5.169zm-29.462-7.062a13.3 13.3 0 0 1-9.816 4.307h-.172a13.094 13.094 0 0 1 0-26.188h.172a12.932 12.932 0 0 1 9.648 4.307l8.1 8.787zm19.469 0l-8.1-8.787 8.1-8.787a12.932 12.932 0 0 1 9.648-4.307h.172a13.094 13.094 0 1 1 0 26.188h-.172a13.5 13.5 0 0 1-9.648-4.307z"/></svg>