<svg xmlns="http://www.w3.org/2000/svg" viewBox="-3267 -15861 70.163 83.719"><defs><style>.a{fill:#fff}</style></defs><path class="a" d="M-3198.4-15777.282h-67.271a1.508 1.508 0 0 1-1.163-.5 2.827 2.827 0 0 1-.166-1.161c.332-1.162 2.658-11.457 3.82-14.119 1.163-2.492 5.149-3.987 11.794-6.146 1.329-.5 2.658-.831 3.987-1.329.166 0 .332-.166.5-.166-5.648-1.163-12.624-2.99-13.289-5.814-.831-3.322-.664-14.285.166-23.92 1.161-15.115 12.122-30.563 28.071-30.563 15.78 0 26.743 15.448 28.238 30.4 1.329 12.79 1.163 21.262.831 22.757-.166.831-.332 1.661-8.305 4.319a68.764 68.764 0 0 1-7.143 2.159 9.669 9.669 0 0 0 1.827.831 37.38 37.38 0 0 0 3.987 1.329c6.478 2.159 10.631 3.654 11.794 6.146 1.162 2.659 3.487 12.954 3.822 14.116a1.027 1.027 0 0 1-.332 1.163 1.794 1.794 0 0 1-1.168.498zm-13.452-2.823h11.627c-.831-3.82-2.492-10.133-3.322-11.794v-.166c-1.827 1.827-7.143 6.81-8.471 7.973-.333.498-.166 2.492.166 3.987zm-37.54 0h34.716c-.332-1.661-.664-4.485.664-5.98 1.163-1.163 5.98-5.648 8.139-7.641a67.292 67.292 0 0 0-7.641-2.824 32.311 32.311 0 0 1-3.654-1.329c-3.987 5.648-13.787 10.8-14.285 10.963a2.107 2.107 0 0 1-1 .166c-6.312-1.495-12.79-8.638-14.95-10.963-1 .332-2.159.664-3.156 1a57.2 57.2 0 0 0-7.641 2.821c2.159 1.993 6.81 6.478 8.139 7.641 1.499 1.827 1.167 4.484.668 6.146zm-14.451 0h11.627c.5-1.661.664-3.488.166-3.987-1.163-1.163-6.478-6.312-8.472-7.973v.165c-.83 1.662-2.491 8.14-3.322 11.795zm19.269-18.6c2.326 2.492 7.475 7.807 12.292 9.3 1.993-1 9.3-5.149 12.458-9.468a7.467 7.467 0 0 1-3.82-5.648l-3.156 2.157a8.782 8.782 0 0 1-8.8.166l-4.817-2.99a7.557 7.557 0 0 1-4.158 6.478zm12.623-59.471c-11.3 0-23.92 10.465-25.415 27.74-.834 9.966-.834 20.436-.166 23.089.5 1.163 6.81 2.99 13.621 4.153a4.05 4.05 0 0 0 .5-3.156c0-.166-.166-.5 0-.664l-2.489-1.496a11.2 11.2 0 0 1-4.817-7.641v-.166h-2.164a3.759 3.759 0 0 1-3.82-3.82v-7.309a3.759 3.759 0 0 1 3.82-3.82h1.495c.166-.166.332-.5.5-.664a5.791 5.791 0 0 1 3.986-1.994c.166 0 16.279-.831 25.913-6.478a1.336 1.336 0 0 1 1.827.5c1 1.495 4.153 5.648 6.644 6.977a1.221 1.221 0 0 1 .664 1.329v.332h.664a3.759 3.759 0 0 1 3.82 3.82v7.309a3.91 3.91 0 0 1-3.156 3.82c.001 4.315-2.657 6.315-5.149 6.315h-.827a10.747 10.747 0 0 1-1.5 1.324l-2.99 1.993v.332a4.462 4.462 0 0 0 .166 2.492c3.488-.664 13.123-3.82 14.95-4.983.166-1.993.332-9.468-.831-21.594-1.161-13.621-10.961-27.74-25.246-27.74zm-17.275 29.9l1.326 11.793a8.17 8.17 0 0 0 3.491 5.483l10.133 6.146a6.033 6.033 0 0 0 5.814-.166l7.143-4.817c-1.661.166-3.488.332-4.651.332a4.049 4.049 0 0 1-3.488 1.993h-2.493a4.153 4.153 0 1 1 0-8.305h2.491a4.1 4.1 0 0 1 3.987 3.317c1.993-.166 5.648-.5 7.973-.664a9.305 9.305 0 0 0 1.661-3.987l1.329-14.449c-2.49-1.66-4.817-4.65-6.146-6.311-10.132 5.482-25.414 6.146-26.079 6.311a2.368 2.368 0 0 0-1.993 1 7.322 7.322 0 0 0-.5 2.326zm17.275 15.776a1.329 1.329 0 0 0 0 2.658h2.491a1.681 1.681 0 0 0 1.16-.658.61.61 0 0 1 .166-.5v-.166a1.31 1.31 0 0 0-1.326-1.334zm18.936-3.82a10.083 10.083 0 0 1-.831 2.99 4.277 4.277 0 0 0 .831-2.99zm.166-2.824h1.827a.957.957 0 0 0 1-1v-7.302a.957.957 0 0 0-1-1h-1zm-40.032-9.465a.957.957 0 0 0-1 1v7.309a.957.957 0 0 0 1 1h1.827l-1-8.8v-.664h-.831z"/></svg>