<svg id="Layer_1" xmlns="http://www.w3.org/2000/svg" viewBox="0 0 319.3 147.2"><style>.st0{fill:#ef4236}.st1{fill:#fff}</style><path class="st0" d="M0 0h154.9v147.2H0z"/><path class="st1" d="M72.8 75.3v-9.4h-9.4v-9.4h9.4V32.8h-9.4v-9.4H54V14H35.1v9.4h-9.4v9.4h-9.5v23.6h9.5v9.4h-9.5v9.4h23.6v-9.4h9.4v9.4h23.6zm-9.4-23.6H54v-9.4h9.4v9.4zm-28.3 0h-9.4v-9.4h9.4v9.4zm104.1 23.6v-9.4h-9.4v-9.4h9.4V23.4h-9.4V14h-9.4v9.4h-18.9V14h-9.4v9.4h-9.5v33.1h9.5v9.4h-9.5v9.4h23.6V56.4h9.4v18.9h23.6zm-9.4-33.1h-9.4v-9.4h9.4v9.4zm-28.3 0h-9.4v-9.4h9.4v9.4zM27.8 90v11.4h2v6.3h-2.7v-3.9h-11V90h2.8v11.4H25V90h2.8zm13.9 13.9v-10l-7 10h-2.9V90h2.8v10l7-10h2.9v13.9h-2.8zM56.1 90h.4c1.5 0 3.4.4 4.7 2 1.3 1.6 1.5 3.8 1.5 5 0 1.2-.1 3.4-1.5 5-1.3 1.6-3.2 2-4.7 2h-.4v4.6h-2.8V104h-.4c-1.5 0-3.4-.4-4.7-2-1.3-1.6-1.5-3.8-1.5-5 0-1.2.1-3.3 1.5-5 1.3-1.6 3.2-2 4.7-2h.4v-4.6h2.8V90zm-3.2 2.2c-.8 0-1.8.2-2.6 1.2-.7 1-.9 2.5-.9 3.5 0 1.1.1 2.5.9 3.5.7 1 1.8 1.2 2.6 1.2h.4v-9.5h-.4zm3.2 9.5h.4c.8 0 1.8-.2 2.6-1.2.7-1 .9-2.5.9-3.5s-.1-2.5-.9-3.5c-.7-1-1.8-1.2-2.6-1.2h-.4v9.4zm11.6-10.1c.6-.7 1.2-1.2 1.9-1.4.7-.3 1.4-.4 2.3-.4 1.4 0 3 .3 4.3 1.6C77.7 92.9 78 95 78 97c0 2.2-.4 3.9-1.6 5.3-.9 1.1-2.3 1.9-4.5 1.9-.7 0-1.5-.1-2.3-.4-.9-.4-1.4-.9-1.8-1.4v6.2H65V90h2.6v1.6zm6.6 1.9c-.5-.7-1.4-1.3-2.8-1.3-1.5 0-2.3.7-2.9 1.5-.7 1-.8 2.5-.8 3.3 0 .8.1 2.1.8 3.2.5.8 1.4 1.6 2.9 1.6 1.7 0 2.5-1 3-1.7.5-.8.7-2 .7-3.1 0-2.2-.7-3.2-.9-3.5zM92 92c.9 1.1 1.6 2.7 1.6 5s-.7 3.9-1.6 5c-1 1.2-2.7 2.2-5.1 2.2-2.4 0-4.1-1-5.1-2.2-.9-1.1-1.6-2.7-1.6-5s.7-3.9 1.6-5c1-1.2 2.7-2.2 5.1-2.2 2.4 0 4.1.9 5.1 2.2zm-8.1 1.8c-.8 1-.9 2.2-.9 3.2 0 .9.1 2.1.9 3.2.5.7 1.4 1.5 3 1.5s2.5-.9 3-1.5c.7-1 .9-2.3.9-3.2 0-.9-.1-2.1-.9-3.2-.5-.7-1.4-1.5-3-1.5-1.6-.1-2.5.8-3 1.5zm19-3.8c1 0 2.7.1 3.9 1.1.5.4 1.1 1.3 1.1 2.6 0 .7-.2 1.4-.6 1.9-.4.4-1 .8-1.6 1 .8.1 1.4.6 1.9 1 .5.5.8 1.4.8 2.3 0 1.2-.5 2.2-1.3 2.9-1.3 1.1-3.1 1.1-4 1.1h-6.7V90h6.5zm-.5 5.5c.6 0 1.5.1 2.1-.4.3-.2.5-.6.5-1.1 0-.5-.2-.9-.5-1.2-.5-.4-1.5-.4-1.9-.4h-3.4v3.1h3.2zm.6 6c.6 0 1.4-.1 2-.6.3-.3.5-.7.5-1.3 0-.8-.4-1.3-.8-1.5-.5-.3-1.2-.4-1.8-.4h-3.7v3.8h3.8zm19.4-9.5c.9 1.1 1.6 2.7 1.6 5s-.7 3.9-1.6 5c-1.1 1.2-2.7 2.2-5.1 2.2-2.4 0-4.1-1-5.1-2.2-.9-1.1-1.6-2.7-1.6-5s.7-3.9 1.6-5c1-1.2 2.7-2.2 5.1-2.2 2.4 0 4 .9 5.1 2.2zm-8.2 1.8c-.7 1-.9 2.3-.9 3.2 0 .9.1 2.1.9 3.2.5.7 1.4 1.5 3 1.5s2.5-.9 3-1.5c.7-1 .9-2.3.9-3.2 0-.9-.1-2.1-.9-3.2-.5-.7-1.4-1.5-3-1.5-1.6-.1-2.5.8-3 1.5zm22.2 10.1v-10l-7 10h-2.9V90h2.8v10l7-10h2.9v13.9h-2.8zm.7-19.7c0 .8-.3 1.7-.9 2.3-.9.9-2.3 1-3.3 1s-2.4-.1-3.3-1c-.6-.6-.9-1.5-.9-2.3v-.3h2.5v.3c0 .2 0 .5.3.8.4.3.9.4 1.4.4.5 0 1-.1 1.4-.4.3-.3.3-.7.3-.8v-.3h2.5v.3zM28.7 118.7v11.5h2v6.3h-2.6v-3.9H18v3.9h-2.6v-6.3h1.3c.9-.7 1.4-1.6 1.7-2.3.4-1.2.5-2.5.5-3.6v-5.6h9.8zm-7.2 6c0 .8-.1 2-.3 2.9-.4 1.6-1.1 2.3-1.4 2.6h6.1v-9h-4.4v3.5zm21 7.8v-10l-7 10h-2.9v-13.9h2.8v10l7-10h2.9v13.9h-2.8zm14.1 0v-1.3c-1.5 1.4-3.1 1.6-4 1.6-1.7 0-2.9-.5-3.6-1.2-.7-.6-1.4-1.6-1.4-3.1 0-1.2.5-2.9 2.2-3.8.6-.3 1.9-.9 4.7-.9h2.1v-.5c0-.6 0-1.7-.7-2.2-.4-.3-1-.5-2-.5-1.4 0-2 .3-2.2.4-.5.3-.7.8-.7 1.2h-2.8c.1-1.6 1-2.5 1.8-3 .6-.4 1.7-.7 4-.7 1.1 0 2.9.1 4 1.1 1.2 1.1 1.4 3 1.4 4.4v8.6h-2.8zm0-6.5h-1.8c-1 0-1.8 0-2.7.2-.9.3-1.6.9-1.6 2.2 0 .7.2 1.2.6 1.5.4.4 1 .7 1.8.7 1.1 0 2.3-.5 3-1.4.4-.5.8-1.4.8-2.8v-.4zm16.8-7.3v13.9h-2.8v-11.4H66v4.5c0 3.2-.4 4.5-.8 5.2-.6 1.1-1.6 1.8-3.1 1.8h-1.2v-2.4h.4c.7 0 1.2-.4 1.5-.7.4-.6.6-1.7.6-4.8v-5.9h10zm14.5 1.9c.9 1.1 1.6 2.7 1.6 5s-.7 3.9-1.6 5c-1 1.2-2.7 2.2-5.1 2.2-2.4 0-4.1-1-5.1-2.2-.9-1.1-1.6-2.7-1.6-5s.7-3.9 1.6-5c1-1.2 2.7-2.2 5.1-2.2 2.4 0 4 1 5.1 2.2zm-8.2 1.8c-.7 1-.9 2.3-.9 3.2 0 .9.1 2.1.9 3.2.5.7 1.4 1.5 3 1.5s2.5-.9 3-1.5c.7-1.1.9-2.3.9-3.2 0-.9-.1-2.2-.9-3.2-.5-.7-1.4-1.5-3-1.5s-2.5.8-3 1.5zm21.6-1.3h-6.5v11.4H92v-13.9h9.3v2.5zm.1 11.4V129h4v3.5h-4z"/><path class="st0" d="M164.4 0h154.9v147.2H164.4z"/><path class="st1" d="M193.2 115.6c-.6.2-1.1.3-1.7.4-.9.1-1.5.1-2.3.1l-1.3.1c-.7 0-1.8.1-2.8.7-.7.4-1.1 1-1.3 1.7-.2.7-.3 1.7-.3 2.4.4-.6 1-1.2 1.7-1.6.7-.4 1.8-.7 2.7-.7 2.5 0 4 1 4.9 2.2 1.1 1.3 1.6 2.8 1.6 4.8 0 2.3-.7 3.9-1.6 5-1 1.2-2.7 2.2-5.1 2.2-2.8 0-4.4-1.3-5.1-2.2-1.4-1.7-1.6-3.9-1.6-6.3 0-3.5.3-5.2.6-6.2.6-2 1.8-3.2 2.8-3.7 1-.6 2.6-.8 3.9-.9l1.4-.1c.5 0 1.5-.1 2-.2s1.2-.2 1.8-.4v2.7zm-2.7 7c-.7-1-1.8-1.5-3-1.5s-2.3.4-3 1.5c-.6.9-.9 1.9-.9 3.1 0 1.4.4 2.4.9 3.1.7 1 1.8 1.5 3 1.5s2.3-.5 3-1.5c.5-.7.9-1.7.9-3.1 0-1.1-.3-2.2-.9-3.1zm16.2 9.9v-10l-7 10h-2.9v-13.9h2.8v10l7-10h2.9v13.9h-2.8zm10.3-8.3c.6 0 1.5 0 2.1-.4.6-.3.8-.8.8-1.3s-.2-1-.6-1.3c-.6-.4-1.5-.4-2-.4-1.2 0-1.7.2-1.9.4-.2.1-.6.5-.7 1.2h-2.8c.2-1.9 1.4-2.8 1.9-3.1 1-.6 2.5-.8 3.7-.8 1 0 2.7.1 3.9 1 1.2.9 1.5 2.1 1.5 3 0 .7-.2 1.5-.6 2-.4.5-1 .8-1.5 1 .6.2 1.2.5 1.5.9.7.6.9 1.4.9 2.2 0 1.8-1 2.9-1.8 3.4-.5.3-1.7.9-4.3.9-.7 0-2.6-.1-3.7-.7-.8-.5-1.7-1.5-1.9-3.2h2.8c0 .4.2 1 .9 1.3.2.1.7.2 1.8.2.7 0 1.8-.1 2.5-.6.5-.4.7-.9.7-1.5 0-.7-.3-1.3-.9-1.6-.7-.4-1.4-.4-2.1-.4h-1.3v-2.2h1.1zm18.4 8.3v-6h-6.9v6h-2.8v-13.9h2.8v5.4h6.9v-5.4h2.8v13.9h-2.8zm8.5-6.3c-.1 1 .2 2.3 1 3.2.9.9 2.1 1.1 3 1.1.6 0 1-.1 1.5-.3.4-.2.6-.5.6-.8h2.9c0 .5-.2 1.3-1 2.1-.9.9-2 1.4-4.2 1.4-1.5 0-3.6-.3-5.1-1.9-.9-.9-1.8-2.6-1.8-5.3 0-2.6.8-4.6 2.1-5.8.8-.7 2.2-1.5 4.4-1.5 1.9 0 3.4.6 4.4 1.7 1.5 1.6 1.7 3.8 1.7 5.3v.9h-9.5zm6.8-2.4c0-1-.4-1.7-.8-2.1-.5-.6-1.4-1-2.5-1-1 0-1.7.3-2.2.7-1 .7-1.2 1.7-1.3 2.3h6.8zm16.6 4.5c-.1 1.6-.9 2.7-1.7 3.4-.8.6-2.1 1.1-3.7 1.1-1.9 0-3.4-.7-4.5-2.2-1-1.4-1.4-3.3-1.4-5.1 0-2.1.7-4 1.8-5.3 1.2-1.4 2.7-1.9 4.3-1.9 1.6 0 2.7.5 3.3.9.7.5 1.6 1.4 1.9 3.1h-2.9c-.1-.3-.2-.8-.7-1.2-.4-.3-1-.5-1.5-.5-1.2 0-2.1.6-2.6 1.2-.7 1-.8 2.5-.8 3.5 0 1.2.2 2.7.8 3.7.7 1.1 1.7 1.3 2.4 1.3.6 0 1.2-.2 1.7-.7.5-.5.7-1 .7-1.4h2.9z"/></svg>