<svg xmlns="http://www.w3.org/2000/svg" viewBox="-3156.172 -14438 112.172 101.797"><defs><style>.a{fill:#ef4135}</style></defs><path class="a" d="M-3045.686-14384.918h-2.147a3.264 3.264 0 0 1 0-6.527h2.147a1.664 1.664 0 0 0 1.665-1.665v-9.967a1.664 1.664 0 0 0-1.665-1.665h-2.147a3.272 3.272 0 0 1-3.264-3.264v-.613l2.431-2.234a1.649 1.649 0 0 0 .131-2.3l-6.484-7.557a1.641 1.641 0 0 0-1.139-.57 1.611 1.611 0 0 0-1.2.394l-1.621 1.4a3.283 3.283 0 0 1-4.6-.35 3.224 3.224 0 0 1-.767-2.366 3.186 3.186 0 0 1 1.139-2.234l1.621-1.4a1.663 1.663 0 0 0 .175-2.344l-6.486-7.556a1.663 1.663 0 0 0-2.344-.175l-1.621 1.4a3.224 3.224 0 0 1-2.366.767 3.186 3.186 0 0 1-2.237-1.138l-2.166-2.541a1.641 1.641 0 0 0-1.139-.57 1.612 1.612 0 0 0-1.2.394l-28.695 24.599h-4.731a1.665 1.665 0 1 0 0 3.329h60v1.687a6.577 6.577 0 0 0 6.571 6.571h.482v6.637h-.482a6.572 6.572 0 0 0 0 13.143h.482v6.637h-.482a6.577 6.577 0 0 0-6.571 6.571v3.768h-11.486a1.665 1.665 0 1 0 0 3.329h13.143a1.664 1.664 0 0 0 1.665-1.665v-5.431a3.272 3.272 0 0 1 3.264-3.264h2.145a1.664 1.664 0 0 0 1.665-1.665v-9.966a1.686 1.686 0 0 0-1.686-1.599zm-58.857-28.06l24.489-20.988 1.1 1.27a6.5 6.5 0 0 0 4.49 2.278 6.591 6.591 0 0 0 4.8-1.555l.372-.307 4.315 5.038-.372.307a6.587 6.587 0 0 0 8.565 10.01l.372-.307 3.647 4.276-51.782-.022zm24.094 48.365h-65.34v-1.687a6.577 6.577 0 0 0-6.571-6.571h-.483v-6.637h.482a6.572 6.572 0 1 0 0-13.143h-.482v-6.637h.482a6.577 6.577 0 0 0 6.571-6.571v-3.768h18.948a1.665 1.665 0 1 0 0-3.329h-20.612a1.664 1.664 0 0 0-1.665 1.665v5.435a3.272 3.272 0 0 1-3.264 3.264h-2.124a1.664 1.664 0 0 0-1.665 1.661v9.966a1.664 1.664 0 0 0 1.665 1.665h2.146a3.264 3.264 0 0 1 0 6.527h-2.146a1.664 1.664 0 0 0-1.665 1.666v9.966a1.664 1.664 0 0 0 1.665 1.665h2.146a3.272 3.272 0 0 1 3.264 3.264v.9l-2.344 1.856a1.692 1.692 0 0 0-.613 1.139 1.652 1.652 0 0 0 .394 1.249l6.488 7.56a1.641 1.641 0 0 0 1.139.569 1.611 1.611 0 0 0 1.2-.394l1.621-1.4a3.134 3.134 0 0 1 2.366-.767 3.186 3.186 0 0 1 2.234 1.139 3.283 3.283 0 0 1-.35 4.6l-1.621 1.4a1.663 1.663 0 0 0-.175 2.344l6.486 7.561a1.663 1.663 0 0 0 2.344.175l1.621-1.4a3.224 3.224 0 0 1 2.366-.767 3.186 3.186 0 0 1 2.234 1.139l2.169 2.541a1.682 1.682 0 0 0 2.344.175l28.647-24.563.044-.044h10.1a1.664 1.664 0 0 0 1.665-1.665 1.779 1.779 0 0 0-1.711-1.748zm-39.69 24.314l-1.1-1.27a6.5 6.5 0 0 0-4.49-2.278 6.591 6.591 0 0 0-4.8 1.555l-.372.307-4.315-5.038.372-.307a6.5 6.5 0 0 0 2.278-4.49 6.591 6.591 0 0 0-1.555-4.8 6.505 6.505 0 0 0-4.49-2.278 6.591 6.591 0 0 0-4.8 1.555l-.372.307-3.649-4.27h51.782z"/><path class="a" d="M-3062.443-14405.202h-47.292a1.665 1.665 0 1 0 0 3.329h45.627v29.483h-71.977v-29.483h13.67a1.665 1.665 0 0 0 0-3.329h-15.335a1.664 1.664 0 0 0-1.665 1.665v32.791a1.664 1.664 0 0 0 1.665 1.665h75.307a1.664 1.664 0 0 0 1.665-1.665v-32.791a1.664 1.664 0 0 0-1.665-1.665z"/><path class="a" d="M-3121.848-14394.403h-9.176c-.613 0-.9.657-.9 1.249 0 .7.329 1.27.9 1.27h3.176v12.42c0 .591.7.9 1.4.9s1.4-.307 1.4-.9v-12.42h3.154c.57 0 .9-.613.9-1.27.022-.592-.263-1.249-.854-1.249zm3.831 0c-.723 0-1.4.263-1.4.876v14.085c0 .591.7.9 1.4.9s1.4-.307 1.4-.9v-14.085c0-.613-.7-.876-1.4-.876zm12.598 10.295c-.745 0-1.336.219-1.38.9-.066.92-.241 2.322-2.212 2.322-1.49 0-2.322-.811-2.322-2.5v-6.045c0-1.687.832-2.5 2.278-2.5a2.008 2.008 0 0 1 2.256 2.147c.022.657.613.9 1.4.9.964 0 1.4-.263 1.4-1.38 0-2.519-2.147-4.118-5.17-4.118-2.738 0-5.016 1.336-5.016 4.972v6.046c0 3.614 2.256 4.972 4.994 4.972 3.045 0 5.169-1.665 5.169-4.293.027-1.138-.433-1.423-1.397-1.423zm13.909 3.746l-4.731-7.207 3.877-4.863a.845.845 0 0 0 .175-.548 1.752 1.752 0 0 0-1.621-1.446.905.905 0 0 0-.789.416l-4.691 6.375v-5.914c0-.613-.723-.876-1.4-.876-.723 0-1.4.263-1.4.876v14.085c0 .591.7.9 1.4.9s1.4-.307 1.4-.9v-4.249l1.161-1.468 4.074 6.177a1.112 1.112 0 0 0 .986.548 1.713 1.713 0 0 0 1.687-1.4.706.706 0 0 0-.128-.506zm10.338-.679h-6.137v-4.359h3.286a.983.983 0 0 0 .9-1.073c0-.591-.329-1.117-.9-1.117h-3.286v-4.337h6.133c.57 0 .9-.591.9-1.249 0-.591-.285-1.2-.9-1.2h-7.71c-.635 0-1.227.307-1.227.9v14.063c0 .591.613.9 1.227.9h7.71c.613 0 .9-.635.9-1.2-.02-.737-.326-1.328-.896-1.328zm11.544-13.362h-9.176c-.613 0-.9.657-.9 1.249 0 .7.329 1.27.9 1.27h3.176v12.42c0 .591.7.9 1.4.9s1.4-.307 1.4-.9v-12.42h3.154c.569 0 .9-.613.9-1.27.044-.592-.241-1.249-.854-1.249z"/></svg>