<svg xmlns="http://www.w3.org/2000/svg" viewBox="-2914 -13696 70 53.72"><defs><style>.a{fill:#ef4135;}</style></defs><g transform="translate(-2914 -13696)"><path class="a" d="M66.514,0H13.533a1.025,1.025,0,0,0,0,2.05H33.968V14.585a12.318,12.318,0,0,0,0,24.55V51.67H3.472A1.42,1.42,0,0,1,2.05,50.248V43.741H12.138a2.532,2.532,0,0,0,2.529-2.529V12.494a2.529,2.529,0,0,0-2.529-2.515H2.05V3.472A1.412,1.412,0,0,1,3.472,2.05H9.979A1.033,1.033,0,0,0,11,1.025,1.033,1.033,0,0,0,9.979,0H3.472A3.477,3.477,0,0,0,0,3.472V50.248A3.477,3.477,0,0,0,3.472,53.72H66.528A3.477,3.477,0,0,0,70,50.248V3.472A3.5,3.5,0,0,0,66.514,0ZM2.05,12.029H12.138a.484.484,0,0,1,.478.478V41.226a.484.484,0,0,1-.478.478H2.05Zm31.918,12.89a2.19,2.19,0,0,0,0,3.882v8.27a10.262,10.262,0,0,1,0-20.422Zm2.05,3.882a2.19,2.19,0,0,0,0-3.882v-8.27a10.262,10.262,0,0,1,0,20.422ZM67.936,9.979H57.848a2.532,2.532,0,0,0-2.529,2.529v2.734a1.025,1.025,0,1,0,2.05,0V12.507a.484.484,0,0,1,.478-.478H67.936V41.691H57.848a.484.484,0,0,1-.478-.478V18.8a1.025,1.025,0,1,0-2.05,0V41.213a2.532,2.532,0,0,0,2.529,2.529H67.936v6.507a1.42,1.42,0,0,1-1.422,1.422h-30.5V39.135a12.318,12.318,0,0,0,0-24.55V2.05h30.5a1.42,1.42,0,0,1,1.422,1.422V9.979Z"/></g></svg>