<svg xmlns="http://www.w3.org/2000/svg" viewBox="-2520.5 -13694.5 71 50.74"><defs><style>.a{fill:#ef4135;stroke:rgba(0,0,0,0)}</style></defs><path class="a" d="M-2453.584-13672.444v-17.27a4.3 4.3 0 0 0-4.286-4.286h-54.224a4.3 4.3 0 0 0-4.286 4.286v17.252a4.279 4.279 0 0 0-3.62 4.214v10.68a1.36 1.36 0 0 0 1.351 1.351h1.44v6.663a1.36 1.36 0 0 0 1.351 1.354h2.431v2.593a1.351 1.351 0 0 0 2.7 0v-2.593h51.452v2.593a1.351 1.351 0 0 0 2.7 0v-2.593h2.431a1.36 1.36 0 0 0 1.351-1.351v-6.667h1.441a1.36 1.36 0 0 0 1.352-1.35v-10.68a4.215 4.215 0 0 0-3.584-4.196zm-60.095-17.27a1.587 1.587 0 0 1 1.585-1.586h54.224a1.587 1.587 0 0 1 1.585 1.585v17.215h-4.736a142.257 142.257 0 0 0 2.9-3.224 1.322 1.322 0 0 0 0-1.765 111.55 111.55 0 0 0-11.67-11.67 1.322 1.322 0 0 0-1.765 0 111.55 111.55 0 0 0-11.67 11.67 1.322 1.322 0 0 0 0 1.765c.99 1.135 1.963 2.215 2.9 3.224h-9.274a142.257 142.257 0 0 0 2.9-3.224 1.322 1.322 0 0 0 0-1.765 111.551 111.551 0 0 0-11.67-11.67 1.322 1.322 0 0 0-1.765 0 106.739 106.739 0 0 0-11.707 11.659 1.322 1.322 0 0 0 0 1.765c.99 1.135 1.963 2.215 2.9 3.224h-4.737zm37.062 17.214a112.552 112.552 0 0 1-3.8-4.106 103.643 103.643 0 0 1 9.743-9.743 103.644 103.644 0 0 1 9.743 9.749c-1.315 1.477-2.557 2.845-3.8 4.106zm-28.6 0a131.065 131.065 0 0 1-3.818-4.106 105.843 105.843 0 0 1 9.745-9.74 103.643 103.643 0 0 1 9.743 9.746c-1.315 1.477-2.557 2.845-3.818 4.106h-11.85zm49.74 21.592h-59.03v-5.31h59.032zm2.791-8.014h-64.614v-9.326a1.549 1.549 0 0 1 1.55-1.552h61.5a1.549 1.549 0 0 1 1.55 1.552l.018 9.329z"/></svg>