<svg xmlns="http://www.w3.org/2000/svg" viewBox="-2569.315 -14434 98.315 97.797"><defs><style>.a{fill:#ef4135}</style></defs><ellipse class="a" cx="1.94" cy="1.94" rx="1.94" ry="1.94" transform="translate(-2569.315 -14340.102)"/><ellipse class="a" cx="1.92" cy="1.92" rx="1.92" ry="1.92" transform="translate(-2519.96 -14389.092)"/><path class="a" d="M-2492.785-14411.619a8.2 8.2 0 1 0 0 11.6 8.23 8.23 0 0 0 0-11.6zm-2.727 8.892a4.345 4.345 0 1 1-6.145-6.145 4.314 4.314 0 0 1 3.073-1.267 4.34 4.34 0 0 1 3.073 7.413zm-49.72 47.473a1.924 1.924 0 0 0-2.593.864l-2.3 4.609a6.388 6.388 0 0 1-5.243 3.5l-2.669.192a1.088 1.088 0 0 1-.883-.327 1.118 1.118 0 0 1-.326-.883l.192-2.669a6.388 6.388 0 0 1 3.5-5.243l4.609-2.3a1.932 1.932 0 0 0-1.728-3.457l-4.609 2.3a10.252 10.252 0 0 0-5.627 8.431l-.192 2.669a5 5 0 0 0 4.993 5.339 2.092 2.092 0 0 0 .346-.019l2.669-.192a10.252 10.252 0 0 0 8.431-5.627l2.3-4.609a1.9 1.9 0 0 0-.87-2.578z"/><path class="a" d="M-2472.314-14432.705a4.451 4.451 0 0 0-3.418-1.287l-1.786.115a58.184 58.184 0 0 0-41.328 21.32l-4.225 5.2-11.062-.326h-.058a32.611 32.611 0 0 0-23.218 9.626l-11.33 11.327a1.94 1.94 0 0 0-.442 2.055 1.922 1.922 0 0 0 1.709 1.229l23.967 1.229-.979 1.21a1.891 1.891 0 0 0-.192 2.132c.384.691.768 1.364 1.171 2.036l-5.684 6.741a1.942 1.942 0 0 0-.269 2.074 25.155 25.155 0 0 0 12.041 12.06 2.077 2.077 0 0 0 .826.192 1.971 1.971 0 0 0 1.21-.423c1.229-1 2.631-2.17 3.995-3.3.979-.807 1.978-1.652 2.9-2.4.557.326 1.114.653 1.69.96a1.986 1.986 0 0 0 .922.23 1.938 1.938 0 0 0 1.191-.4l1.306-1.018 1.228 24.076a1.943 1.943 0 0 0 1.229 1.709 1.771 1.771 0 0 0 .691.134 1.933 1.933 0 0 0 1.364-.553l11.33-11.334a32.611 32.611 0 0 0 9.621-23.218v-10.562l4.475-3.476a58.04 58.04 0 0 0 22.392-43.018l.038-.941a4.4 4.4 0 0 0-1.305-3.399zm-90.641 45.63l8.258-8.258a28.748 28.748 0 0 1 20.472-8.488l8.085.23-14.35 17.668zm29.133 24.6c-1 .845-2.036 1.709-3 2.5a21.169 21.169 0 0 1-4.993-3.726 20.427 20.427 0 0 1-3.591-4.859l4.167-4.936a44.417 44.417 0 0 0 4.129 4.782 46.176 46.176 0 0 0 5.3 4.571c-.671.535-1.345 1.111-2.016 1.668zm32.087-8.872a28.792 28.792 0 0 1-8.488 20.49l-8.258 8.258-1.153-22.43 17.9-13.885v7.567zm26.848-57.21a54.077 54.077 0 0 1-20.895 40.137l-30.227 23.463a40.732 40.732 0 0 1-6.99-5.147l10.2-10.2a1.928 1.928 0 0 0-2.727-2.727l-10.182 10.186a39.438 39.438 0 0 1-4.936-6.741l24.789-30.516a54.152 54.152 0 0 1 38.567-19.914l1.786-.115a.595.595 0 0 1 .634.634z"/></svg>