<svg xmlns="http://www.w3.org/2000/svg" viewBox="-3293 -14148 61.075 61.594"><defs><style>.a{fill:#ef4135}</style></defs><path class="a" d="M-3235.553-14137.945h-19.219a7.55 7.55 0 0 0-.947-2.665l16.04-5.025a1.184 1.184 0 0 0 .786-1.51 1.184 1.184 0 0 0-1.507-.787l-16.957 5.314a7.777 7.777 0 0 0-10.211 0l-16.971-5.33a1.205 1.205 0 1 0-.722 2.3l16.04 5.041a7.879 7.879 0 0 0-.947 2.665h-19.203a3.621 3.621 0 0 0-3.629 3.609v40.765a3.635 3.635 0 0 0 3.629 3.629h.578v2.328a1.204 1.204 0 1 0 2.408 0v-2.328h47.845v2.328a1.204 1.204 0 1 0 2.408 0v-2.328h.578a3.635 3.635 0 0 0 3.629-3.629v-40.765a3.632 3.632 0 0 0-3.628-3.612zm-26.909-4.175a5.371 5.371 0 0 1 5.234 4.174h-10.484a5.4 5.4 0 0 1 5.25-4.174zm28.129 48.552a1.22 1.22 0 0 1-1.22 1.22h-53.818a1.22 1.22 0 0 1-1.22-1.22v-40.765a1.22 1.22 0 0 1 1.22-1.22h53.818a1.22 1.22 0 0 1 1.22 1.22v40.765z"/><path class="a" d="M-3237.544-14131.346a1.211 1.211 0 0 0-1.092-1 284.7 284.7 0 0 0-47.669 0 1.211 1.211 0 0 0-1.092 1 99.7 99.7 0 0 0 0 33.685 1.211 1.211 0 0 0 1.092 1c7.9.658 15.863 1 23.826 1s15.927-.337 23.826-1a1.211 1.211 0 0 0 1.092-1 99.284 99.284 0 0 0 .017-33.685zm-2.232 32.352a281.85 281.85 0 0 1-45.389 0 96.667 96.667 0 0 1 0-31.019 281.852 281.852 0 0 1 45.389 0 96.668 96.668 0 0 1 0 31.019z"/><path class="a" d="M-3241.702-14120.911a1.215 1.215 0 0 0-1.14 1.268 91.1 91.1 0 0 1-.177 12.732 1.206 1.206 0 0 0 1.108 1.3h.1a1.219 1.219 0 0 0 1.2-1.108 95.738 95.738 0 0 0 .177-13.053 1.194 1.194 0 0 0-1.268-1.139zm-.225-1.464h.112a1.205 1.205 0 0 0 1.076-1.317 96.33 96.33 0 0 0-.434-3.725 1.2 1.2 0 1 0-2.376.321c.161 1.2.3 2.424.417 3.629a1.216 1.216 0 0 0 1.205 1.092zm6.084 26.688a1.2 1.2 0 1 0 .466 1.4 1.183 1.183 0 0 0-.466-1.4z"/></svg>