<svg xmlns="http://www.w3.org/2000/svg" viewBox="-2908 -14151 58 76.021"><defs><style>.a{fill:#ef4135}</style></defs><path class="a" d="M-2854.246-14112.566h-.134v-35.094a3.34 3.34 0 1 0-6.68 0v1.811c-1.544.238-3.592.475-6.294.668a181.716 181.716 0 0 1-19.6.223 1.13 1.13 0 1 0-.085 2.258 186.448 186.448 0 0 0 19.848-.223c5.864-.416 8.907-1.039 10.54-1.6v18.581a12.74 12.74 0 0 1-3.474.965.055.055 0 0 0-.045.015 55.375 55.375 0 0 1-3.845.52c-4.127.431-9.486.668-15.068.668s-10.941-.238-15.068-.668a51.984 51.984 0 0 1-3.845-.52.055.055 0 0 1-.045-.015 12.74 12.74 0 0 1-3.474-.965v-18.586a36.29 36.29 0 0 0 7.868 1.381 1.127 1.127 0 1 0 .223-2.242 89.12 89.12 0 0 1-3.667-.445v-1.826a3.368 3.368 0 0 0-3.353-3.34 3.332 3.332 0 0 0-3.325 3.34v35.094a4.283 4.283 0 0 0 .059 8.566h6.947l13.539 13.374-13.865 13.7a1.135 1.135 0 0 0 .787 1.945h.015l4.379-.074a1.078 1.078 0 0 0 .772-.327l11.653-11.518 11.653 11.52a1.1 1.1 0 0 0 .772.327l4.379.074h.015a1.111 1.111 0 0 0 1.039-.7 1.144 1.144 0 0 0-.252-1.247l-13.865-13.7 13.542-13.374h7.912a4.292 4.292 0 0 0 4.288-4.291 4.223 4.223 0 0 0-4.246-4.275zm-46.198-36.178a1.09 1.09 0 0 1 1.084 1.084v1.4a8.738 8.738 0 0 1-2.153-.7v-.7a1.077 1.077 0 0 1 1.069-1.084zm41.655 2.465v-1.4a1.084 1.084 0 1 1 2.167 0v.7a9.2 9.2 0 0 1-2.167.7zm0 23.336a17.676 17.676 0 0 0 2.153-.579v10.941h-2.153zm-42.724-.579a18.463 18.463 0 0 0 2.153.579v10.377h-2.153zm9.13 46.2l-1.117.012 11.879-11.742.549.534zm26.958.03l-1.113-.015-27.003-26.693h1.1zm-23.811-26.708h19.566l-9.783 9.664zm11.936 11.786l-.549-.534 11.385-11.238h1.1zm23.054-14.043h-49.464a2.034 2.034 0 0 1 0-4.068h12.232a1.128 1.128 0 0 0 0-2.256h-5.622v-9.976c.8.119 1.707.238 2.731.341a152.61 152.61 0 0 0 15.305.683 152.61 152.61 0 0 0 15.305-.683c1.024-.1 1.93-.223 2.731-.341v9.976h-23.977a1.128 1.128 0 1 0 0 2.256h30.759a2.034 2.034 0 1 1 0 4.068z"/><path class="a" d="M-2870.46-14135.606a1.144 1.144 0 0 0-.861-.757l-3.771-.713-1.841-3.37a1.13 1.13 0 0 0-.995-.579 1.148 1.148 0 0 0-.995.579l-1.841 3.37-3.771.713a1.121 1.121 0 0 0-.861.757 1.135 1.135 0 0 0 .252 1.128l2.628 2.791-.49 3.815a1.147 1.147 0 0 0 1.128 1.277 1.056 1.056 0 0 0 .475-.1l3.474-1.633 3.474 1.633a1.129 1.129 0 0 0 1.143-.1 1.163 1.163 0 0 0 .46-1.054l-.49-3.815 2.628-2.791a1.154 1.154 0 0 0 .254-1.151zm-4.884 2.761a1.11 1.11 0 0 0-.3.92l.3 2.3-2.093-.995a1.1 1.1 0 0 0-.965 0l-2.093.995.3-2.3a1.11 1.11 0 0 0-.3-.92l-1.6-1.677 2.271-.431a1.138 1.138 0 0 0 .787-.564l1.113-2.034 1.113 2.034a1.108 1.108 0 0 0 .787.564l2.271.431z"/></svg>