<svg xmlns="http://www.w3.org/2000/svg" viewBox="-2520 -14145 70 70"><defs><style>.a{fill:#ef4135}</style></defs><path class="a" d="M-2488.507-14122.842h-5.836a1.1 1.1 0 0 0-1.162 1.162v7h-4.661v-7a1.1 1.1 0 0 0-1.161-1.162h-5.838a1.1 1.1 0 0 0-1.162 1.162v23.338a1.1 1.1 0 0 0 1.162 1.162h5.838a1.1 1.1 0 0 0 1.162-1.162v-7h4.661v7a1.1 1.1 0 0 0 1.162 1.162h5.837a1.1 1.1 0 0 0 1.162-1.162v-23.32a1.1 1.1 0 0 0-1.164-1.18zm-1.162 23.333h-3.5v-7a1.1 1.1 0 0 0-1.162-1.162h-7a1.1 1.1 0 0 0-1.162 1.162v7h-3.5v-21h3.486v7a1.1 1.1 0 0 0 1.162 1.162h7a1.1 1.1 0 0 0 1.162-1.162v-7h3.5l.014 21zm22.159-23.333h-14a1.1 1.1 0 0 0-1.162 1.162v23.338a1.1 1.1 0 0 0 1.162 1.162h14a7.012 7.012 0 0 0 7-7v-11.662a7.021 7.021 0 0 0-7-7zm4.661 18.672a4.676 4.676 0 0 1-4.661 4.661h-12.835v-21h12.835a4.676 4.676 0 0 1 4.661 4.661z"/><path class="a" d="M-2469.846-14117.005h-5.837a1.1 1.1 0 0 0-1.162 1.162v11.66a1.1 1.1 0 0 0 1.162 1.162h5.837a3.438 3.438 0 0 0 3.5-3.5v-7a3.435 3.435 0 0 0-3.5-3.484zm1.176 10.5a1.1 1.1 0 0 1-1.162 1.162h-4.661v-9.336h4.661a1.1 1.1 0 0 1 1.162 1.162v7.012z"/><path class="a" d="M-2462.849-14145h-44.316a12.794 12.794 0 0 0-12.835 12.835v44.33a12.794 12.794 0 0 0 12.835 12.835h44.33a12.794 12.794 0 0 0 12.835-12.835v-44.33a12.814 12.814 0 0 0-12.849-12.835zm10.5 57.151a10.449 10.449 0 0 1-10.5 10.5h-44.316a10.449 10.449 0 0 1-10.5-10.5v-44.316a10.449 10.449 0 0 1 10.5-10.5h44.33a10.449 10.449 0 0 1 10.5 10.5l-.014 44.316z"/></svg>