<svg xmlns="http://www.w3.org/2000/svg" viewBox="-3297 -13917 70 70"><defs><style>.a{fill:#ef4135}</style></defs><path class="a" d="M-3228.186-13849.373a9.519 9.519 0 0 1-9.492-9.492 33.958 33.958 0 0 0 9.492-23.729 34.48 34.48 0 1 0-11.628 25.747 11.846 11.846 0 0 0 11.628 9.847 1.187 1.187 0 0 0 0-2.373zm-66.441-33.22a32.034 32.034 0 1 1 32.034 32.034 32.052 32.052 0 0 1-32.034-32.034z"/><path class="a" d="M-3262.593-13912.254a29.661 29.661 0 1 0 29.661 29.661 29.672 29.672 0 0 0-29.661-29.661zm0 56.949a27.288 27.288 0 1 1 27.288-27.288 27.292 27.292 0 0 1-27.288 27.288z"/><path class="a" d="M-3248.356-13890.898a4.036 4.036 0 0 0-1.186.119l-.949.237a5.783 5.783 0 0 0-1.305.475c-.356.237-.831.356-1.186.593-.356.237-.593.475-.949.712-.119 0-.119.119-.237.119l-.831.831c0 .119-.119.119-.119.237a4.162 4.162 0 0 0-.593.949 4.214 4.214 0 0 0-.475 1.068c0 .119 0 .119-.119.237a3.51 3.51 0 0 0-.237 1.186v.237a4.866 4.866 0 0 0-.119 1.305 4.867 4.867 0 0 0 .119 1.305v.237c.119.356.119.831.237 1.186 0 .119 0 .119.119.237.119.356.356.712.475 1.068a6.623 6.623 0 0 0 .593.949c0 .119.119.119.119.237a2.772 2.772 0 0 0 .831.831.414.414 0 0 0 .237.119c.356.237.593.475.949.712a3.711 3.711 0 0 0 1.186.593 4.25 4.25 0 0 0 1.305.475l.949.356c.356 0 .712.119 1.186.119a8.254 8.254 0 0 0 8.305-8.305 8.355 8.355 0 0 0-8.305-8.424zm-1.186 8.305a12.582 12.582 0 0 1-1.186 5.458 2.974 2.974 0 0 1-.831-.475c-.119-.119-.237-.119-.237-.237a2.083 2.083 0 0 1-.593-.475l-.237-.237c-.237-.237-.356-.475-.593-.712l-.119-.119a2.385 2.385 0 0 1-.475-.949.414.414 0 0 0-.119-.237c-.119-.237-.119-.475-.237-.712a.436.436 0 0 0-.119-.356v-.949a3.285 3.285 0 0 1 .119-1.068.436.436 0 0 1 .119-.356c.119-.237.119-.475.237-.712a.414.414 0 0 1 .119-.237c.119-.356.356-.593.475-.949l.119-.119a3.145 3.145 0 0 1 .593-.712l.237-.237a2.588 2.588 0 0 1 .593-.475c.119-.119.237-.119.237-.237.237-.119.593-.356.831-.475a15.5 15.5 0 0 1 1.067 5.577zm1.186 5.932a17.048 17.048 0 0 0 1.186-5.932 17.048 17.048 0 0 0-1.186-5.932 5.932 5.932 0 1 1 0 11.864zm-21.949-.831c0-.119.119-.119.119-.237a4.162 4.162 0 0 0 .593-.949 4.214 4.214 0 0 0 .475-1.068c0-.119 0-.119.119-.237a3.51 3.51 0 0 0 .237-1.186v-.238a1.951 1.951 0 0 0 .237-1.186 4.867 4.867 0 0 0-.119-1.305v-.237c-.119-.356-.119-.831-.237-1.186 0-.119 0-.119-.119-.237a4.214 4.214 0 0 0-.475-1.068 6.623 6.623 0 0 0-.593-.949c0-.119-.119-.119-.119-.237a5.16 5.16 0 0 0-.712-.831.414.414 0 0 0-.237-.12c-.356-.237-.593-.475-.949-.712a3.711 3.711 0 0 0-1.186-.593 4.25 4.25 0 0 0-1.305-.475l-1.068-.356c-.356 0-.712-.119-1.186-.119a8.305 8.305 0 1 0 0 16.61 4.036 4.036 0 0 0 1.186-.119l.949-.237a5.783 5.783 0 0 0 1.305-.475c.356-.237.831-.356 1.186-.593.356-.237.593-.475.949-.712.119 0 .119-.119.237-.119a5.161 5.161 0 0 0 .713-.829zm-.712-4.034a.436.436 0 0 1-.119.356c-.119.237-.119.475-.237.712a.414.414 0 0 1-.119.237c-.119.356-.356.593-.475.949l-.119.119a3.146 3.146 0 0 1-.593.712l-.237.237a2.588 2.588 0 0 1-.593.475c-.119.119-.237.119-.237.237-.237.119-.593.356-.831.475a12.224 12.224 0 0 1-1.186-5.458 12.582 12.582 0 0 1 1.186-5.458 2.974 2.974 0 0 1 .831.475c.119.119.237.119.237.237a2.083 2.083 0 0 1 .593.475l.237.237c.237.237.356.475.593.712l.119.119a2.385 2.385 0 0 1 .475.949.414.414 0 0 0 .119.237c.119.237.119.475.237.712a.436.436 0 0 0 .119.356c.119.119.119.475.119.831a3.285 3.285 0 0 1-.119 1.068zm-11.746-1.067a5.875 5.875 0 0 1 5.932-5.932 14.721 14.721 0 0 0-1.186 5.932 17.048 17.048 0 0 0 1.186 5.932 5.875 5.875 0 0 1-5.932-5.932zm11.865-13.051l.237.949a5.784 5.784 0 0 0 .475 1.305c.237.356.356.831.593 1.186.237.356.475.593.712.949 0 .119.119.119.119.237a4.432 4.432 0 0 0 .831.712c.119 0 .119.119.237.119a4.162 4.162 0 0 0 .949.593 4.214 4.214 0 0 0 1.068.475c.119 0 .119 0 .237.119a3.51 3.51 0 0 0 1.186.237h.237a3.256 3.256 0 0 0 1.424.237 4.867 4.867 0 0 0 1.305-.119h.237c.356-.119.831-.119 1.186-.237.119 0 .119 0 .237-.119.356-.119.712-.356 1.068-.475a6.622 6.622 0 0 0 .949-.593c.119 0 .119-.119.237-.119a5.161 5.161 0 0 0 .831-.712.414.414 0 0 0 .12-.236c.237-.356.475-.593.712-.949a3.711 3.711 0 0 0 .593-1.186 4.25 4.25 0 0 0 .475-1.305l.356-1.068c0-.356.119-.712.119-1.186a8.305 8.305 0 1 0-16.61 0 4.036 4.036 0 0 0-.12 1.186zm13.288 2.017c-.119.119-.119.237-.237.237a2.083 2.083 0 0 1-.475.593l-.237.237c-.237.237-.475.356-.712.593l-.119.119a2.385 2.385 0 0 1-.949.475.414.414 0 0 0-.237.119c-.237.119-.475.119-.712.237a.436.436 0 0 0-.356.119h-.949a3.285 3.285 0 0 1-1.068-.119.436.436 0 0 1-.356-.119c-.237-.119-.475-.119-.712-.237a.414.414 0 0 1-.237-.119c-.356-.119-.593-.356-.949-.475l-.119-.119a3.146 3.146 0 0 1-.712-.593l-.237-.237a2.588 2.588 0 0 1-.475-.593c-.119-.119-.119-.237-.237-.237-.119-.237-.356-.593-.475-.831a13.453 13.453 0 0 1 10.915 0 2.265 2.265 0 0 1-.355.949zm-4.983-9.136a5.875 5.875 0 0 1 5.932 5.932 15.789 15.789 0 0 0-11.864 0 5.875 5.875 0 0 1 5.932-5.932zm8.305 33.221l-.237-.949a5.783 5.783 0 0 0-.475-1.305c-.237-.356-.356-.831-.593-1.186-.237-.356-.475-.593-.712-.949 0-.119-.119-.119-.119-.237l-.831-.831c-.119 0-.119-.119-.237-.119a4.162 4.162 0 0 0-.949-.593 4.215 4.215 0 0 0-1.068-.475c-.119 0-.119 0-.237-.119a3.51 3.51 0 0 0-1.186-.237h-.237a6.269 6.269 0 0 0-1.424-.119 4.867 4.867 0 0 0-1.305.119h-.237c-.356.119-.831.119-1.186.237-.119 0-.119 0-.237.119a4.214 4.214 0 0 0-1.068.475 6.623 6.623 0 0 0-.949.593c-.119 0-.119.119-.237.119a2.772 2.772 0 0 0-.831.831.414.414 0 0 0-.119.237c-.237.356-.475.593-.712.949a3.711 3.711 0 0 0-.593 1.186 4.25 4.25 0 0 0-.475 1.305l-.356.949c0 .356-.119.712-.119 1.186a8.305 8.305 0 1 0 16.61 0 4.036 4.036 0 0 0 .119-1.186zm-13.288-2.019c.119-.119.119-.237.237-.237a2.083 2.083 0 0 1 .475-.593l.237-.237c.237-.237.475-.356.712-.593l.119-.119a2.385 2.385 0 0 1 .949-.475.414.414 0 0 0 .237-.119c.237-.119.475-.119.712-.237a.436.436 0 0 0 .356-.119h.949a3.285 3.285 0 0 1 1.068.119.436.436 0 0 1 .356.119c.237.119.475.119.712.237a.414.414 0 0 1 .237.119c.356.119.593.356.949.475l.119.119a3.145 3.145 0 0 1 .712.593l.237.237a2.588 2.588 0 0 1 .475.593c.119.119.119.237.237.237.119.237.356.593.475.831a13.453 13.453 0 0 1-10.915 0 2.265 2.265 0 0 1 .355-.95zm4.983 9.136a5.875 5.875 0 0 1-5.932-5.932 14.721 14.721 0 0 0 5.932 1.186 17.048 17.048 0 0 0 5.932-1.186 5.875 5.875 0 0 1-5.932 5.933z"/></svg>