<svg xmlns="http://www.w3.org/2000/svg" viewBox="-2914 -13921 70 66.541"><defs><style>.a{fill:#ef4135}</style></defs><path class="a" d="M-2870.236-13899.193h-23.762a3.37 3.37 0 0 0-3.363 3.363v16.078a3.37 3.37 0 0 0 3.363 3.363h23.762a3.37 3.37 0 0 0 3.363-3.363v-16.078a3.37 3.37 0 0 0-3.363-3.363zm1.313 19.441a1.313 1.313 0 0 1-1.312 1.313h-23.763a1.313 1.313 0 0 1-1.312-1.312v-16.079a1.313 1.313 0 0 1 1.313-1.312h23.762a1.313 1.313 0 0 1 1.313 1.313z"/><path class="a" d="M-2845.025-13896.391a1.033 1.033 0 0 0 1.025-1.025v-3.309a2.322 2.322 0 0 0-2.324-2.324h-2.406a2.318 2.318 0 0 0-2.242 1.736l-6.043 4.1a5.132 5.132 0 0 0-3.885-3.293 4.365 4.365 0 0 0-4.238-3.4h-1.284a9.567 9.567 0 1 0-15.422-8.549h-.492a9.583 9.583 0 1 0-15.449 8.545h-1.285a4.359 4.359 0 0 0-4.348 4.348v1.722h-3.691a2 2 0 0 0-1.8-1.176h-3.1a1.984 1.984 0 0 0-1.991 1.983v6.672a1.984 1.984 0 0 0 1.982 1.982h3.09a1.958 1.958 0 0 0 1.8-1.176h3.691v7.6a1.025 1.025 0 0 0 2.051 0v-17.635a2.293 2.293 0 0 1 2.3-2.3h33.92a2.293 2.293 0 0 1 2.3 2.3v26.236a2.293 2.293 0 0 1-2.3 2.3h-33.904a2.293 2.293 0 0 1-2.3-2.3v-4.5a1.025 1.025 0 1 0-2.051 0v4.5a4.359 4.359 0 0 0 4.348 4.348h5.3l-5.947 13.1a1.013 1.013 0 0 0 .068.984 1.046 1.046 0 0 0 .861.465h6.672a1.019 1.019 0 0 0 .93-.6l6.344-13.945h5.469l6.344 13.945a1.019 1.019 0 0 0 .93.6h6.672a1.046 1.046 0 0 0 .861-.465 1.008 1.008 0 0 0 .068-.984l-5.947-13.1h5.3a4.359 4.359 0 0 0 4.348-4.348v-5.687a5.153 5.153 0 0 0 3.8-3.281l6.043 4.115a2.33 2.33 0 0 0 2.242 1.736h2.393a2.322 2.322 0 0 0 2.322-2.324v-14.519a1.025 1.025 0 0 0-2.051 0v14.546a.274.274 0 0 1-.273.273h-2.406a.274.274 0 0 1-.27-.273v-21.957a.274.274 0 0 1 .27-.275h2.406a.274.274 0 0 1 .273.273v3.309a1.024 1.024 0 0 0 1.026 1.027zm-63.975 5.975h-2.949v-6.549h2.949zm5.578-1.162h-3.523v-4.211h3.514c.013 0 .013 4.211.013 4.211zm11.543-12.332a7.52 7.52 0 1 1 7.52-7.52 7.533 7.533 0 0 1-7.52 7.52zm5.92 0c.027-.027.055-.041.082-.068a9.625 9.625 0 0 0 2.5-3.049 9.491 9.491 0 0 0 1.027-3.373h.492c.014.068.014.137.027.205a9.988 9.988 0 0 0 .889 2.98 9.71 9.71 0 0 0 2.6 3.254c.027.027.055.041.082.068h-7.7zm13.6 0a3.582 3.582 0 0 1-.383-.014 7.446 7.446 0 1 1 .383.014zm-20.422 47.428h-4.419l5.674-12.5h4.416zm25.744 0h-4.416l-5.674-12.5h4.416zm8.271-27.549a3.066 3.066 0 0 1-2.034 2.885v-17.213a3.066 3.066 0 0 1 2.037 2.885v11.443zm7.711 3.309l-5.66-3.855v-10.364l5.66-3.855v18.073z"/><ellipse class="a" cx="1.449" cy="1.449" rx="1.449" ry="1.449" transform="translate(-2874.652 -13875.172)"/><ellipse class="a" cx="1.449" cy="1.449" rx="1.449" ry="1.449" transform="translate(-2870.797 -13875.172)"/><path class="a" d="M-2891.879-13916.898a5.469 5.469 0 1 0 5.469 5.469 5.467 5.467 0 0 0-5.469-5.469zm0 8.887a3.418 3.418 0 1 1 3.418-3.418 3.419 3.419 0 0 1-3.418 3.418zm19.524-8.887a5.469 5.469 0 1 0 5.469 5.469 5.467 5.467 0 0 0-5.469-5.469zm0 8.887a3.418 3.418 0 1 1 3.418-3.418 3.419 3.419 0 0 1-3.418 3.418zm-16.558 18.251a1.033 1.033 0 0 0-1.025 1.025v1.23a1.025 1.025 0 0 0 2.051 0v-1.23a1.024 1.024 0 0 0-1.026-1.025zm13.604 0a1.033 1.033 0 0 0-1.025 1.025v1.23a1.025 1.025 0 1 0 2.051 0v-1.23a1.024 1.024 0 0 0-1.026-1.025zm-4.444 1.395a1.034 1.034 0 0 0-1.449.1 1.207 1.207 0 0 1-.9.4 1.16 1.16 0 0 1-.9-.4 1.027 1.027 0 1 0-1.545 1.354 3.285 3.285 0 0 0 4.895 0 1.034 1.034 0 0 0-.101-1.454z"/></svg>