<svg xmlns="http://www.w3.org/2000/svg" viewBox="-2520 -13919 70 69.984"><defs><style>.a{fill:#ef4135}</style></defs><path class="a" d="M-2450.153-13891.232a4.813 4.813 0 0 0-3.469-3.469v-2.714a4.829 4.829 0 0 0 0-9.351v-2.73a4.828 4.828 0 1 0-5.882-5.882h-2.715a4.829 4.829 0 0 0-9.351 0h-2.714a4.829 4.829 0 0 0-9.351 0h-2.715a4.829 4.829 0 0 0-9.351 0h-2.714a4.839 4.839 0 0 0-9.366 0h-2.715a4.823 4.823 0 1 0-5.882 5.882v2.712a4.829 4.829 0 0 0 0 9.351v2.715a4.829 4.829 0 0 0 0 9.351v2.715a4.829 4.829 0 0 0 0 9.351v2.717a4.829 4.829 0 0 0 0 9.351v2.715a4.829 4.829 0 1 0 5.882 5.882h2.712a4.829 4.829 0 0 0 9.351 0h2.715a4.829 4.829 0 0 0 9.351 0h2.715a4.829 4.829 0 0 0 9.351 0h2.717a4.829 4.829 0 0 0 9.351 0h2.715a4.829 4.829 0 1 0 5.882-5.882v-2.716a4.829 4.829 0 0 0 0-9.351v-2.714a4.829 4.829 0 0 0 0-9.351v-2.715a4.815 4.815 0 0 0 3.483-5.867zm-4.691 10.848a2.413 2.413 0 1 1 0 4.826 1.21 1.21 0 0 0-1.207 1.207v4.826a1.21 1.21 0 0 0 1.207 1.207 2.413 2.413 0 1 1 0 4.826 1.21 1.21 0 0 0-1.207 1.207v4.826a1.21 1.21 0 0 0 1.207 1.207 2.413 2.413 0 1 1-2.413 2.413 1.21 1.21 0 0 0-1.207-1.207h-4.826a1.21 1.21 0 0 0-1.207 1.207 2.413 2.413 0 1 1-4.826 0 1.21 1.21 0 0 0-1.207-1.207h-4.825a1.21 1.21 0 0 0-1.207 1.207 2.413 2.413 0 1 1-4.826 0 1.21 1.21 0 0 0-1.207-1.207h-4.826a1.21 1.21 0 0 0-1.207 1.207 2.413 2.413 0 1 1-4.826 0 1.21 1.21 0 0 0-1.207-1.207h-4.823a1.21 1.21 0 0 0-1.207 1.207 2.413 2.413 0 1 1-4.826 0 1.21 1.21 0 0 0-1.207-1.207h-4.828a1.21 1.21 0 0 0-1.206 1.202 2.413 2.413 0 1 1-2.413-2.413 1.21 1.21 0 0 0 1.207-1.207v-4.826a1.21 1.21 0 0 0-1.207-1.207 2.413 2.413 0 1 1 0-4.826 1.21 1.21 0 0 0 1.207-1.207v-4.825a1.21 1.21 0 0 0-1.207-1.207 2.413 2.413 0 1 1 0-4.826 1.21 1.21 0 0 0 1.206-1.206v-4.827a1.21 1.21 0 0 0-1.207-1.207 2.413 2.413 0 1 1 0-4.826 1.21 1.21 0 0 0 1.207-1.207v-4.823a1.21 1.21 0 0 0-1.207-1.207 2.413 2.413 0 1 1 0-4.826 1.21 1.21 0 0 0 1.207-1.207v-4.828a1.21 1.21 0 0 0-1.206-1.206 2.413 2.413 0 1 1 2.413-2.413 1.21 1.21 0 0 0 1.206 1.206h4.826a1.21 1.21 0 0 0 1.207-1.207 2.413 2.413 0 1 1 4.826 0 1.21 1.21 0 0 0 1.209 1.207h4.826a1.21 1.21 0 0 0 1.207-1.207 2.413 2.413 0 1 1 4.826 0 1.21 1.21 0 0 0 1.207 1.207h4.824a1.21 1.21 0 0 0 1.21-1.206 2.413 2.413 0 1 1 4.826 0 1.21 1.21 0 0 0 1.207 1.207h4.826a1.21 1.21 0 0 0 1.207-1.207 2.413 2.413 0 1 1 4.826 0 1.21 1.21 0 0 0 1.207 1.207h4.826a1.21 1.21 0 0 0 1.207-1.207 2.413 2.413 0 1 1 2.408 2.413 1.21 1.21 0 0 0-1.207 1.207v4.826a1.21 1.21 0 0 0 1.207 1.207 2.413 2.413 0 1 1 0 4.826 1.21 1.21 0 0 0-1.206 1.208v4.826a1.21 1.21 0 0 0 1.207 1.207 2.413 2.413 0 1 1 0 4.826 1.21 1.21 0 0 0-1.207 1.207v4.824a1.2 1.2 0 0 0 1.206 1.21z"/><path class="a" d="M-2462.083-13908.139h-45.849a1.21 1.21 0 0 0-1.207 1.207v45.849a1.21 1.21 0 0 0 1.207 1.207h45.849a1.21 1.21 0 0 0 1.207-1.207v-45.849a1.2 1.2 0 0 0-1.207-1.207zm-1.207 45.849h-43.436v-43.436h43.436z"/><path class="a" d="M-2471.736-13877.979a1.229 1.229 0 0 0 1.086-.664l1.207-2.413a1.137 1.137 0 0 0 .09-.829l-1.207-4.781-1.207-6.033a1.076 1.076 0 0 0-.211-.483l-3.62-4.826a1.4 1.4 0 0 0-.347-.317l-6.033-3.62a1.119 1.119 0 0 0-.392-.151l-6.033-1.207a1.24 1.24 0 0 0-.528.015l-4.826 1.207a1.286 1.286 0 0 0-.558.317l-1.207 1.207a1.219 1.219 0 0 0-.226 1.388l.98 1.961-2.2 6.606-2.323 3.484a1.2 1.2 0 0 0 .332 1.674.612.612 0 0 0 .136.075l1.749.9v1.49a5.015 5.015 0 0 0 3.243 6.153 1.223 1.223 0 0 0 .618.03l4.856-.965.784 3.951-8.174 4.132a.529.529 0 0 0-.121.075 2.02 2.02 0 0 0-.552 2.804 2.061 2.061 0 0 0 1.433.89 57.454 57.454 0 0 0 8.039.558 59.329 59.329 0 0 0 9.532-.784l5.9-.98a1.209 1.209 0 0 0 1-1.388 1.314 1.314 0 0 0-.241-.558l-4.63-5.791-.558-3.3a1.114 1.114 0 0 0 .618.2l3.6-.015zm-2.232 8.808l-3.861.649a55.252 55.252 0 0 1-15.61.377l7.767-3.921a1.224 1.224 0 0 0 .649-1.327l-1.207-6.033a1.2 1.2 0 0 0-1.418-.935l-5.686 1.131a2.6 2.6 0 0 1-1.372-3.2 1.1 1.1 0 0 0 .06-.377v-2.413a1.229 1.229 0 0 0-.664-1.086l-1.191-.588 1.659-2.489a1 1 0 0 0 .136-.287l1.93-5.807 4.509 2.7 4.675 7.013a1.6 1.6 0 0 0 .151.181l4.555 4.555 1.146 6.862a1.315 1.315 0 0 0 .241.558zm-7.677-18.023l-4.766-7.134a1.231 1.231 0 0 0-.377-.362l-5.731-3.439-.664-1.327.362-.362 4.238-1.056 5.565 1.116 5.656 3.393 3.318 4.419 1.161 5.822 1.1 4.389-.679 1.357h-2.368z"/></svg>