<svg xmlns="http://www.w3.org/2000/svg" viewBox="-3293 -13700.143 61.875 61.862"><defs><style>.a{fill:#ef4135}</style></defs><path class="a" d="M-3280.418-13686.955a1.217 1.217 0 0 0-1.7.109 26.307 26.307 0 0 0-3.638 5.33 1.219 1.219 0 0 0 .52 1.632 1.143 1.143 0 0 0 .556.133 1.224 1.224 0 0 0 1.076-.653 24.561 24.561 0 0 1 3.312-4.847 1.217 1.217 0 0 0-.126-1.704zm-5.21 7.905a1.212 1.212 0 0 0-1.547.737v.012a1.2 1.2 0 0 0 .737 1.535 1.161 1.161 0 0 0 .4.073 1.211 1.211 0 0 0 1.136-.8.012.012 0 0 1 .012-.012 1.222 1.222 0 0 0-.738-1.545zm26.495 35.174a1.208 1.208 0 0 0-1.293-1.124 24.423 24.423 0 0 1-5.862-.314 1.21 1.21 0 0 0-.423 2.381 27 27 0 0 0 4.629.4c.6 0 1.209-.024 1.813-.06a1.191 1.191 0 0 0 1.136-1.283zm3.313-.592a1.207 1.207 0 0 0-1.414-.955l-.036.012a1.2 1.2 0 0 0 .254 2.381 1.808 1.808 0 0 0 .254-.024 1.2 1.2 0 0 0 .942-1.414z"/><path class="a" d="M-3232.408-13677.974a1.064 1.064 0 0 0-.06-.181c-.036-.121-.073-.254-.121-.375-.048-.145-.1-.29-.133-.423-.012-.06-.036-.109-.048-.169a.175.175 0 0 1-.024-.085c-.06-.193-.133-.375-.193-.568-.024-.06-.048-.133-.073-.193-.06-.157-.121-.326-.181-.483l-.073-.181-.254-.616c-.024-.073-.06-.133-.085-.205-.06-.133-.109-.266-.169-.387s-.1-.205-.145-.314a1.5 1.5 0 0 0-.121-.242 30.978 30.978 0 0 0-26.845-17.734c-.157 0-.326-.012-.483-.012h-.629a31.024 31.024 0 0 0-16.125 4.521 30.2 30.2 0 0 0-5.185 3.964c-.012 0-.012.012-.024.012-.121.121-.242.23-.363.351l-.012.012c-.121.121-.242.23-.351.351l-.048.048a31.473 31.473 0 0 0-3.433 4.17l-.29.435c-.012.012-.012.024-.024.036-.266.4-.52.81-.761 1.221l-.109.181c-.06.1-.109.193-.157.278s-.109.181-.157.278a2.557 2.557 0 0 0-.133.254c-.06.109-.121.23-.181.338-.036.073-.073.133-.109.205-.1.181-.181.351-.266.532 0 .012-.012.012-.012.024a.042.042 0 0 1-.012.024c-.121.242-.23.483-.338.725a1.22 1.22 0 0 1-.085.181c-.1.193-.181.4-.266.6-.024.048-.036.1-.06.145-.1.218-.181.435-.266.653-.012.024-.024.06-.036.085a30.636 30.636 0 0 0-.87 20.041c.024.06.036.133.06.193l.109.375.145.435c.012.048.036.1.048.157.012.024.012.048.024.073.06.193.133.387.205.58.024.06.048.121.073.193.06.169.121.326.193.5a.947.947 0 0 1 .06.169l.254.616c.024.06.06.133.085.193.06.133.121.266.181.411.048.1.085.205.133.3s.085.169.121.254a30.936 30.936 0 0 0 27.329 17.748h.616a30.964 30.964 0 0 0 21.31-8.485.042.042 0 0 1 .024-.012c.121-.109.23-.23.351-.338l.024-.024.351-.351.06-.06a30.375 30.375 0 0 0 3.723-4.617c.012-.012.012-.024.024-.036.266-.4.52-.81.774-1.233a1.207 1.207 0 0 0 .1-.169c.06-.1.109-.193.169-.29a3.057 3.057 0 0 1 .157-.266l.145-.254c.06-.109.121-.218.181-.338.036-.073.073-.133.109-.205.1-.181.181-.351.266-.532 0-.012.012-.012.012-.024a.042.042 0 0 1 .012-.024c.121-.242.23-.483.338-.725.024-.06.048-.121.073-.169.1-.205.181-.4.266-.6.024-.048.036-.1.06-.145.1-.218.181-.435.266-.665.012-.024.024-.06.036-.085a30.786 30.786 0 0 0 .843-20.047zm-4.085-3.856c.012.012.012.036.024.048.06.109.109.23.157.338a1.505 1.505 0 0 0 .121.242c.036.085.085.181.121.266l.218.508a1.343 1.343 0 0 0 .085.193c.06.145.121.29.169.423a.839.839 0 0 1 .06.157c.073.193.145.375.218.568.024.048.036.109.06.157.048.145.1.278.145.423l.073.218.145.435c.048.145.1.29.133.447a.681.681 0 0 0 .048.145c.085.29.169.592.242.894l-3.421 5.926h-11.048l-5.512-9.549 5.524-9.573h6.841a28.367 28.367 0 0 1 5.597 7.734zm-14.529 12.607l-5.524 9.573h-11.048l-5.524-9.573 5.524-9.573h11.048zm1.6-25.552a29.345 29.345 0 0 1 4.545 2.792h-4.042l-2.03-3.493c.507.217 1.015.447 1.523.701zm-20.27-1.91a28.776 28.776 0 0 1 7.651-1.052h.544a28.476 28.476 0 0 1 7.059 1.04l3.421 5.923-5.524 9.573h-11.053l-5.523-9.573zm-3.486 1.172l-2.043 3.53h-4.073a28.537 28.537 0 0 1 6.116-3.53zm-16.281 18.385c.012-.036.024-.085.036-.121.048-.181.109-.363.169-.544.036-.109.073-.23.109-.338s.073-.218.109-.338c.06-.193.133-.387.205-.58a.833.833 0 0 1 .036-.1 26.7 26.7 0 0 1 1.172-2.7l.254-.508c.024-.048.048-.085.073-.133.06-.121.133-.254.193-.375a.9.9 0 0 1 .085-.145c.073-.121.133-.254.205-.375a.378.378 0 0 0 .06-.121c.085-.145.169-.3.266-.447 0-.012.012-.012.012-.024a28.577 28.577 0 0 1 4.412-5.6h6.841l5.524 9.573-5.524 9.573h-11.046l-3.421-5.911c.073-.266.145-.532.23-.786zm-.895 11.386a28.545 28.545 0 0 1-.012-6.962l2.019 3.493zm.689 3.638l3.409-5.9h11.048l5.524 9.573-5.524 9.575h-6.842a28.717 28.717 0 0 1-7.615-13.248zm14.957 18.446a28.13 28.13 0 0 1-4.533-2.792h4.033l2.019 3.493c-.519-.218-1.019-.46-1.519-.701zm20.27 1.91a28.843 28.843 0 0 1-7.651 1.052h-.549a27.843 27.843 0 0 1-7.059-1.04l-3.421-5.923 5.524-9.573h11.048l5.524 9.573zm3.481-1.172l2.043-3.529h4.073a28.537 28.537 0 0 1-6.121 3.528zm14.79-14.373c-.012.024-.012.036-.024.06-.1.218-.205.447-.314.665l-.254.508-.073.145a3.256 3.256 0 0 1-.193.351c-.024.048-.06.109-.085.157-.073.121-.133.242-.205.363-.024.036-.048.085-.073.121l-.254.435c-.012.012-.012.024-.024.036a28.149 28.149 0 0 1-4.412 5.584h-6.841l-5.536-9.574 5.524-9.573h11.048l3.421 5.923a28.33 28.33 0 0 1-1.705 4.799zm2.405-8.413l-2.031-3.505 2.019-3.505a27.773 27.773 0 0 1 .013 7.01z"/></svg>