<svg xmlns="http://www.w3.org/2000/svg" viewBox="-2596.207 -10340.207 30.614 30.614"><defs><style>.a{fill:#fff}</style></defs><path class="a" d="M-2580.9-10340.207a15.307 15.307 0 1 0 15.307 15.307 15.32 15.32 0 0 0-15.307-15.307zm0 28a12.7 12.7 0 1 1 12.717-12.693 12.7 12.7 0 0 1-12.717 12.693z"/><path class="a" d="M-2577.714-10330.805h-5.957v11.862h3.056v-3.988h2.875a3.94 3.94 0 1 0 .026-7.874zm-.414 5.206h-2.461v-2.538h2.461a1.278 1.278 0 1 1 0 2.538zm-8.47-3.989a1.554 1.554 0 1 0 1.554 1.554 1.559 1.559 0 0 0-1.554-1.554zm0 6.449a1.554 1.554 0 1 0 1.554 1.554 1.576 1.576 0 0 0-1.554-1.554z"/></svg>