<svg xmlns="http://www.w3.org/2000/svg" viewBox="-2685 -13227 78.5 49.004"><defs><style>.a{fill:#ee4034}</style></defs><path class="a" d="M-2610.5-13178h-70.5a3.963 3.963 0 0 1-4-4v-41a3.963 3.963 0 0 1 4-4h70.5a3.963 3.963 0 0 1 4 4v41.008a4.038 4.038 0 0 1-4 3.992zm-70.5-47a2.059 2.059 0 0 0-2 2v41.008a2.059 2.059 0 0 0 2 2h70.5a2.059 2.059 0 0 0 2-2V-13223a2.059 2.059 0 0 0-2-2zm2.346 40.54a1.67 1.67 0 0 1-.705-.235.863.863 0 0 1-.235-.705v-24.09a.927.927 0 0 1 .94-.94 1.011 1.011 0 0 1 .94.94v14.219l.705-.353 5.171-1.645 1.528-1.88a.838.838 0 0 1 .705-.353 2.179 2.179 0 0 1 .823.235l4 4 4-4a.727.727 0 0 1 .823-.235.838.838 0 0 1 .705.353l1.528 1.88 5.171 1.645a4.591 4.591 0 0 1 2.7 2.82v7.286a.927.927 0 0 1-.94.94zm1.054-7.873v5.876h25.5v-5.876a2.318 2.318 0 0 0-1.293-1.293l-4.7-1.528-2.82 4.583a.966.966 0 0 1-.705.47 1.7 1.7 0 0 1-.823-.235l-2.35-2.35-2.35 2.35a.727.727 0 0 1-.823.235.793.793 0 0 1-.705-.47l-2.938-4.7-4.693 1.528a2.542 2.542 0 0 0-1.3 1.41zm14.34-1.767l1.293 1.3 2.233-3.525-.588-.705zm-6.7-2.35l2.233 3.525 1.293-1.293-2.938-2.938zm5.171-2.233c-3.76 0-7.051-4-7.051-8.461a8.107 8.107 0 0 1 1.763-5.171.711.711 0 0 1 .705-.353c.235 0 6.7-.705 10.694 1.763 1.175.705 1.058 2.115 1.058 3.173v.588c-.117 4.47-3.407 8.465-7.167 8.465zm-4-12.1a6.6 6.6 0 0 0-1.058 3.643c0 3.408 2.468 6.463 5.053 6.463 2.7 0 5.053-3.055 5.053-6.463v-.588a5.744 5.744 0 0 0-.118-1.528c-2.813-1.879-7.514-1.644-8.924-1.527zm17.633 9.283a.927.927 0 0 1-.94-.94v-16.099h-25.504l-.118 5.876a.927.927 0 0 1-.94.94 1.011 1.011 0 0 1-.94-.94v-5.876a2.106 2.106 0 0 1 2.119-2.115h25.266a2.106 2.106 0 0 1 2.113 2.115v15.982a1.24 1.24 0 0 1-1.056 1.057z"/><path class="a" d="M-2671.133-13206.317a1.067 1.067 0 0 1-.823-.353c-1.88-2.468-2-6.816-.118-8.814a3.936 3.936 0 0 1 3.409-1.175c2-1.645 4.583-.823 6.581-.235a8.558 8.558 0 0 0 3.408.118l.94-.118.235.94a15.89 15.89 0 0 1 0 7.756 1.004 1.004 0 1 1-1.88-.705 14.442 14.442 0 0 0 .118-5.876 11.089 11.089 0 0 1-3.29-.235c-2.585-.705-4-.94-5.053.118l-.47.47-.705-.353a1.484 1.484 0 0 0-1.763.47c-1.058 1.175-1.175 4.466.235 6.228a1.07 1.07 0 0 1-.118 1.41.7.7 0 0 1-.706.354zm4.23 21.857h-.235a.943.943 0 0 1-.705-1.175l1.058-4.466-.588-1.41a.973.973 0 0 1 1.763-.823l.47 1.058h.47l.705-1.293a.973.973 0 0 1 1.763.823l-.823 1.645.823 4.113a1.015 1.015 0 0 1-2 .353l-.823-3.76-.94 4c-.115.583-.467.935-.938.935zm47.477-1.409h-19.86a.927.927 0 0 1-.94-.94 1.011 1.011 0 0 1 .94-.94h19.86a.94.94 0 1 1 0 1.88zm-24.443 0a1.036 1.036 0 0 1-1.058-.94 1.011 1.011 0 0 1 .94-.94.927.927 0 0 1 .94.94.908.908 0 0 1-.823.94zm-7.286-5.288a.927.927 0 0 1-.94-.94v-5.289a.927.927 0 0 1 .94-.94 1.011 1.011 0 0 1 .94.94v5.288a1.011 1.011 0 0 1-.94.94zm35.254-.235h-23.5a.927.927 0 0 1-.94-.94 1.011 1.011 0 0 1 .94-.94h23.5a.94.94 0 0 1 0 1.88zm-27.969 0a1.036 1.036 0 0 1-1.058-.94 1.011 1.011 0 0 1 .94-.94.927.927 0 0 1 .94.94.908.908 0 0 1-.822.939zm18.923-5.524h-13.987a.927.927 0 0 1-.94-.94 1.011 1.011 0 0 1 .94-.94h13.987a.94.94 0 0 1 0 1.88zm-18.92 0a1.036 1.036 0 0 1-1.058-.94 1.011 1.011 0 0 1 .94-.94.927.927 0 0 1 .94.94.908.908 0 0 1-.825.94zm29.376-13.162h-29.849a.927.927 0 0 1-.94-.94 1.011 1.011 0 0 1 .94-.94h29.849a.94.94 0 0 1 0 1.88zm-6.933-6.111h-22.563a.927.927 0 0 1-.94-.94 1.011 1.011 0 0 1 .94-.94h22.563a.927.927 0 0 1 .94.94 1.011 1.011 0 0 1-.94.94z"/></svg>