<svg xmlns="http://www.w3.org/2000/svg" viewBox="-2975 -13009 64.407 62.81"><defs><style>.a{fill:#ef4135}</style></defs><path class="a" d="M-2911.511-12990.382a.923.923 0 0 0-.918.918v36.882a.875.875 0 0 1-.881.881h-25.373a.918.918 0 0 0 0 1.837h25.373a2.722 2.722 0 0 0 2.717-2.717v-36.883a.915.915 0 0 0-.918-.918zm-1.799-18.618h-58.973a2.722 2.722 0 0 0-2.717 2.717v53.7a2.722 2.722 0 0 0 2.717 2.717h1.9a.918.918 0 0 0 0-1.837h-1.9a.875.875 0 0 1-.881-.881v-53.699a.875.875 0 0 1 .881-.881h58.973a.875.875 0 0 1 .881.881v10.983a.918.918 0 1 0 1.837 0v-10.983a2.722 2.722 0 0 0-2.718-2.717z"/><path class="a" d="M-2927.701-12972.909h-4.7a1.793 1.793 0 0 0-1.786 1.786v4.7a1.793 1.793 0 0 0 1.786 1.786h4.7a1.793 1.793 0 0 0 1.786-1.786v-4.717a1.782 1.782 0 0 0-1.786-1.769zm-.05 6.441h-4.6v-4.6h4.6zm10.277-6.441h-4.7a1.793 1.793 0 0 0-1.786 1.786v4.7a1.793 1.793 0 0 0 1.786 1.786h4.7a1.793 1.793 0 0 0 1.786-1.786v-4.717a1.791 1.791 0 0 0-1.786-1.769zm-.063 6.441h-4.6v-4.6h4.6zm-10.164 3.559h-4.7a1.793 1.793 0 0 0-1.786 1.786v4.7a1.793 1.793 0 0 0 1.786 1.786h4.7a1.793 1.793 0 0 0 1.786-1.786v-4.7a1.793 1.793 0 0 0-1.786-1.786zm-.05 6.441h-4.6v-4.6h4.6zm10.277-6.441h-4.7a1.793 1.793 0 0 0-1.786 1.786v4.7a1.793 1.793 0 0 0 1.786 1.786h4.7a1.793 1.793 0 0 0 1.786-1.786v-4.7a1.8 1.8 0 0 0-1.786-1.786zm-.063 6.441h-4.6v-4.6h4.6zm1.837-44.707a2.641 2.641 0 0 0-2.642-2.642h-48.909a2.641 2.641 0 0 0-2.642 2.642v20.658a2.641 2.641 0 0 0 2.642 2.642h48.921a2.641 2.641 0 0 0 2.642-2.642l-.013-20.656zm-1.837 20.658a.811.811 0 0 1-.805.805h-48.909a.811.811 0 0 1-.805-.805v-20.658a.811.811 0 0 1 .805-.805h48.921a.811.811 0 0 1 .805.805l-.012 20.658zm-21.335 10.136a2.529 2.529 0 0 0-2.528-2.529h-25.965a2.529 2.529 0 0 0 0 5.057h1.321l-1.635 15.322-.428 4.051a2.152 2.152 0 0 0 0 .4v.025a.1.1 0 0 0 .013.05 2.04 2.04 0 0 0 .5 1.094 2.233 2.233 0 0 0 1.409.7 1.859 1.859 0 0 0 .264.013h23.087a2.287 2.287 0 0 0 1.686-.717 1.993 1.993 0 0 0 .5-1.572l-2.076-19.372h1.321a2.537 2.537 0 0 0 2.531-2.522zm-28.493.692a.692.692 0 0 1 0-1.384h1.672l-.151 1.384zm5.321 21.662h-3.886a.4.4 0 0 1-.314-.113.2.2 0 0 1-.05-.151l.478-4.428a4.594 4.594 0 0 1 3.774 4.516zm1.824 0v-.189a6.438 6.438 0 0 0-5.409-6.34l1.774-16.53h18.945l1.774 16.53a6.428 6.428 0 0 0-5.409 6.34v.189zm17.75-.264a.2.2 0 0 1-.05.151.4.4 0 0 1-.314.113h-3.875v-.189a4.6 4.6 0 0 1 3.774-4.516zm-.453-21.4l-.151-1.384h1.673a.692.692 0 0 1 0 1.384z"/><path class="a" d="M-2945.714-12962.486c-.277-3.761-4.088-6.7-8.667-6.7s-8.391 2.944-8.667 6.7a6.337 6.337 0 0 0 1.761 4.78 9.936 9.936 0 0 0 13.812 0 6.372 6.372 0 0 0 1.761-4.78zm-3.107 3.522a8.122 8.122 0 0 1-11.12 0 4.443 4.443 0 0 1-1.283-3.4c.2-2.805 3.208-5.007 6.843-5.007s6.629 2.2 6.843 5.007a4.426 4.426 0 0 1-1.283 3.405z"/><path class="a" d="M-2949.464-12962.405h-.377a2.362 2.362 0 0 0-2.365-2.415c-1.623 0-2.088 1.271-2.491 2.415h-2.981c.1-1.3.994-1.635.994-2.063 0-.315-.415-.579-.73-.579-.616 0-1.472 1.069-1.5 2.642h-.39a.332.332 0 0 0-.289.365c0 .189.138.377.289.377h.428a2.464 2.464 0 0 0 2.617 2.315c1.723 0 2.289-1.208 2.692-2.315h2.591c-.063.893-.465 1.22-.465 1.522 0 .377.478.553.73.553.616 0 .893-1.22.918-2.088h.34c.151 0 .289-.189.289-.377a.346.346 0 0 0-.3-.352zm-6.931 1.786a1.2 1.2 0 0 1-1.258-1.12h2.679a1.472 1.472 0 0 1-1.416 1.12zm3.082-1.711c.252-.679.516-1.22 1.245-1.22.654 0 .981.5 1.069 1.22z"/></svg>