<svg xmlns="http://www.w3.org/2000/svg" viewBox="-2974 -13232 76 58.184"><defs><style>.a{fill:#ef4135}</style></defs><path class="a" d="M-2947.9-13180.824a1.122 1.122 0 0 0-1.113 1.114v4.766a1.113 1.113 0 0 0 2.227 0v-4.766a1.112 1.112 0 0 0-1.114-1.114zm23.814 0a1.122 1.122 0 0 0-1.113 1.114v4.766a1.113 1.113 0 0 0 2.227 0v-4.766a1.122 1.122 0 0 0-1.114-1.114zm-32.826-23.681c-2.583-1.292-7.438-1.307-7.646-1.307a1.113 1.113 0 1 0 0 2.227c1.247 0 4.885.193 6.636 1.069a1.187 1.187 0 0 0 .49.119 1.1 1.1 0 0 0 .995-.609 1.088 1.088 0 0 0-.475-1.499zm-11.209 21.306a1.122 1.122 0 0 0-1.113 1.114v7.141a1.113 1.113 0 1 0 2.227 0v-7.141a1.112 1.112 0 0 0-1.114-1.114z"/><path class="a" d="M-2900.569-13187.356l-4.513-2.257a.082.082 0 0 1-.045-.074v-2.272a8.221 8.221 0 0 0 3.489-5.657 9.406 9.406 0 0 0-2.494-12.263 4.785 4.785 0 0 0 .208-1.381c0-2.91-2.628-5.285-5.879-5.285s-5.879 2.375-5.879 5.285a4.785 4.785 0 0 0 .208 1.381 9.514 9.514 0 0 0-3.088 4.023 352.833 352.833 0 0 1-.846-9.65 18.522 18.522 0 0 0-5.123-12.04 15.987 15.987 0 0 0-11.462-4.454 15.936 15.936 0 0 0-11.461 4.469 18.416 18.416 0 0 0-5.122 12.041c-.1 1.307-.193 2.554-.3 3.726h-10.494a7.074 7.074 0 0 0-7.067 7.064v.059a5.8 5.8 0 0 0 .624 2.628l.564 1.143v1.811a8.72 8.72 0 0 0 3.563 7.022v1.6a.459.459 0 0 1-.341.445l-4.6 1.307a4.744 4.744 0 0 0-3.373 4.521v9.2a1.122 1.122 0 0 0 1.113 1.113 1.122 1.122 0 0 0 1.113-1.113v-9.2a2.45 2.45 0 0 1 1.782-2.361l4.6-1.306a2.655 2.655 0 0 0 .475-.193l2.824 2.824v10.241a1.113 1.113 0 0 0 2.227 0v-10.241l2.836-2.836a5.247 5.247 0 0 0 1.039.371l1.128.327a5.881 5.881 0 0 0-2.479 4.781v7.616a1.113 1.113 0 0 0 2.227 0v-7.62a3.663 3.663 0 0 1 2.168-3.34l6.369-2.806a11.837 11.837 0 0 0 21.171.015l6.369 2.806a3.632 3.632 0 0 1 2.168 3.34v7.616a1.113 1.113 0 0 0 2.227 0v-7.631a5.9 5.9 0 0 0-1.41-3.816l1.722-.861 1.292 1.232a4.664 4.664 0 0 0 6.443 0l1.296-1.231 3.727 1.856a2.446 2.446 0 0 1 1.351 2.2v8.225a1.113 1.113 0 1 0 2.227 0v-8.228a4.594 4.594 0 0 0-2.574-4.172zm-9.231-26.944c2 0 3.652 1.366 3.652 3.058a.98.98 0 0 1-.015.208 9.25 9.25 0 0 0-3.637-.727 9.578 9.578 0 0 0-3.637.727c0-.074-.015-.134-.015-.208a3.392 3.392 0 0 1 3.652-3.058zm-51.18 27.063l-2.539-2.539a2.386 2.386 0 0 0 .074-.653v-.471a7.757 7.757 0 0 0 2.2.386h.252a8.44 8.44 0 0 0 2.45-.371v.445a3.174 3.174 0 0 0 .074.668zm-.193-5.493a6.224 6.224 0 0 1-5.835-6.325v-2.079a1.2 1.2 0 0 0-.119-.5l-.683-1.381a3.669 3.669 0 0 1-.386-1.633v-.059a4.841 4.841 0 0 1 4.84-4.84h9.591v4.617a4.992 4.992 0 0 1-.5 2.168l-.564 1.128a1.148 1.148 0 0 0-.119.5v2.375a6.036 6.036 0 0 1-6.221 6.028zm9.309 3.92l-3.519-1.01c-.92-.267-.92-.371-.92-.609v-1.53a8.364 8.364 0 0 0 1.069-.876 8.932 8.932 0 0 0 .624-.683 2.352 2.352 0 0 0 .8.906 24.314 24.314 0 0 0 5.048 2.42zm15.871 4.41a9.571 9.571 0 0 1-8.537-5.211l1.618-.713a3.5 3.5 0 0 0 2.079-3.192v-2.674a13.126 13.126 0 0 0 4.84.935 12.831 12.831 0 0 0 4.84-.935v2.672a3.484 3.484 0 0 0 2.079 3.192l1.618.713a9.554 9.554 0 0 1-8.537 5.213zm9.65-7.156l-1.841-.817a1.268 1.268 0 0 1-.757-1.158v-3.83a13.015 13.015 0 0 0 5.954-10.929v-2.093a4.662 4.662 0 0 0-1.589-3.517c-2.242-1.945-7.3-5.345-16.079-6.221a1.112 1.112 0 0 0-.223 2.212c8.166.817 12.8 3.9 14.847 5.686a2.4 2.4 0 0 1 .817 1.826v2.097a10.793 10.793 0 0 1-21.587 0v-.94a1.225 1.225 0 0 1 .638-1.054 8.819 8.819 0 0 0 4.068-4.81 1.113 1.113 0 1 0-2.108-.713 6.6 6.6 0 0 1-3.073 3.578 3.463 3.463 0 0 0-1.752 2.984v.935a13.015 13.015 0 0 0 5.953 10.927v3.83a1.268 1.268 0 0 1-.757 1.158l-1.841.817a24.945 24.945 0 0 1-6.948-2.925.077.077 0 0 1-.03-.059c.386-2.3 1.381-8.923 2.257-20.8a16.3 16.3 0 0 1 4.469-10.615 14.04 14.04 0 0 1 9.932-3.786 13.7 13.7 0 0 1 9.893 3.83 16.266 16.266 0 0 1 4.469 10.615c.876 11.877 1.871 18.5 2.257 20.8 0 .03 0 .045-.03.059a24.035 24.035 0 0 1-6.938 2.911zm11.848 1.871a.082.082 0 0 1-.045.074l-3.489 1.737c-.045-.015-.074-.045-.119-.059l-5.092-2.242a24.7 24.7 0 0 0 5.048-2.42 2.248 2.248 0 0 0 1.01-2.3c-.015-.045-.015-.1-.03-.163a8.193 8.193 0 0 0 2.7 3.118v2.257zm6.384 2.064a2.448 2.448 0 0 1-3.385 0l-1.039-.98a2.254 2.254 0 0 0 .267-1.084v-1.19a8.27 8.27 0 0 0 4.9 0v1.188a2.254 2.254 0 0 0 .268 1.087zm-1.689-5.11a5.993 5.993 0 0 1-5.983-5.374 1.01 1.01 0 0 0-.163-.46 7.214 7.214 0 1 1 13.362-3.771 6.851 6.851 0 0 1-.371 2.257c-3.162-3.207-8.73-4.469-9-4.528a1.123 1.123 0 0 0-.935.223 1.1 1.1 0 0 0-.416.861 2.667 2.667 0 0 1-.861 1.589 1.113 1.113 0 0 0 1.574 1.574 5.262 5.262 0 0 0 1.2-1.8c1.871.549 5.76 1.96 7.512 4.424a6 6 0 0 1-5.919 5.005z"/><path class="a" d="M-2903.865-13181.729a1.122 1.122 0 0 0-1.114 1.113v5.671a1.113 1.113 0 1 0 2.227 0v-5.671a1.1 1.1 0 0 0-1.113-1.113z"/></svg>