<svg xmlns="http://www.w3.org/2000/svg" viewBox="-3267 -13236 67 66.396"><defs><style>.a{fill:#ee4034}</style></defs><path class="a" d="M-3210.645-13169.6a1.182 1.182 0 0 1-1.2-1.2 1.289 1.289 0 0 1 1.2-1.2 8.317 8.317 0 0 0 8.245-8.245 1.182 1.182 0 0 1 1.2-1.2 1.289 1.289 0 0 1 1.2 1.2 10.585 10.585 0 0 1-10.645 10.645zm-22.932-4.65a28.4 28.4 0 0 1-28.323-28.327 28.073 28.073 0 0 1 9.139-20.833c.15-.15.3-.3.45-.3a28.343 28.343 0 0 1 47.211 21.133 28.433 28.433 0 0 1-28.477 28.327zm-24.88-35.521a27.6 27.6 0 0 0-1.049 7.044 25.87 25.87 0 0 0 44.664 17.836l-1.948-7.045a16.553 16.553 0 0 1-.45-2.4l-.6-4.5-.15-.15-3.6-.3a5.552 5.552 0 0 1-2.7-1.2l-1.2-1.2a3.838 3.838 0 0 1-1.2-2.848v-2.24a4.935 4.935 0 0 1 .9-2.848l.3-.3a4.119 4.119 0 0 1 2.4-1.5l-.45-2.1a3.193 3.193 0 0 1 1.2-3.147l1.8-1.2a2.688 2.688 0 0 0 .749-1.049l.3-1.349a6.886 6.886 0 0 1 1.049-2.4l.45-.6a25.654 25.654 0 0 0-31.475.3l.45.15a1.655 1.655 0 0 0 1.2 0l2.848-1.049a5.816 5.816 0 0 0 1.649-.9l.749-.45a4.935 4.935 0 0 1 2.848-.9l7.194.3a1.624 1.624 0 0 1 1.649 1.049c.15.3.3 1.049-.749 1.948l-2.248 1.8 1.2 1.8a2.22 2.22 0 0 1 .3 1.948 2.385 2.385 0 0 1-1.349 1.349l-.6.15a4.253 4.253 0 0 0-1.349.9l-5.546 5.845a7.17 7.17 0 0 1-2.548 1.5l-1.049.3-.15.15v3.147l.15.15 4.946-.45a3.725 3.725 0 0 1 3 1.049l3.6 3.447c.15.15.6.3.749.15h.15a3.207 3.207 0 0 1 3.143 1.054l1.049 1.2a3.925 3.925 0 0 1 .6 3.147l-.749 2.1a3.111 3.111 0 0 1-2.4 2.1.676.676 0 0 0-.45.45l-.3 1.349a5.5 5.5 0 0 1-1.5 2.548l-1.8 1.5a2.365 2.365 0 0 0-.749 1.2l-.3 1.8a1.821 1.821 0 0 1-1.2 1.5 2.386 2.386 0 0 1-1.948-.45l-1.349-1.349a4.385 4.385 0 0 1-1.2-2.848v-6.903c0-.15-.15-.6-.3-.6l-3.3-1.948a3.246 3.246 0 0 1-1.5-2.848v-1.2a14.766 14.766 0 0 1 .3-2.548l.3-1.349-6.895-3.147a16.81 16.81 0 0 0-1.948-.749l-.749-.15a3.3 3.3 0 0 1-2.248-2.4zm14.838 8.393v.3l-.3 1.349a8.772 8.772 0 0 0-.3 1.948v1.2c0 .15.15.6.3.6l3.3 1.948a3.246 3.246 0 0 1 1.5 2.848v6.894a2.238 2.238 0 0 0 .45 1.049l.6.6.15-.749a4.481 4.481 0 0 1 1.5-2.548l1.8-1.5a5.258 5.258 0 0 0 .749-1.2l.3-1.349a3.3 3.3 0 0 1 2.4-2.248c.15 0 .45-.3.6-.45l.749-2.1a2.228 2.228 0 0 0-.15-.9l-1.049-1.2c-.15-.15-.45-.3-.6-.15h-.15a3.478 3.478 0 0 1-3.147-.9l-3.6-3.447c-.15-.15-.749-.45-1.049-.3zm25.779-8.543l-4.646.749a1.517 1.517 0 0 0-1.049.6l-.3.3a3.918 3.918 0 0 0-.45 1.2v2.248a2.238 2.238 0 0 0 .45 1.049l1.2 1.2a4.488 4.488 0 0 0 1.2.6l3.6.3a2.709 2.709 0 0 1 2.4 2.4l.6 4.5a10.5 10.5 0 0 0 .45 2.1l1.5 5.4a26.109 26.109 0 0 0 5.1-15.437 28.029 28.029 0 0 0-.45-5.1l-3.3.749a4.127 4.127 0 0 1-3-.749l-2.248-1.8a2.779 2.779 0 0 0-1.056-.309zm-38.969-3.9a.779.779 0 0 1 .3.6l1.049 4.646a.676.676 0 0 0 .45.45l.749.15c.6.15 1.649.6 2.4.749l4.5 1.948v-1.945a2.879 2.879 0 0 1 2.1-2.7l1.049-.3a3.93 3.93 0 0 0 1.349-.749l5.7-5.7a8.052 8.052 0 0 1 2.4-1.5h.15l-.9-1.349a2.572 2.572 0 0 1 .45-3.447l.6-.45-4.946-.15a2.418 2.418 0 0 0-1.349.45l-1.049.6a11.95 11.95 0 0 1-2.4 1.2l-2.848 1.049a4.562 4.562 0 0 1-3.147-.15l-1.349-.749a25.337 25.337 0 0 0-5.257 7.35zm38.969 1.349a4.645 4.645 0 0 1 2.548.749l2.248 1.8a2.166 2.166 0 0 0 1.049.3l3.3-.6a10.406 10.406 0 0 0-.749-1.948l-1.2.6a1.311 1.311 0 1 1-1.349-2.248l1.2-.6a.147.147 0 0 0 .15-.15 23.731 23.731 0 0 0-5.546-7.194l-.3.45a8.033 8.033 0 0 0-.749 1.649l-.3 1.349a6.1 6.1 0 0 1-1.8 2.548l-1.8 1.2c-.15 0-.15.3-.15.45l.45 2.248 2.248-.3c.451-.15.601-.3.751-.3zm6.895 37.622a1.182 1.182 0 0 1-1.2-1.2 1.289 1.289 0 0 1 1.2-1.2 3.327 3.327 0 0 0 3.3-3.3 1.182 1.182 0 0 1 1.2-1.2 1.289 1.289 0 0 1 1.2 1.2 5.6 5.6 0 0 1-5.7 5.7zm-.3-4.646a1.349 1.349 0 1 1 1.345-1.349 1.343 1.343 0 0 1-1.344 1.345zm1.2-1.349zm-1.2 0zm-11.69-38.818h-.3a1.2 1.2 0 0 1-.9-1.5l.3-1.349a1.237 1.237 0 0 1 2.4.6l-.3 1.349a1.306 1.306 0 0 1-1.2.9zm-32.674-3.9a1.35 1.35 0 1 1 0-2.7 1.479 1.479 0 0 1 1.349 1.5 1.312 1.312 0 0 1-1.349 1.203zm-4.8-.15a1.182 1.182 0 0 1-1.2-1.2 5.852 5.852 0 0 1 5.845-5.845 1.182 1.182 0 0 1 1.2 1.2 1.441 1.441 0 0 1-1.349 1.2 3.327 3.327 0 0 0-3.3 3.3 1.321 1.321 0 0 1-1.192 1.348zm-5.4-.3a1.289 1.289 0 0 1-1.2-1.2 10.746 10.746 0 0 1 10.8-10.787 1.182 1.182 0 0 1 1.2 1.2 1.312 1.312 0 0 1-1.2 1.349 8.317 8.317 0 0 0-8.243 8.243 1.321 1.321 0 0 1-1.348 1.198z"/></svg>