<svg xmlns="http://www.w3.org/2000/svg" viewBox="-3557.535 -13232 59.492 58.98"><defs><style>.a{fill:#ee4034}</style></defs><path class="a" d="M-3542.271-13173.019h-14.303a.948.948 0 0 1-.961-.962 1.034 1.034 0 0 1 .961-.961h3.846v-12.259h-3.124a.948.948 0 0 1-.961-.961v-11.418a4.979 4.979 0 0 1 5.168-5.168h8.052a10.967 10.967 0 0 1 3.365 1.082 24.7 24.7 0 0 0 3.125 1.082 35.1 35.1 0 0 0 5.889-2.284c.6-1.322 2.284-5.048 2.884-5.889a24.541 24.541 0 0 1 3.365-3c.721-.6 1.322-1.082 1.683-1.442a4.767 4.767 0 0 1 3.485-1.562h12.139c.841 0 1.082 0 1.2-.12v-14.188a.8.8 0 0 1 .483-.841 1.317 1.317 0 0 1 .961 0l6.37 2.764a.952.952 0 0 1 .6.961 1.226 1.226 0 0 1-.6.961l-5.769 2.4v1.567h2.524a.948.948 0 0 1 .961.961v6.49c0 3.125-1.8 5.048-4.807 5.048h-4.927v4.086h3.485c3.606 0 5.649 2.163 5.649 6.129v6.971h2.043a.948.948 0 0 1 .961.961 1.034 1.034 0 0 1-.961.961h-14.422v4.925a.948.948 0 0 1-.961.961h-11.418v6.009a.948.948 0 0 1-.961.961h-14.063v4.569c0 .725-.36 1.206-.961 1.206zm-3.364-2.043h2.284v-4.563a.948.948 0 0 1 .961-.961h2.4v-4.933c0-1.683 0-1.8-1.8-1.8h-2.164a1.848 1.848 0 0 0-1.8 1.8v10.457zm-4.928 0h2.883v-10.577a3.873 3.873 0 0 1 3.845-3.846h2.163c3.125 0 3.846 1.442 3.846 3.846v4.928h2.163v-7.214c0-3.365-1.322-4.086-3.606-4.086h-4.204a.948.948 0 0 1-.961-.961v-5.647a1.091 1.091 0 0 1 .361-.841 1.144 1.144 0 0 1 .841-.24 65.229 65.229 0 0 0 6.851 1.322c.721 0 3.846-1.8 6.73-3.606l-.961-1.082c-1.923.841-5.288 2.284-6.37 2.284a15.425 15.425 0 0 1-3.846-1.2 15.4 15.4 0 0 0-2.644-.841h-3.126v7.451a.948.948 0 0 1-.961.961c-.481 0-1.082-.361-1.082-.841v-7.453h-3a3.011 3.011 0 0 0-3.125 3.245v10.335h2.159v-9.013a.948.948 0 0 1 .961-.961 1.034 1.034 0 0 1 .961.961v23.076zm16.946-5.528h5.168v-6.01a.948.948 0 0 1 .961-.961h6.49v-20.793a11.009 11.009 0 0 0-2.4 1.442c-.6.841-3.125 4.447-4.086 5.889-.12.12-.12.24-.24.24-2.043 1.322-7.091 4.447-8.653 4.447a34.836 34.836 0 0 1-6.13-1.082v3.365h3.125c3.846 0 5.649 1.923 5.649 6.009v7.451zm14.662-6.972h2.884v-10.816a3.873 3.873 0 0 1 3.846-3.847h2.163c3.125 0 3.846 1.442 3.846 3.846v4.807h2.644v-6.97c0-2.884-1.082-4.086-3.606-4.086h-4.446a.948.948 0 0 1-.961-.961v-6.13a.948.948 0 0 1 .961-.961h6.009c.721 0 2.764 0 2.764-3v-5.533h-1.562v3.726c0 2.524-1.923 2.524-3.245 2.524h-5.408l-1.923 4.567a.952.952 0 0 1-.961.6 1.226 1.226 0 0 1-.961-.6l-2.164-4.568h-.841a2.61 2.61 0 0 0-2.163.961c-.361.361-1.082.961-1.8 1.562-1.082.841-2.644 2.284-3 2.644-.361.481-1.562 3.125-2.524 5.168l.841 1.082c1.082-1.562 2.764-4.086 3.365-4.807.961-1.082 3.966-2.4 4.567-2.764a.907.907 0 0 1 .961.12 1.217 1.217 0 0 1 .481.841v22.595zm4.928-6.009h5.769v-4.807c0-1.683 0-1.8-1.8-1.8h-2.167a1.848 1.848 0 0 0-1.8 1.8zm-2.645-21.393l.721 1.562.721-1.562zm12.259-14.542v2.4l2.764-1.2zm-43.868 23.917a6.538 6.538 0 1 1 3.365-.961c-.12 0-.12.12-.24.12a6.345 6.345 0 0 1-3.125.841zm0-10.937a4.447 4.447 0 1 0 0 8.894 4.423 4.423 0 0 1-1.322-3 1.06 1.06 0 0 1 1.082-.961.982.982 0 0 1 .961 1.082 2.319 2.319 0 0 0 1.8 2.043 4.613 4.613 0 0 0 1.8-3.606 4.335 4.335 0 0 0-4.321-4.451zm31.369-1.2a7.22 7.22 0 0 1-3.245-.841c-.12 0-.12-.12-.24-.12a6.463 6.463 0 1 1 3.485.961zm.24-5.889a.948.948 0 0 1 .961.961 4.106 4.106 0 0 1-1.322 3 4.515 4.515 0 0 0 4.448-4.444 4.447 4.447 0 0 0-8.894 0 4.613 4.613 0 0 0 1.8 3.606c1.923-.6 1.8-2.043 1.8-2.043.24-.6.6-1.082 1.2-1.082zm-10.937.961a.982.982 0 0 1-1.082-.961.948.948 0 0 1 .961-.961 1.156 1.156 0 0 1 1.082.961.948.948 0 0 1-.961.959zm-3 0a1.06 1.06 0 0 1-1.082-.961 1.034 1.034 0 0 1 .961-.961 1.156 1.156 0 0 1 1.082.961.948.948 0 0 1-.965.959zm-3 0a.982.982 0 0 1-1.082-.961.948.948 0 0 1 .961-.961 1.156 1.156 0 0 1 1.082.961.948.948 0 0 1-.97.959z"/></svg>