<svg xmlns="http://www.w3.org/2000/svg" viewBox="-3267 -13010 41.212 65.632"><defs><style>.a{fill:#ef4135}</style></defs><path class="a" d="M-3246.387-12953.726a3.423 3.423 0 1 0 3.423 3.423 3.43 3.43 0 0 0-3.423-3.423zm0 4.986a1.564 1.564 0 1 1 1.564-1.564 1.57 1.57 0 0 1-1.564 1.564z"/><path class="a" d="M-3226.724-12999.13a.941.941 0 0 0 .936-.936v-6.1a3.835 3.835 0 0 0-3.833-3.834h-33.546a3.835 3.835 0 0 0-3.833 3.833v57.967a3.835 3.835 0 0 0 3.833 3.833h33.546a3.835 3.835 0 0 0 3.833-3.833v-45.956a.936.936 0 1 0-1.872 0v45.956a1.97 1.97 0 0 1-1.961 1.961h-33.546a1.97 1.97 0 0 1-1.961-1.961v-57.967a1.97 1.97 0 0 1 1.961-1.961h33.546a1.97 1.97 0 0 1 1.961 1.961v6.1a.933.933 0 0 0 .936.937z"/><path class="a" d="M-3231.787-13006.334h-29.214a2.131 2.131 0 0 0-2.128 2.128v47.634a2.131 2.131 0 0 0 2.128 2.128h29.214a2.131 2.131 0 0 0 2.128-2.128v-47.621a2.134 2.134 0 0 0-2.128-2.141zm.258 49.775a.271.271 0 0 1-.269.269h-29.2a.271.271 0 0 1-.269-.269v-43.622h29.738zm0-45.494h-29.741v-2.14a.271.271 0 0 1 .269-.269h29.214a.271.271 0 0 1 .269.269v2.141z"/><path class="a" d="M-3238.645-12985.273a10.951 10.951 0 0 0-4.41-2.692v-2.128h1.82a1.039 1.039 0 0 0 .808-1.692l-5.166-6.409a1.06 1.06 0 0 0-.808-.385 1.04 1.04 0 0 0-.808.385l-5.166 6.409a1.039 1.039 0 0 0 .808 1.692h1.82v2.128a10.964 10.964 0 1 0 11.1 2.692zm-11.191-6.692l3.435-4.269 3.435 4.269h-.923a1.042 1.042 0 0 0-1.038 1.038v2.525a.116.116 0 0 1-.064-.013c-.179-.026-.359-.038-.551-.051-.064 0-.115-.013-.179-.013-.09 0-.167-.013-.256-.013h-.846c-.09 0-.179.013-.256.013s-.115.013-.179.013c-.179.013-.372.038-.551.051a.116.116 0 0 0-.064.013v-2.524a1.042 1.042 0 0 0-1.038-1.038zm9.87 20.869a9.091 9.091 0 0 1-12.856-12.857 8.942 8.942 0 0 1 4.2-2.384.047.047 0 0 0 .038-.013l.538-.115a.047.047 0 0 0 .038-.013c.154-.026.295-.051.449-.064.038 0 .077-.013.115-.013.077-.013.154-.013.244-.026s.179-.013.269-.026a.97.97 0 0 0 .192-.013h.692a.97.97 0 0 1 .192.013 1.913 1.913 0 0 1 .273.028c.077.013.154.013.244.026.038 0 .077.013.115.013.154.013.295.038.449.064a.047.047 0 0 1 .038.013l.538.115a.047.047 0 0 1 .038.013 9.081 9.081 0 0 1 4.192 15.241zm4.5 10.307h-13.78a.936.936 0 1 0 0 1.872h13.78a.936.936 0 1 0 0-1.872zm-19.69 0h-1.59a.936.936 0 0 0 0 1.872h1.59a.936.936 0 0 0 0-1.872zm19.69-3.653h-21.279a.936.936 0 1 0 0 1.872h21.279a.941.941 0 0 0 .936-.936.925.925 0 0 0-.936-.936z"/><path class="a" d="M-3245.709-12978.222v-3.256c1.128.077 1.538.59 1.923.59.487 0 .705-.6.705-.91 0-.782-1.538-1.115-2.628-1.154v-.436c0-.192-.244-.372-.487-.372a.424.424 0 0 0-.461.372v.461c-1.525.154-3.038.961-3.038 2.974 0 2.051 1.6 2.628 3.038 3.141v3.769c-1.628-.128-2.064-1.243-2.589-1.243-.4 0-.743.526-.743.91 0 .782 1.346 1.859 3.333 1.884v.5a.424.424 0 0 0 .461.372c.244 0 .487-.179.487-.372v-.538a3.1 3.1 0 0 0 2.91-3.294c-.001-2.181-1.513-2.886-2.911-3.398zm-.846-.308c-.846-.32-1.538-.654-1.538-1.564 0-.833.641-1.231 1.538-1.346zm.743 5.461v-3.384a1.872 1.872 0 0 1 1.41 1.795 1.513 1.513 0 0 1-1.409 1.589z"/></svg>