<svg xmlns="http://www.w3.org/2000/svg" viewBox="-2685 -16811 231 54.703"><defs><style>.cls-1{fill:#ef4135}</style></defs><g id="Group_2560" data-name="Group 2560" transform="translate(-3488 -17833)"><g id="Group_2396" data-name="Group 2396" transform="translate(979.296 1022)"><g id="Group_2395" data-name="Group 2395"><path id="Path_3176" data-name="Path 3176" class="cls-1" d="M208.7 152.762l-15.08-10.316a1.16 1.16 0 0 0-1.82.96v20.631a1.157 1.157 0 0 0 1.82.96l15.08-10.315a1.16 1.16 0 0 0 0-1.92zm-14.569 9.076v-16.232l11.845 8.116z" transform="translate(-170.387 -126.37)"/><path id="Path_3177" data-name="Path 3177" class="cls-1" d="M27.352 0A27.352 27.352 0 1 0 54.7 27.352 27.382 27.382 0 0 0 27.352 0zm0 52.371a25.019 25.019 0 1 1 25.019-25.019 25.043 25.043 0 0 1-25.019 25.019z"/></g></g><g id="Group_2439" data-name="Group 2439" transform="translate(803 1031.12)"><g id="Group_2423" data-name="Group 2423"><g id="Group_2422" data-name="Group 2422"><g id="Group_2421" data-name="Group 2421"><path id="Path_3184" data-name="Path 3184" class="cls-1" d="M57.029 39.154a7.272 7.272 0 0 1-2.719-.544 34.666 34.666 0 0 1-9.787-7.068c-2.9-2.719-7.974-4.35-13.593-4.35s-10.693 1.631-13.593 4.35c-3.987 3.806-7.249 5.981-9.787 7.068-1.269.362-2.719.906-3.987.362a4.368 4.368 0 0 1-2.537-2.537C.3 34.623-.061 31.9.121 28.1a51.477 51.477 0 0 1 1.812-11.6 41.115 41.115 0 0 1 3.625-9.606c4.893-8.88 10.874-7.249 17.036-5.618a41.032 41.032 0 0 0 7.974 1.45h.906a58.924 58.924 0 0 0 8.156-1.45C45.973-.355 51.954-1.8 56.666 6.894a38.172 38.172 0 0 1 3.625 9.606A75.92 75.92 0 0 1 62.1 28.1a22.1 22.1 0 0 1-.906 8.518 3.916 3.916 0 0 1-2.537 2.537zM30.931 25.38c6.162 0 11.78 1.812 14.861 4.893a35.011 35.011 0 0 0 9.243 6.706 5.311 5.311 0 0 0 2.719.362 2.639 2.639 0 0 0 1.45-1.631c.725-1.631.906-4.168.906-7.612a72.97 72.97 0 0 0-1.631-11.237A32.657 32.657 0 0 0 55.035 7.8C50.867.37 46.336 1.457 40.174 3.088a44.24 44.24 0 0 1-8.518 1.631h-1.45a40.651 40.651 0 0 1-8.156-1.631C16.069 1.457 11.176.189 7.008 7.8a28.7 28.7 0 0 0-3.443 9.062A60.032 60.032 0 0 0 1.933 28.1c-.181 4.35.362 6.524.725 7.431a2.639 2.639 0 0 0 1.45 1.631 3.955 3.955 0 0 0 2.718-.362c2.356-.906 5.437-3.081 9.243-6.706 3.081-3.083 8.7-4.714 14.862-4.714z" transform="translate(-.075 .009)"/></g></g></g><g id="Group_2426" data-name="Group 2426" transform="translate(8.564 8.217)"><g id="Group_2425" data-name="Group 2425"><g id="Group_2424" data-name="Group 2424"><path id="Path_3185" data-name="Path 3185" class="cls-1" d="M11.687 18.435a2.1 2.1 0 0 1-1.812-.725 2.327 2.327 0 0 1-.725-1.81v-1.09a.78.78 0 0 0-.725-.725H7.337a2.1 2.1 0 0 1-1.812-.725 2.327 2.327 0 0 1-.725-1.812 2.1 2.1 0 0 1 .725-1.812l.181-.181a1.767 1.767 0 0 1 1.631-.725h1.088a.664.664 0 0 0 .725-.73V7.017A2.1 2.1 0 0 1 9.875 5.2a3 3 0 0 1 3.806 0v.181a2.923 2.923 0 0 1 .544 1.631V8.1a.664.664 0 0 0 .725.725h1.087a2.1 2.1 0 0 1 1.812.725 2.327 2.327 0 0 1 .725 1.812 2.1 2.1 0 0 1-.725 1.812 2.327 2.327 0 0 1-1.812.725h-1.088a.664.664 0 0 0-.725.725v1.087a2.1 2.1 0 0 1-.725 1.812 1.841 1.841 0 0 1-1.812.912zm-4.35-7.793c-.181 0-.544.181-.725.181-.181.181-.181.362-.181.725 0 .181.181.362.181.544.181 0 .362.181.725.181h1.088a2.478 2.478 0 0 1 2.537 2.537v1.09a.666.666 0 0 0 .181.544.876.876 0 0 0 1.269 0c0-.181.181-.362.181-.544v-1.09a2.478 2.478 0 0 1 2.537-2.537h1.087a.666.666 0 0 0 .544-.181.666.666 0 0 0 .181-.544.641.641 0 0 0-.725-.725H15.13a2.478 2.478 0 0 1-2.537-2.537V7.017a.666.666 0 0 0-.181-.544.876.876 0 0 0-1.269 0 .666.666 0 0 0-.181.544V8.1a2.478 2.478 0 0 1-2.537 2.537z" transform="translate(-4.8 -4.525)"/></g></g></g><g id="Group_2429" data-name="Group 2429" transform="translate(42.999 7.085)"><g id="Group_2428" data-name="Group 2428"><g id="Group_2427" data-name="Group 2427"><circle id="Ellipse_708" data-name="Ellipse 708" class="cls-1" cx="2.175" cy="2.175" r="2.175"/></g></g></g><g id="Group_2432" data-name="Group 2432" transform="translate(42.999 14.878)"><g id="Group_2431" data-name="Group 2431"><g id="Group_2430" data-name="Group 2430"><circle id="Ellipse_709" data-name="Ellipse 709" class="cls-1" cx="2.175" cy="2.175" r="2.175"/></g></g></g><g id="Group_2435" data-name="Group 2435" transform="translate(46.805 11.072)"><g id="Group_2434" data-name="Group 2434"><g id="Group_2433" data-name="Group 2433"><circle id="Ellipse_710" data-name="Ellipse 710" class="cls-1" cx="2.175" cy="2.175" r="2.175"/></g></g></g><g id="Group_2438" data-name="Group 2438" transform="translate(39.012 11.072)"><g id="Group_2437" data-name="Group 2437"><g id="Group_2436" data-name="Group 2436"><circle id="Ellipse_711" data-name="Ellipse 711" class="cls-1" cx="2.175" cy="2.175" r="2.175"/></g></g></g></g><g id="Group_2443" data-name="Group 2443" transform="translate(896.492 1026.186)"><path id="Path_3179" data-name="Path 3179" class="cls-1" d="M144.9 31.8a1.311 1.311 0 0 0 .917.386 1.271 1.271 0 0 0 .917-.386l8.279-8.279a1.3 1.3 0 1 0-1.843-1.843l-6.05 6.06V1.3a1.3 1.3 0 0 0-2.605 0v26.43l-6.06-6.06a1.3 1.3 0 0 0-1.843 1.843z" transform="translate(-119.48)"/><g id="Group_2441" data-name="Group 2441" transform="translate(0 21.217)"><path id="Path_3188" data-name="Path 3188" class="cls-1" d="M40.72 32.632H10.365A10.38 10.38 0 0 1 0 22.514V9.434A1.166 1.166 0 0 1 1.234 8.2a1.322 1.322 0 0 1 1.234 1.234v13.08a7.952 7.952 0 0 0 7.9 7.9h30.6a7.952 7.952 0 0 0 7.9-7.9V9.681a1.234 1.234 0 1 1 2.468 0v12.833A10.775 10.775 0 0 1 40.72 32.632z" transform="translate(0 -8.2)"/></g></g></g></svg>