<svg id="Слой_1" xmlns="http://www.w3.org/2000/svg" xmlns:xlink="http://www.w3.org/1999/xlink" viewBox="0 0 37.4 55.9"><style>.st0{clip-path:url(#SVGID_2_);fill:none;stroke:#cf4238;stroke-width:1.69;stroke-linecap:round;stroke-linejoin:round}</style><defs><path id="SVGID_1_" d="M0 0h37.4v55.9H0z"/></defs><clipPath id="SVGID_2_"><use xlink:href="#SVGID_1_" overflow="visible"/></clipPath><path class="st0" d="M6.4 36.7c-.2.1-.4.5-.4.8v3.8h13.7v-3.8c0-.3-.2-.6-.4-.8l-3.5-1.8c-.7.7-1.7 1.2-2.8 1.2-1.1 0-2.2-.5-2.9-1.3l-3.7 1.9zm3.2-6.9c0 1.8 1.5 3.3 3.3 3.3 1.8 0 3.3-1.5 3.3-3.3v-1.3c0-1.8-1.5-3.3-3.3-3.3-1.8 0-3.3 1.5-3.3 3.3v1.3zM1.5 49.7h22.7m-14 2.6h5.3M8.7 15.2h.1m3 0h3.3M.8 18.3h23.1M22 .8c8.1 0 14.6 6.5 14.6 14.6M22 4.5c6.1 0 11 4.9 11 11M22 8.6c3.8 0 6.9 3.1 6.9 6.9M24.7 52c0 1.7-1.4 3-3 3H3.9c-1.7 0-3-1.4-3-3V15.3c0-1.7 1.4-3 3-3h17.7c1.7 0 3 1.4 3 3V52z"/></svg>