<svg xmlns="http://www.w3.org/2000/svg" viewBox="-3555 -15163 45.901 50"><defs><style>.cls-1{fill:#ef4135}</style></defs><g id="Group_2452" data-name="Group 2452" transform="translate(-3554.998 -15163)"><path id="Path_3198" data-name="Path 3198" class="cls-1" d="M43.4 50H12.9a.789.789 0 0 1-.8-.8.86.86 0 0 1 .8-.8h30.5a.789.789 0 0 0 .8-.8V6.9a.789.789 0 0 0-.8-.8.789.789 0 0 1-.8-.8.86.86 0 0 1 .8-.8A2.476 2.476 0 0 1 45.9 7v40.6a2.456 2.456 0 0 1-2.5 2.4zM39 45.6H8.5a.789.789 0 0 1-.8-.8.86.86 0 0 1 .8-.8H39a.789.789 0 0 0 .8-.8V10.3h-5.9a2.476 2.476 0 0 1-2.5-2.5V1.7H8.5a.882.882 0 0 0-.9.8v28.2a.789.789 0 0 1-.8.8.773.773 0 0 1-.8-.7V2.5A2.476 2.476 0 0 1 8.5 0h23.8a.864.864 0 0 1 .6.3l8.5 8.6a1.072 1.072 0 0 1 .2.6v33.6a2.562 2.562 0 0 1-2.6 2.5zM33.1 2.9v4.9a.789.789 0 0 0 .8.8h4.8zm-30 42.5H3a3.212 3.212 0 0 1-2.2-1A3.146 3.146 0 0 1 1 40l7.4-6.9a3.179 3.179 0 0 1 3.8-.4l2.3-2.3A12.422 12.422 0 0 1 24 10a12.3 12.3 0 0 1 0 24.6 11.83 11.83 0 0 1-8.2-3.2l-2.4 2.4a3.087 3.087 0 0 1-.7 3.7l-7.4 6.9a2.836 2.836 0 0 1-2.2 1zM4.7 44zm5.8-10.1a1.284 1.284 0 0 0-1 .4l-7.4 6.9a1.422 1.422 0 0 0-.1 2 1.905 1.905 0 0 0 1 .5 1.159 1.159 0 0 0 1-.4l7.4-6.9a1.422 1.422 0 0 0 .1-2 1.231 1.231 0 0 0-1-.5zM24 11.7a10.65 10.65 0 1 0 10.7 10.6A10.823 10.823 0 0 0 24 11.7zm4.3 16.8h-8.7a.789.789 0 0 1-.8-.8.86.86 0 0 1 .8-.8h8.7a.789.789 0 0 1 .8.8.86.86 0 0 1-.8.8zm3.7-4.1H15.8a.789.789 0 0 1-.8-.8.86.86 0 0 1 .8-.8H32a.8.8 0 1 1 0 1.6zm-2.8-4.2H18.6a.789.789 0 0 1-.8-.8.86.86 0 0 1 .8-.8h10.5a.789.789 0 0 1 .8.8.773.773 0 0 1-.7.8zm.4-3.4a1.421 1.421 0 0 1-.6-.2 7.3 7.3 0 0 0-3-1.6.8.8 0 0 1-.6-1 .887.887 0 0 1 1-.6 10.232 10.232 0 0 1 3.7 2 .91.91 0 0 1 .1 1.2 1.072 1.072 0 0 1-.6.2z"/></g></svg>