<svg xmlns="http://www.w3.org/2000/svg" viewBox="-3267 -15861 70.163 83.719"><defs><style>.a{fill:#fff;}</style></defs><g transform="translate(-3267 -15861)"><path class="a" d="M68.6,83.718H1.329a1.508,1.508,0,0,1-1.163-.5A2.827,2.827,0,0,1,0,82.057C.332,80.895,2.658,70.6,3.82,67.938c1.163-2.492,5.149-3.987,11.794-6.146,1.329-.5,2.658-.831,3.987-1.329h0c.166,0,.332-.166.5-.166-5.648-1.163-12.624-2.99-13.289-5.814-.831-3.322-.664-14.285.166-23.92C8.139,15.448,19.1,0,35.049,0c15.78,0,26.743,15.448,28.238,30.4,1.329,12.79,1.163,21.262.831,22.757-.166.831-.332,1.661-8.305,4.319a68.764,68.764,0,0,1-7.143,2.159,9.669,9.669,0,0,0,1.827.831,37.38,37.38,0,0,0,3.987,1.329c6.478,2.159,10.631,3.654,11.794,6.146C67.44,70.6,69.765,80.895,70.1,82.057a1.027,1.027,0,0,1-.332,1.163A1.794,1.794,0,0,1,68.6,83.718ZM55.148,80.895H66.775c-.831-3.82-2.492-10.133-3.322-11.794v-.166c-1.827,1.827-7.143,6.81-8.471,7.973C54.649,77.406,54.816,79.4,55.148,80.895Zm-37.54,0H52.324c-.332-1.661-.664-4.485.664-5.98,1.163-1.163,5.98-5.648,8.139-7.641a67.292,67.292,0,0,0-7.641-2.824,32.311,32.311,0,0,1-3.654-1.329c-3.987,5.648-13.787,10.8-14.285,10.963a2.107,2.107,0,0,1-1,.166c-6.312-1.495-12.79-8.638-14.95-10.963-1,.332-2.159.664-3.156,1A57.2,57.2,0,0,0,8.8,67.108c2.159,1.993,6.81,6.478,8.139,7.641C18.438,76.576,18.106,79.233,17.607,80.895Zm-14.451,0H14.784c.5-1.661.664-3.488.166-3.987-1.163-1.163-6.478-6.312-8.472-7.973V69.1C5.648,70.762,3.987,77.24,3.156,80.895Zm19.269-18.6c2.326,2.492,7.475,7.807,12.292,9.3,1.993-1,9.3-5.149,12.458-9.468a7.467,7.467,0,0,1-3.82-5.648L40.2,58.636a8.782,8.782,0,0,1-8.8.166l-4.817-2.99A7.557,7.557,0,0,1,22.425,62.29ZM35.049,2.824c-11.3,0-23.92,10.465-25.415,27.74C8.8,40.53,8.8,51,9.468,53.653c.5,1.163,6.81,2.99,13.621,4.153a4.05,4.05,0,0,0,.5-3.156c0-.166-.166-.5,0-.664L21.1,52.49a11.2,11.2,0,0,1-4.817-7.641v-.166H14.119a3.759,3.759,0,0,1-3.82-3.82V33.554a3.759,3.759,0,0,1,3.82-3.82h1.495c.166-.166.332-.5.5-.664A5.791,5.791,0,0,1,20.1,27.076c.166,0,16.279-.831,25.913-6.478a1.336,1.336,0,0,1,1.827.5c1,1.495,4.153,5.648,6.644,6.977a1.221,1.221,0,0,1,.664,1.329v.332h.664a3.759,3.759,0,0,1,3.82,3.82v7.309a3.91,3.91,0,0,1-3.156,3.82h0C56.477,49,53.819,51,51.327,51H50.5A10.747,10.747,0,0,1,49,52.324l-2.99,1.993v.332a4.462,4.462,0,0,0,.166,2.492c3.488-.664,13.123-3.82,14.95-4.983.166-1.993.332-9.468-.831-21.594C59.134,16.943,49.334,2.824,35.049,2.824Zm-17.275,29.9L19.1,44.517A8.17,8.17,0,0,0,22.591,50l10.133,6.146a6.033,6.033,0,0,0,5.814-.166l7.143-4.817c-1.661.166-3.488.332-4.651.332a4.049,4.049,0,0,1-3.488,1.993H35.049a4.153,4.153,0,1,1,0-8.305H37.54A4.1,4.1,0,0,1,41.527,48.5c1.993-.166,5.648-.5,7.973-.664a9.305,9.305,0,0,0,1.661-3.987L52.49,29.4C50,27.74,47.673,24.75,46.344,23.089,36.212,28.571,20.93,29.235,20.265,29.4a2.368,2.368,0,0,0-1.993,1,7.322,7.322,0,0,0-.5,2.326ZM35.049,48.5a1.329,1.329,0,0,0,0,2.658H37.54A1.681,1.681,0,0,0,38.7,50.5a.61.61,0,0,1,.166-.5v-.166A1.31,1.31,0,0,0,37.54,48.5Zm18.936-3.82a10.083,10.083,0,0,1-.831,2.99,4.277,4.277,0,0,0,.831-2.99Zm.166-2.824h1.827a.957.957,0,0,0,1-1V33.554a.957.957,0,0,0-1-1h-1ZM14.119,32.391a.957.957,0,0,0-1,1V40.7a.957.957,0,0,0,1,1h1.827l-1-8.8h0v-.664h-.831Z"/></g></svg>