<svg xmlns="http://www.w3.org/2000/svg" viewBox="-2978 -15854 97 69.089"><defs><style>.a{fill:#fff;}</style></defs><g transform="translate(-2978 -15854)"><path class="a" d="M87.352,69.089H9.648A9.632,9.632,0,0,1,0,59.441V58.062a2.281,2.281,0,0,1,2.24-2.24h.689a.741.741,0,0,0,.689-.689V4.824A4.816,4.816,0,0,1,8.442,0H88.385a4.782,4.782,0,0,1,4.652,4.824V55.133a.741.741,0,0,0,.689.689H94.76A2.281,2.281,0,0,1,97,58.062v1.378A9.632,9.632,0,0,1,87.352,69.089ZM2.929,59.441h0A6.728,6.728,0,0,0,9.648,66.16h77.7a6.728,6.728,0,0,0,6.719-6.719h0a.741.741,0,0,0-.689-.689H59.1c-.345,0-.689.172-.689.517a4.439,4.439,0,0,1-4.307,3.79H43.073a4.439,4.439,0,0,1-4.307-3.79c0-.345-.345-.517-.689-.517H3.618A.741.741,0,0,0,2.929,59.441Zm4.307-3.618H39.282a2.281,2.281,0,0,1,2.24,2.24h0a2.281,2.281,0,0,0,2.24,2.24H53.41a2.281,2.281,0,0,0,2.24-2.24h0a2.281,2.281,0,0,1,2.24-2.24h31.7a.741.741,0,0,0,.689-.689V4.824a1.912,1.912,0,0,0-1.9-1.9H8.442a1.912,1.912,0,0,0-1.9,1.9V55.133A.741.741,0,0,0,7.236,55.822Z"/><path class="a" d="M62.878,39.8a15.851,15.851,0,1,0,0-31.7h-.172A16.057,16.057,0,0,0,50.99,13.269l-7.925,8.615-7.925-8.615A15.774,15.774,0,0,0,23.423,8.1h-.172a15.851,15.851,0,0,0,0,31.7h.172a16.057,16.057,0,0,0,11.716-5.169l7.925-8.615,7.925,8.615A15.774,15.774,0,0,0,62.706,39.8ZM33.416,32.738A13.3,13.3,0,0,1,23.6,37.045h-.172a13.094,13.094,0,0,1,0-26.188H23.6a12.932,12.932,0,0,1,9.648,4.307l8.1,8.787Zm19.469,0-8.1-8.787,8.1-8.787a12.932,12.932,0,0,1,9.648-4.307h.172a13.094,13.094,0,1,1,0,26.188h-.172A13.5,13.5,0,0,1,52.885,32.738Z" transform="translate(5.35 5.856)"/></g></svg>