<svg xmlns="http://www.w3.org/2000/svg" viewBox="-2688 -15852 80 66.069"><defs><style>.a{fill:#fff;}</style></defs><g transform="translate(-2688 -15852)"><path class="a" d="M8.195,66.069H1.366A1.347,1.347,0,0,1,0,64.7V43.534a1.347,1.347,0,0,1,1.366-1.366H8.024A1.347,1.347,0,0,1,9.39,43.534v2.39h4.951a1.347,1.347,0,0,1,1.366,1.366v4.951H28a3.789,3.789,0,0,0,3.756-3.756v-7H26.462A1.347,1.347,0,0,1,25.1,40.12V35.169H15.877A1.347,1.347,0,0,1,14.511,33.8V1.366C14.341.683,15.024,0,15.877,0H78.532A1.741,1.741,0,0,1,79.9.854a1.305,1.305,0,0,1-.341,1.536l-7.512,8.024h3.927a1.347,1.347,0,0,1,1.366,1.366v16.9a1.347,1.347,0,0,1-1.366,1.366H68.63v3.414a1.347,1.347,0,0,1-1.366,1.366H41.485v4.951a1.347,1.347,0,0,1-1.366,1.366H34.827v7A6.666,6.666,0,0,1,28.169,54.8H15.877v5.634A1.347,1.347,0,0,1,14.511,61.8H9.56v2.39C9.56,65.387,8.878,66.069,8.195,66.069ZM2.9,63.167H6.658V44.9H2.9ZM9.56,59.411h3.414V48.826H9.56ZM28,38.583H38.583V35H36.705v.854a1.347,1.347,0,0,1-1.366,1.366,1.469,1.469,0,0,1-1.366-1.366V35H32.266v.854A1.347,1.347,0,0,1,30.9,37.217a1.469,1.469,0,0,1-1.366-1.366V35h-1.2v3.585ZM17.243,32.1H65.728V17.243l-4.78,5.122a1.476,1.476,0,0,1-1.024.512H17.243V32.1Zm51.387-4.78h5.975V26.291a1.5,1.5,0,0,1-1.2-1.536,1.218,1.218,0,0,1,1.2-1.366V21.511a1.449,1.449,0,0,1-1.2-1.366,1.319,1.319,0,0,1,1.2-1.366V16.9a1.378,1.378,0,0,1,0-2.732v-.854H69.484L68.8,14h1.707a1.347,1.347,0,0,1,1.366,1.366,1.469,1.469,0,0,1-1.366,1.366H68.8v1.707h1.707A1.347,1.347,0,0,1,71.874,19.8a1.469,1.469,0,0,1-1.366,1.366H68.8v1.707h1.707a1.347,1.347,0,0,1,1.366,1.366,1.469,1.469,0,0,1-1.366,1.366H68.8v1.707ZM17.243,19.974h42L75.118,2.9H17.072V19.974Z"/></g></svg>