<svg xmlns="http://www.w3.org/2000/svg" viewBox="-3256 -16809 220 52.219">
  <defs>
    <style>
      .cls-1 {
        fill: #ef4135;
      }
    </style>
  </defs>
  <g id="Group_2561" data-name="Group 2561" transform="translate(-3428 -17848)">
    <g id="Group_2559" data-name="Group 2559" transform="translate(172 1039)">
      <g id="Group_2391" data-name="Group 2391" transform="translate(171.158 1.369)">
        <g id="Group_2390" data-name="Group 2390" transform="translate(0 0)">
          <g id="Group_2389" data-name="Group 2389" transform="translate(0 0)">
            <path id="Path_3170" data-name="Path 3170" class="cls-1" d="M350.349,38.08l.919,1.093.416-1.431c1.006-2.853,1.257-3.859.754-5.039a5.78,5.78,0,0,0-2.6-2.689c-1.847-.919-3.269-.754-6.964.754l-1.673.764,1.683.841C346.906,34.308,347.409,34.647,350.349,38.08Zm-1.093-6.461a3.931,3.931,0,0,1,1.847,1.847c.164.5.164.841-.338,2.437a14.748,14.748,0,0,0-5.368-4.2C347.574,30.952,348.251,31.2,349.257,31.62Z" transform="translate(-308.2 -26.611)"/>
            <path id="Path_3171" data-name="Path 3171" class="cls-1" d="M192.946,140.049a9.79,9.79,0,0,0-3.018-6.635,9.439,9.439,0,0,0-6.8-2.515,9.625,9.625,0,0,0-6.8,2.515,10.308,10.308,0,0,0-3.443,6.635l-.087.919h20.311Zm-18.3-.754a8.994,8.994,0,0,1,2.766-4.613,7.879,7.879,0,0,1,5.706-2.1,7.7,7.7,0,0,1,5.706,2.1,7.54,7.54,0,0,1,2.437,4.613Z" transform="translate(-156.087 -118.251)"/>
            <path id="Path_3172" data-name="Path 3172" class="cls-1" d="M35.428,31.314l-.251.416a9.771,9.771,0,0,1-3.192,3.443,9.124,9.124,0,0,1-4.536,1.17A8.286,8.286,0,0,1,23,35.173,9.218,9.218,0,0,1,19.808,31.9a9.97,9.97,0,0,1-1.257-3.192H48.6l.087-.754v-2.6c0-3.859-.164-7.641-1.934-11,2.012-5.542,1.683-9.739-1.006-12.506C44.326.509,41.975-.081,38.706.171A29.941,29.941,0,0,0,28.551,2.86a7.853,7.853,0,0,0-1.431-.087c-5.039,0-8.734,1.6-13.937,4.787A24.173,24.173,0,0,0,2.524,20.066l1.344.919a76.146,76.146,0,0,1,7.969-6.045,35.551,35.551,0,0,0-5.706,7.389l-.251.416a45.9,45.9,0,0,0-4.536,9.488A26.071,26.071,0,0,0,0,40.125Q0,43.9,1.76,45.667a8.416,8.416,0,0,0,6.209,2.35,23.609,23.609,0,0,0,9.4-2.515,22.943,22.943,0,0,0,9.817,2.186,22.153,22.153,0,0,0,13.1-4.2,22.592,22.592,0,0,0,8.144-11.074l.416-1.093-13.415-.01Zm3.782,10.736A20.04,20.04,0,0,1,27.12,46a21.511,21.511,0,0,1-9.488-2.186l-.339-.251-.339.164c-6.548,3.192-11.161,3.443-13.937.667-.919-.754-1.344-2.263-1.344-4.285a23.686,23.686,0,0,1,1.344-7.467A41.9,41.9,0,0,1,7.38,23.576l.251-.416A40.03,40.03,0,0,1,14.595,14.6L15.6,13.6a21.458,21.458,0,0,1,1.76-1.847l-.919-1.431A54.087,54.087,0,0,0,5.784,17.2a23.35,23.35,0,0,1,8.308-8.221c4.884-2.931,8.414-4.526,13.028-4.526a8.777,8.777,0,0,1,1.509.087h.251l.251-.087a28.077,28.077,0,0,1,9.739-2.689c2.766-.164,4.7.251,5.706,1.257,2.263,2.263,2.437,6.045.5,11.074l-.164.339.164.339c1.76,3.1,1.934,6.635,1.934,10.571V27.02H16.8v.841a11.385,11.385,0,0,0,1.509,4.865,10.343,10.343,0,0,0,3.782,3.859,10.759,10.759,0,0,0,5.368,1.431,10.634,10.634,0,0,0,5.368-1.431,11.461,11.461,0,0,0,3.521-3.695h9.991A20.7,20.7,0,0,1,39.209,42.049Z" transform="translate(0 -0.114)"/>
            <path id="Path_3173" data-name="Path 3173" class="cls-1" d="M35.3,314.947l-.667-1.847-.841,1.683c-2.689,5.368-4.2,8.811-1.431,11.5a4.391,4.391,0,0,0,3.356,1.431c1.76,0,3.946-.754,6.8-2.012l1.431-.667-1.344-.841C38.314,321.582,36.969,319.561,35.3,314.947Zm-1.76,10.068c-1.509-1.431-1.344-3.192.919-7.805a14.225,14.225,0,0,0,5.958,7.389C36.466,326.283,34.88,326.36,33.536,325.016Z" transform="translate(-27.897 -282.829)"/>
          </g>
        </g>
      </g>
      <g id="Group_2394" data-name="Group 2394">
        <g id="Group_2393" data-name="Group 2393">
          <g id="Group_2392" data-name="Group 2392">
            <path id="Path_3174" data-name="Path 3174" class="cls-1" d="M50.647,30.637a25.154,25.154,0,0,0,.439-4.437,24.845,24.845,0,0,0-24.8-24.8,25.155,25.155,0,0,0-4.437.439A14.454,14.454,0,0,0,14.707,0,14.74,14.74,0,0,0,1.826,21.846a25.155,25.155,0,0,0-.439,4.437,24.845,24.845,0,0,0,24.8,24.8,25.155,25.155,0,0,0,4.437-.439,14.73,14.73,0,0,0,7.139,1.571A14.305,14.305,0,0,0,52.218,37.766,14.573,14.573,0,0,0,50.647,30.637ZM37.766,50.474A13.151,13.151,0,0,1,31.239,49l-.265-.173-.347.092a25.154,25.154,0,0,1-4.437.439,23.1,23.1,0,0,1-23.06-23.06,25.155,25.155,0,0,1,.439-4.436l.092-.347-.173-.265a13.31,13.31,0,0,1-1.744-6.527A13,13,0,0,1,14.707,1.754,13.31,13.31,0,0,1,21.234,3.5l.265.173.347-.092a25.155,25.155,0,0,1,4.437-.439A23.1,23.1,0,0,1,49.342,26.2a25.155,25.155,0,0,1-.439,4.437l-.092.347.173.265a13.151,13.151,0,0,1,1.479,6.527A12.539,12.539,0,0,1,37.766,50.474Z"/>
            <path id="Path_3175" data-name="Path 3175" class="cls-1" d="M129.073,101.671c-6.527-1.305-7.486-2.958-7.568-3.4A1.476,1.476,0,0,1,122.2,96.8a8.426,8.426,0,0,1,6.18-1.305,3.986,3.986,0,0,1,2.7,1.652c1.479,2.876,3.049,5.13,6.262,4.355a3.586,3.586,0,0,0,2.346-2,5.74,5.74,0,0,0-.173-4.783c-.867-1.652-4.61-5.915-11.922-5.915-6.966,0-14.972,2.519-14.972,9.658,0,5.66,4.957,9.658,13.575,10.882,4.355.612,5.742,2,6.18,2.784a1.964,1.964,0,0,1,.092,1.571c-.694,1.652-3.049,3.223-6.7,2.876-4.182-.439-5.569-4.182-5.834-4.957-.694-2.172-3.049-2.519-4.263-2.438A4.4,4.4,0,0,0,112.8,111a4.992,4.992,0,0,0-.265,4.528c.959,2.958,4.182,7.833,14.88,7.833,8.965,0,14.36-5.66,14.452-10.882C141.862,106.719,137.946,103.415,129.073,101.671Zm-1.744,19.939c-7.139,0-11.841-2.346-13.228-6.619a3.275,3.275,0,0,1,.092-3.049,2.548,2.548,0,0,1,1.652-1.04h.265c.52,0,1.826.092,2,1.132.347.959,2.091,5.66,7.313,6.18,4.61.439,7.568-1.744,8.526-4.008a3.589,3.589,0,0,0-.173-3.131c-.694-1.305-2.611-2.958-7.394-3.651-4.528-.694-12.1-2.7-12.1-9.138,0-5.834,7.139-7.925,13.228-7.925,6.436,0,9.658,3.57,10.352,4.957a4.366,4.366,0,0,1,.092,3.3,1.6,1.6,0,0,1-1.214,1.04c-1.571.347-2.519,0-4.355-3.478a5.338,5.338,0,0,0-3.916-2.519c-2.7-.439-6.007.265-7.659,1.744a3.311,3.311,0,0,0-1.214,3.223c.612,2.091,3.478,3.57,8.965,4.61,10.005,2,11.4,5.66,11.4,9.046C139.955,116.816,135.253,121.61,127.329,121.61Z" transform="translate(-100.7 -79.743)"/>
          </g>
        </g>
      </g>
      <g id="Group_2406" data-name="Group 2406" transform="translate(85.579 5.478)">
        <g id="Group_2405" data-name="Group 2405" transform="translate(9.533 18.798)">
          <path id="Path_3180" data-name="Path 3180" class="cls-1" d="M29.986,21.964a.655.655,0,0,1-.535-.178L19.117,12.165a.882.882,0,1,1,1.247-1.247L30.7,20.539a.861.861,0,0,1,0,1.247A1.071,1.071,0,0,1,29.986,21.964Z" transform="translate(5.204 -10.472)"/>
          <path id="Path_3181" data-name="Path 3181" class="cls-1" d="M6.33,22.043a1.351,1.351,0,0,1-.713-.356.861.861,0,0,1,0-1.247l10.334-9.622A.882.882,0,0,1,17.2,12.065L6.865,21.686C6.686,22.043,6.508,22.043,6.33,22.043Z" transform="translate(-5.35 -10.55)"/>
        </g>
        <path id="Path_3182" data-name="Path 3182" class="cls-1" d="M50.781,39.2H4.455A4.411,4.411,0,0,1,0,34.745V4.455A4.411,4.411,0,0,1,4.455,0H50.781a4.411,4.411,0,0,1,4.455,4.455V34.745A4.411,4.411,0,0,1,50.781,39.2ZM4.455,1.782A2.74,2.74,0,0,0,1.782,4.455V34.745a2.624,2.624,0,0,0,2.673,2.673H50.781a2.74,2.74,0,0,0,2.673-2.673V4.455a2.74,2.74,0,0,0-2.673-2.673Z" transform="translate(0 0)"/>
        <path id="Path_3183" data-name="Path 3183" class="cls-1" d="M27.11,23.468A4.294,4.294,0,0,1,23.9,22.221L.917,2.443a.861.861,0,0,1,0-1.247.861.861,0,0,1,1.247,0L24.972,21.152a3.25,3.25,0,0,0,4.276,0L52.055,1.017a.861.861,0,0,1,1.247,0,.861.861,0,0,1,0,1.247L30.317,22.4A4.975,4.975,0,0,1,27.11,23.468Z" transform="translate(0.508 0.586)"/>
      </g>
    </g>
  </g>
</svg>
