<?xml version="1.0" encoding="utf-8"?>
<!-- Generator: Adobe Illustrator 19.0.0, SVG Export Plug-In . SVG Version: 6.00 Build 0)  -->
<svg version="1.1" id="Layer_1" xmlns="http://www.w3.org/2000/svg" xmlns:xlink="http://www.w3.org/1999/xlink" x="0px" y="0px"
	 viewBox="0 0 319.3 147.2" style="enable-background:new 0 0 319.3 147.2;" xml:space="preserve">
<style type="text/css">
	.st0{fill:#EF4236;}
	.st1{fill:#FFFFFF;}
</style>
<g>
	<rect class="st0" width="154.9" height="147.2"/>
	<path class="st1" d="M72.8,75.3v-9.4h-9.4v-9.4h9.4V32.8h-9.4v-9.4H54V14H35.1v9.4h-9.4v9.4h-9.5v23.6h9.5v9.4h-9.5v9.4h23.6v-9.4
		h9.4v9.4H72.8z M63.4,51.7H54v-9.4h9.4V51.7z M35.1,51.7h-9.4v-9.4h9.4V51.7z M139.2,75.3v-9.4h-9.4v-9.4h9.4V23.4h-9.4V14h-9.4
		v9.4h-18.9V14h-9.4v9.4h-9.5v33.1h9.5v9.4h-9.5v9.4h23.6V56.4h9.4v18.9H139.2z M129.8,42.2h-9.4v-9.4h9.4V42.2z M101.5,42.2h-9.4
		v-9.4h9.4V42.2z"/>
	<path class="st1" d="M27.8,90v11.4h2v6.3h-2.7v-3.9h-11V90h2.8v11.4H25V90H27.8z"/>
	<path class="st1" d="M41.7,103.9v-10l-7,10h-2.9V90h2.8v10l7-10h2.9v13.9H41.7z"/>
	<path class="st1" d="M56.1,90h0.4c1.5,0,3.4,0.4,4.7,2c1.3,1.6,1.5,3.8,1.5,5c0,1.2-0.1,3.4-1.5,5c-1.3,1.6-3.2,2-4.7,2h-0.4v4.6
		h-2.8v-4.6h-0.4c-1.5,0-3.4-0.4-4.7-2c-1.3-1.6-1.5-3.8-1.5-5c0-1.2,0.1-3.3,1.5-5c1.3-1.6,3.2-2,4.7-2h0.4v-4.6h2.8V90z
		 M52.9,92.2c-0.8,0-1.8,0.2-2.6,1.2c-0.7,1-0.9,2.5-0.9,3.5c0,1.1,0.1,2.5,0.9,3.5c0.7,1,1.8,1.2,2.6,1.2h0.4v-9.5H52.9z
		 M56.1,101.7h0.4c0.8,0,1.8-0.2,2.6-1.2c0.7-1,0.9-2.5,0.9-3.5c0-1-0.1-2.5-0.9-3.5c-0.7-1-1.8-1.2-2.6-1.2h-0.4V101.7z"/>
	<path class="st1" d="M67.7,91.6c0.6-0.7,1.2-1.2,1.9-1.4c0.7-0.3,1.4-0.4,2.3-0.4c1.4,0,3,0.3,4.3,1.6c1.5,1.5,1.8,3.6,1.8,5.6
		c0,2.2-0.4,3.9-1.6,5.3c-0.9,1.1-2.3,1.9-4.5,1.9c-0.7,0-1.5-0.1-2.3-0.4c-0.9-0.4-1.4-0.9-1.8-1.4v6.2h-2.8V90h2.6V91.6z
		 M74.3,93.5c-0.5-0.7-1.4-1.3-2.8-1.3c-1.5,0-2.3,0.7-2.9,1.5c-0.7,1-0.8,2.5-0.8,3.3c0,0.8,0.1,2.1,0.8,3.2
		c0.5,0.8,1.4,1.6,2.9,1.6c1.7,0,2.5-1,3-1.7c0.5-0.8,0.7-2,0.7-3.1C75.2,94.8,74.5,93.8,74.3,93.5z"/>
	<path class="st1" d="M92,92c0.9,1.1,1.6,2.7,1.6,5c0,2.3-0.7,3.9-1.6,5c-1,1.2-2.7,2.2-5.1,2.2c-2.4,0-4.1-1-5.1-2.2
		c-0.9-1.1-1.6-2.7-1.6-5c0-2.3,0.7-3.9,1.6-5c1-1.2,2.7-2.2,5.1-2.2C89.3,89.8,91,90.7,92,92z M83.9,93.8C83.1,94.8,83,96,83,97
		c0,0.9,0.1,2.1,0.9,3.2c0.5,0.7,1.4,1.5,3,1.5c1.6,0,2.5-0.9,3-1.5c0.7-1,0.9-2.3,0.9-3.2c0-0.9-0.1-2.1-0.9-3.2
		c-0.5-0.7-1.4-1.5-3-1.5C85.3,92.2,84.4,93.1,83.9,93.8z"/>
	<path class="st1" d="M102.9,90c1,0,2.7,0.1,3.9,1.1c0.5,0.4,1.1,1.3,1.1,2.6c0,0.7-0.2,1.4-0.6,1.9c-0.4,0.4-1,0.8-1.6,1
		c0.8,0.1,1.4,0.6,1.9,1c0.5,0.5,0.8,1.4,0.8,2.3c0,1.2-0.5,2.2-1.3,2.9c-1.3,1.1-3.1,1.1-4,1.1h-6.7V90H102.9z M102.4,95.5
		c0.6,0,1.5,0.1,2.1-0.4c0.3-0.2,0.5-0.6,0.5-1.1c0-0.5-0.2-0.9-0.5-1.2c-0.5-0.4-1.5-0.4-1.9-0.4h-3.4v3.1H102.4z M103,101.5
		c0.6,0,1.4-0.1,2-0.6c0.3-0.3,0.5-0.7,0.5-1.3c0-0.8-0.4-1.3-0.8-1.5c-0.5-0.3-1.2-0.4-1.8-0.4h-3.7v3.8H103z"/>
	<path class="st1" d="M122.4,92c0.9,1.1,1.6,2.7,1.6,5c0,2.3-0.7,3.9-1.6,5c-1.1,1.2-2.7,2.2-5.1,2.2c-2.4,0-4.1-1-5.1-2.2
		c-0.9-1.1-1.6-2.7-1.6-5c0-2.3,0.7-3.9,1.6-5c1-1.2,2.7-2.2,5.1-2.2C119.7,89.8,121.3,90.7,122.4,92z M114.2,93.8
		c-0.7,1-0.9,2.3-0.9,3.2c0,0.9,0.1,2.1,0.9,3.2c0.5,0.7,1.4,1.5,3,1.5c1.6,0,2.5-0.9,3-1.5c0.7-1,0.9-2.3,0.9-3.2
		c0-0.9-0.1-2.1-0.9-3.2c-0.5-0.7-1.4-1.5-3-1.5C115.6,92.2,114.7,93.1,114.2,93.8z"/>
	<path class="st1" d="M136.4,103.9v-10l-7,10h-2.9V90h2.8v10l7-10h2.9v13.9H136.4z M137.1,84.2c0,0.8-0.3,1.7-0.9,2.3
		c-0.9,0.9-2.3,1-3.3,1c-1,0-2.4-0.1-3.3-1c-0.6-0.6-0.9-1.5-0.9-2.3v-0.3h2.5v0.3c0,0.2,0,0.5,0.3,0.8c0.4,0.3,0.9,0.4,1.4,0.4
		c0.5,0,1-0.1,1.4-0.4c0.3-0.3,0.3-0.7,0.3-0.8v-0.3h2.5V84.2z"/>
	<path class="st1" d="M28.7,118.7v11.5h2v6.3h-2.6v-3.9H18v3.9h-2.6v-6.3h1.3c0.9-0.7,1.4-1.6,1.7-2.3c0.4-1.2,0.5-2.5,0.5-3.6v-5.6
		H28.7z M21.5,124.7c0,0.8-0.1,2-0.3,2.9c-0.4,1.6-1.1,2.3-1.4,2.6h6.1v-9h-4.4V124.7z"/>
	<path class="st1" d="M42.5,132.5v-10l-7,10h-2.9v-13.9h2.8v10l7-10h2.9v13.9H42.5z"/>
	<path class="st1" d="M56.6,132.5v-1.3c-1.5,1.4-3.1,1.6-4,1.6c-1.7,0-2.9-0.5-3.6-1.2c-0.7-0.6-1.4-1.6-1.4-3.1
		c0-1.2,0.5-2.9,2.2-3.8c0.6-0.3,1.9-0.9,4.7-0.9h2.1v-0.5c0-0.6,0-1.7-0.7-2.2c-0.4-0.3-1-0.5-2-0.5c-1.4,0-2,0.3-2.2,0.4
		c-0.5,0.3-0.7,0.8-0.7,1.2h-2.8c0.1-1.6,1-2.5,1.8-3c0.6-0.4,1.7-0.7,4-0.7c1.1,0,2.9,0.1,4,1.1c1.2,1.1,1.4,3,1.4,4.4v8.6H56.6z
		 M56.6,126h-1.8c-1,0-1.8,0-2.7,0.2c-0.9,0.3-1.6,0.9-1.6,2.2c0,0.7,0.2,1.2,0.6,1.5c0.4,0.4,1,0.7,1.8,0.7c1.1,0,2.3-0.5,3-1.4
		c0.4-0.5,0.8-1.4,0.8-2.8V126z"/>
	<path class="st1" d="M73.4,118.7v13.9h-2.8v-11.4H66v4.5c0,3.2-0.4,4.5-0.8,5.2c-0.6,1.1-1.6,1.8-3.1,1.8h-1.2v-2.4h0.4
		c0.7,0,1.2-0.4,1.5-0.7c0.4-0.6,0.6-1.7,0.6-4.8v-5.9H73.4z"/>
	<path class="st1" d="M87.9,120.6c0.9,1.1,1.6,2.7,1.6,5c0,2.3-0.7,3.9-1.6,5c-1,1.2-2.7,2.2-5.1,2.2c-2.4,0-4.1-1-5.1-2.2
		c-0.9-1.1-1.6-2.7-1.6-5c0-2.3,0.7-3.9,1.6-5c1-1.2,2.7-2.2,5.1-2.2C85.2,118.4,86.8,119.4,87.9,120.6z M79.7,122.4
		c-0.7,1-0.9,2.3-0.9,3.2c0,0.9,0.1,2.1,0.9,3.2c0.5,0.7,1.4,1.5,3,1.5c1.6,0,2.5-0.9,3-1.5c0.7-1.1,0.9-2.3,0.9-3.2
		c0-0.9-0.1-2.2-0.9-3.2c-0.5-0.7-1.4-1.5-3-1.5C81.1,120.9,80.2,121.7,79.7,122.4z"/>
	<path class="st1" d="M101.3,121.1h-6.5v11.4H92v-13.9h9.3V121.1z"/>
	<path class="st1" d="M101.4,132.5V129h4v3.5H101.4z"/>
	<rect x="164.4" class="st0" width="154.9" height="147.2"/>
	<path class="st1" d="M193.2,115.6c-0.6,0.2-1.1,0.3-1.7,0.4c-0.9,0.1-1.5,0.1-2.3,0.1l-1.3,0.1c-0.7,0-1.8,0.1-2.8,0.7
		c-0.7,0.4-1.1,1-1.3,1.7c-0.2,0.7-0.3,1.7-0.3,2.4c0.4-0.6,1-1.2,1.7-1.6c0.7-0.4,1.8-0.7,2.7-0.7c2.5,0,4,1,4.9,2.2
		c1.1,1.3,1.6,2.8,1.6,4.8c0,2.3-0.7,3.9-1.6,5c-1,1.2-2.7,2.2-5.1,2.2c-2.8,0-4.4-1.3-5.1-2.2c-1.4-1.7-1.6-3.9-1.6-6.3
		c0-3.5,0.3-5.2,0.6-6.2c0.6-2,1.8-3.2,2.8-3.7c1-0.6,2.6-0.8,3.9-0.9l1.4-0.1c0.5,0,1.5-0.1,2-0.2c0.5-0.1,1.2-0.2,1.8-0.4V115.6z
		 M190.5,122.6c-0.7-1-1.8-1.5-3-1.5c-1.2,0-2.3,0.4-3,1.5c-0.6,0.9-0.9,1.9-0.9,3.1c0,1.4,0.4,2.4,0.9,3.1c0.7,1,1.8,1.5,3,1.5
		c1.2,0,2.3-0.5,3-1.5c0.5-0.7,0.9-1.7,0.9-3.1C191.4,124.6,191.1,123.5,190.5,122.6z"/>
	<path class="st1" d="M206.7,132.5v-10l-7,10h-2.9v-13.9h2.8v10l7-10h2.9v13.9H206.7z"/>
	<path class="st1" d="M217,124.2c0.6,0,1.5,0,2.1-0.4c0.6-0.3,0.8-0.8,0.8-1.3c0-0.5-0.2-1-0.6-1.3c-0.6-0.4-1.5-0.4-2-0.4
		c-1.2,0-1.7,0.2-1.9,0.4c-0.2,0.1-0.6,0.5-0.7,1.2h-2.8c0.2-1.9,1.4-2.8,1.9-3.1c1-0.6,2.5-0.8,3.7-0.8c1,0,2.7,0.1,3.9,1
		c1.2,0.9,1.5,2.1,1.5,3c0,0.7-0.2,1.5-0.6,2c-0.4,0.5-1,0.8-1.5,1c0.6,0.2,1.2,0.5,1.5,0.9c0.7,0.6,0.9,1.4,0.9,2.2
		c0,1.8-1,2.9-1.8,3.4c-0.5,0.3-1.7,0.9-4.3,0.9c-0.7,0-2.6-0.1-3.7-0.7c-0.8-0.5-1.7-1.5-1.9-3.2h2.8c0,0.4,0.2,1,0.9,1.3
		c0.2,0.1,0.7,0.2,1.8,0.2c0.7,0,1.8-0.1,2.5-0.6c0.5-0.4,0.7-0.9,0.7-1.5c0-0.7-0.3-1.3-0.9-1.6c-0.7-0.4-1.4-0.4-2.1-0.4h-1.3
		v-2.2H217z"/>
	<path class="st1" d="M235.4,132.5v-6h-6.9v6h-2.8v-13.9h2.8v5.4h6.9v-5.4h2.8v13.9H235.4z"/>
	<path class="st1" d="M243.9,126.2c-0.1,1,0.2,2.3,1,3.2c0.9,0.9,2.1,1.1,3,1.1c0.6,0,1-0.1,1.5-0.3c0.4-0.2,0.6-0.5,0.6-0.8h2.9
		c0,0.5-0.2,1.3-1,2.1c-0.9,0.9-2,1.4-4.2,1.4c-1.5,0-3.6-0.3-5.1-1.9c-0.9-0.9-1.8-2.6-1.8-5.3c0-2.6,0.8-4.6,2.1-5.8
		c0.8-0.7,2.2-1.5,4.4-1.5c1.9,0,3.4,0.6,4.4,1.7c1.5,1.6,1.7,3.8,1.7,5.3v0.9H243.9z M250.7,123.8c0-1-0.4-1.7-0.8-2.1
		c-0.5-0.6-1.4-1-2.5-1c-1,0-1.7,0.3-2.2,0.7c-1,0.7-1.2,1.7-1.3,2.3H250.7z"/>
	<path class="st1" d="M267.3,128.3c-0.1,1.6-0.9,2.7-1.7,3.4c-0.8,0.6-2.1,1.1-3.7,1.1c-1.9,0-3.4-0.7-4.5-2.2
		c-1-1.4-1.4-3.3-1.4-5.1c0-2.1,0.7-4,1.8-5.3c1.2-1.4,2.7-1.9,4.3-1.9c1.6,0,2.7,0.5,3.3,0.9c0.7,0.5,1.6,1.4,1.9,3.1h-2.9
		c-0.1-0.3-0.2-0.8-0.7-1.2c-0.4-0.3-1-0.5-1.5-0.5c-1.2,0-2.1,0.6-2.6,1.2c-0.7,1-0.8,2.5-0.8,3.5c0,1.2,0.2,2.7,0.8,3.7
		c0.7,1.1,1.7,1.3,2.4,1.3c0.6,0,1.2-0.2,1.7-0.7c0.5-0.5,0.7-1,0.7-1.4H267.3z"/>
</g>
<g>
</g>
<g>
</g>
<g>
</g>
<g>
</g>
<g>
</g>
<g>
</g>
</svg>
