<svg xmlns="http://www.w3.org/2000/svg" xmlns:xlink="http://www.w3.org/1999/xlink" width="146" height="68" viewBox="0 0 146 68"><defs><path id="r6sca" d="M130 117.34V50h70.84v67.34z"/><path id="r6scb" d="M176.41 65h-4.32v4.32h4.32zm12.93 0H185v4.32h4.33zm4.32 19.45h-10.8v-8.64h-4.33v8.64h-10.81v-4.32h4.37V75.8h-4.37V60.67h4.32v-4.32h4.33v4.32H185v-4.32h4.33v4.32h4.32v15.09h-4.32v4.32h4.32v4.33zm-47.6-15.13h-4.33v4.32h4.32zm12.92 0h-4.32v4.32h4.32zm4.32 15.13h-10.8v-4.32h-4.33v4.32h-10.76v-4.32h4.32V75.8h-4.32V65h4.32v-4.33h4.32v-4.32h8.6v4.32h4.33V65h4.32v10.76h-4.32v4.32h4.32z"/><path id="r6scc" d="M142.7 91.17v5.24h.92v2.85h-1.2v-1.74h-5.01v-6.35h1.24v5.24h2.8v-5.24z"/><path id="r6scd" d="M149.04 97.52v-4.6l-3.17 4.6h-1.33v-6.35h1.24v4.6l3.17-4.6h1.34v6.35z"/><path id="r6sce" d="M155.62 92.18h.19c.36 0 .87.1 1.2.55.36.46.4 1.15.4 1.61 0 .5-.09 1.15-.4 1.61-.38.46-.84.55-1.2.55h-.19zm-1.24 0v4.32h-.18c-.37 0-.88-.09-1.2-.55-.37-.46-.41-1.1-.41-1.6 0-.51.09-1.16.41-1.62.37-.46.83-.55 1.2-.55zm1.24-3.08h-1.24v2.07h-.18c-.7 0-1.57.14-2.17.87-.64.74-.69 1.75-.69 2.26 0 .55.1 1.56.7 2.3.6.69 1.47.87 2.16.87h.18v2.12h1.24v-2.12h.19c.69 0 1.56-.14 2.16-.87.64-.79.69-1.75.69-2.3 0-.5-.1-1.52-.7-2.26a2.8 2.8 0 0 0-2.15-.87h-.19z"/><path id="r6scf" d="M164 92.73c-.24-.32-.6-.6-1.25-.6-.69 0-1.06.33-1.33.7-.32.45-.37 1.1-.37 1.47 0 .36.05.96.37 1.47.23.37.64.73 1.33.73.78 0 1.15-.46 1.34-.73.23-.37.32-.92.32-1.43 0-1-.32-1.47-.42-1.6zm-3.04-.87c.23-.32.55-.5.87-.65.32-.13.65-.18 1.06-.18.64 0 1.33.14 1.98.74.69.69.83 1.65.83 2.57 0 1.01-.19 1.8-.74 2.44-.41.5-1.01.87-2.07.87-.32 0-.7-.04-1.06-.18a2.08 2.08 0 0 1-.83-.64v2.8h-1.24v-8.46h1.2z"/><path id="r6scg" d="M168.36 92.87a2.57 2.57 0 0 0-.41 1.47c0 .42.05.97.41 1.47.23.33.65.7 1.38.7.74 0 1.15-.42 1.38-.7.33-.46.42-1 .42-1.47 0-.41-.05-.96-.42-1.47a1.6 1.6 0 0 0-1.38-.69c-.73 0-1.15.41-1.38.7zm3.73-.83c.41.5.74 1.24.74 2.3 0 1.06-.33 1.75-.74 2.26a2.97 2.97 0 0 1-2.35 1c-1.1 0-1.88-.45-2.34-1a3.47 3.47 0 0 1-.74-2.26c0-1.06.32-1.8.74-2.3a2.97 2.97 0 0 1 2.34-1c1.1 0 1.84.45 2.35 1z"/><path id="r6sch" d="M175.3 96.41v-1.75h1.71c.32 0 .6.05.83.19.18.1.37.32.37.69a.8.8 0 0 1-.23.6c-.23.23-.65.27-.88.27zm.1-2.71v-1.38h1.52c.18 0 .64 0 .87.18.14.1.23.28.23.5 0 .24-.09.42-.23.51-.27.23-.73.19-.96.19zm-1.29-2.53v6.3h3.04c.41 0 1.24 0 1.84-.5.37-.33.6-.79.6-1.34a1.43 1.43 0 0 0-1.25-1.47 2 2 0 0 0 .74-.46c.14-.23.23-.55.23-.88 0-.55-.28-.96-.5-1.15-.51-.46-1.3-.5-1.75-.5z"/><path id="r6sci" d="M182.25 92.87a2.57 2.57 0 0 0-.4 1.47c0 .42.04.97.4 1.47.23.33.65.7 1.38.7.74 0 1.15-.42 1.38-.7.33-.46.42-1 .42-1.47 0-.41-.05-.96-.42-1.47a1.6 1.6 0 0 0-1.38-.69c-.78 0-1.2.41-1.38.7zm3.68-.83c.42.5.74 1.24.74 2.3 0 1.06-.32 1.75-.74 2.26a2.97 2.97 0 0 1-2.34 1c-1.1 0-1.89-.45-2.35-1a3.47 3.47 0 0 1-.73-2.26c0-1.06.32-1.8.73-2.3a2.97 2.97 0 0 1 2.35-1 2.9 2.9 0 0 1 2.34 1z"/><path id="r6scj" d="M192.7 88.5c0 .37-.14.78-.42 1.01-.41.42-1.06.46-1.52.46-.46 0-1.1-.04-1.51-.46a1.5 1.5 0 0 1-.42-1v-.15h1.15v.14c0 .1 0 .23.14.37.18.14.41.18.64.18.23 0 .46-.04.65-.18.14-.14.14-.32.14-.37v-.14h1.15v.14zm-.33 9.02v-4.6l-3.17 4.6h-1.33v-6.35h1.24v4.6l3.17-4.6h1.34v6.35z"/><path id="r6sck" d="M139.84 107c0 .36-.04.91-.13 1.28-.19.74-.51 1.06-.65 1.2h2.76v-4.14h-2.02v1.65zm3.27-2.77v5.25h.92v2.85h-1.2v-1.75h-4.55v1.75h-1.2v-2.85h.6c.42-.33.65-.74.74-1.06.18-.55.23-1.1.23-1.66v-2.53z"/><path id="r6scl" d="M149.46 110.58v-4.6l-3.18 4.6h-1.33v-6.35h1.24v4.6l3.18-4.6h1.33v6.35z"/><path id="r6scm" d="M155.85 107.59h-.83c-.46 0-.82 0-1.24.1-.41.13-.73.4-.73 1 0 .33.13.56.27.7.19.18.46.32.83.32.5 0 1.01-.23 1.33-.65.19-.23.37-.64.37-1.29zm0 2.99v-.6c-.69.6-1.42.74-1.84.74-.78 0-1.33-.23-1.65-.5a1.82 1.82 0 0 1-.65-1.43 2 2 0 0 1 1.01-1.75 4.5 4.5 0 0 1 2.17-.42h.96v-.23c0-.27 0-.73-.32-1-.18-.15-.46-.24-.92-.24-.64 0-.87.14-1.01.19a.64.64 0 0 0-.32.5h-1.3c.05-.73.47-1.15.84-1.38.27-.18.78-.32 1.79-.32.5 0 1.29.05 1.84.5.55.51.6 1.39.6 2.03v3.96h-1.2z"/><path id="r6scn" d="M163.58 104.23v6.35h-1.24v-5.24h-2.16v2.02c0 1.47-.19 2.02-.37 2.4a1.6 1.6 0 0 1-1.43.82h-.55v-1.1h.18c.33 0 .56-.19.7-.33.18-.27.27-.78.27-2.2v-2.67h4.6z"/><path id="r6sco" d="M166.43 105.98a2.67 2.67 0 0 0-.41 1.47c0 .42.04.97.41 1.47.23.33.65.7 1.38.7.74 0 1.15-.42 1.38-.7.32-.46.42-1.05.42-1.47 0-.41-.05-.96-.42-1.47a1.6 1.6 0 0 0-1.38-.69 1.5 1.5 0 0 0-1.38.69zm3.73-.83c.41.5.73 1.24.73 2.3 0 1.06-.32 1.75-.73 2.26a2.97 2.97 0 0 1-2.35 1c-1.1 0-1.88-.45-2.34-1a3.47 3.47 0 0 1-.74-2.26c0-1.06.32-1.8.74-2.3a2.97 2.97 0 0 1 2.34-1.01c1.1 0 1.89.46 2.35 1.01z"/><path id="r6scp" d="M176.32 105.38h-2.99v5.25h-1.24v-6.35h4.23z"/><path id="r6scq" d="M176.37 110.58v-1.61h1.84v1.61z"/><path id="r6scr" d="M205.16 117.34V50H276v67.34z"/><path id="r6scs" d="M214 92.87a2.57 2.57 0 0 0-.42 1.47c0 .42.05.97.41 1.48.23.32.65.69 1.38.69.74 0 1.15-.42 1.38-.7.33-.45.42-1 .42-1.47 0-.41-.05-.96-.42-1.47a1.6 1.6 0 0 0-1.38-.69c-.73 0-1.15.42-1.38.7zm3.72-.83c.41.5.74 1.25.74 2.3 0 1.06-.33 1.75-.74 2.26a2.97 2.97 0 0 1-2.35 1c-1.1 0-1.88-.45-2.34-1a3.47 3.47 0 0 1-.74-2.26c0-1.05.32-1.8.74-2.3a2.97 2.97 0 0 1 2.34-1c1.1 0 1.89.45 2.35 1z"/><path id="r6sct" d="M225.13 91.17v6.35h-1.25v-5.25h-2.8v5.25h-1.24v-6.35z"/><path id="r6scu" d="M231.06 93.52c0-.46-.18-.74-.37-.97a1.45 1.45 0 0 0-1.1-.46c-.46 0-.78.14-1.01.32a1.5 1.5 0 0 0-.6 1.06h3.08zm-3.08 1.1c-.05.46.09 1.06.46 1.47.41.42.96.5 1.38.5.27 0 .46-.04.69-.13a.65.65 0 0 0 .27-.37h1.3c0 .23-.1.6-.47.97-.37.41-.92.64-1.88.64-.7 0-1.66-.14-2.3-.83a3.32 3.32 0 0 1-.83-2.39c0-1.2.37-2.11.96-2.67a2.94 2.94 0 0 1 1.98-.69c.88 0 1.52.23 2.03.74.69.74.73 1.75.73 2.4v.36z"/><path id="r6scv" d="M238 92.73c-.22-.32-.6-.6-1.24-.6-.69 0-1.05.33-1.33.7-.32.46-.37 1.1-.37 1.47 0 .37.05.96.37 1.47.23.37.64.74 1.33.74.79 0 1.15-.46 1.34-.74.23-.37.32-.92.32-1.43 0-1-.32-1.47-.41-1.6zm-2.98-.87c.23-.32.55-.5.87-.64.32-.14.64-.19 1.06-.19.64 0 1.33.14 1.98.74.69.69.82 1.65.82 2.57 0 1.02-.18 1.8-.73 2.44-.42.5-1.01.88-2.07.88-.32 0-.7-.05-1.06-.19a2.08 2.08 0 0 1-.83-.64v2.8h-1.24v-8.46h1.2z"/><path id="r6scw" d="M245 94.53h-.83c-.46 0-.83 0-1.24.09-.42.14-.74.41-.74 1.01 0 .32.1.55.28.7.18.18.46.31.83.31.5 0 1-.23 1.33-.64.18-.23.37-.64.37-1.29zm0 2.99v-.6c-.7.6-1.43.74-1.84.74-.78 0-1.3-.23-1.66-.56a1.75 1.75 0 0 1-.64-1.42c0-.5.23-1.3 1-1.75a4.5 4.5 0 0 1 2.17-.41h.97v-.23c0-.28 0-.74-.32-1.02-.19-.13-.46-.23-.92-.23-.65 0-.88.14-1.02.19a.64.64 0 0 0-.32.5h-1.29c.05-.73.46-1.15.83-1.38.28-.18.78-.32 1.8-.32.5 0 1.33.05 1.84.5.55.51.6 1.39.6 2.03v3.96z"/><path id="r6scx" d="M250.38 92.27v5.25h-1.24v-5.25h-2.21v-1.1h5.7v1.1z"/><path id="r6scy" d="M254.43 92.87a2.57 2.57 0 0 0-.42 1.47c0 .42.05.97.42 1.48.23.32.64.69 1.38.69.73 0 1.15-.42 1.38-.7.32-.45.41-1 .41-1.47 0-.41-.05-.96-.41-1.47a1.6 1.6 0 0 0-1.38-.69c-.74 0-1.15.42-1.38.7zm3.72-.83c.42.5.74 1.25.74 2.3 0 1.06-.32 1.75-.74 2.26a2.97 2.97 0 0 1-2.34 1c-1.1 0-1.89-.45-2.35-1a3.47 3.47 0 0 1-.74-2.26c0-1.05.33-1.8.74-2.3a2.97 2.97 0 0 1 2.35-1c1.1 0 1.88.45 2.34 1z"/><path id="r6scz" d="M264.27 92.73c-.23-.32-.6-.6-1.24-.6-.7 0-1.06.33-1.34.7-.32.46-.36 1.1-.36 1.47 0 .37.04.96.36 1.47.23.37.65.74 1.34.74.78 0 1.15-.46 1.33-.74.23-.37.32-.92.32-1.43 0-1-.32-1.47-.4-1.6zm-2.99-.87c.23-.32.55-.5.87-.64.33-.14.65-.19 1.06-.19.65 0 1.34.14 1.93.74.7.69.83 1.65.83 2.57 0 1.02-.18 1.8-.73 2.44-.42.5-1.02.88-2.07.88-.33 0-.7-.05-1.06-.19a2.08 2.08 0 0 1-.83-.64v2.8h-1.24v-8.46h1.2v.69z"/><path id="r6scA" d="M217.49 108.56a2.22 2.22 0 0 1-.78 1.56c-.37.28-.97.5-1.7.5-.88 0-1.52-.32-2.03-1a4.05 4.05 0 0 1-.64-2.3c0-.97.32-1.85.83-2.4a2.47 2.47 0 0 1 1.97-.87c.74 0 1.25.23 1.52.41.32.23.74.65.88 1.43h-1.3c-.04-.14-.08-.37-.31-.55a1.24 1.24 0 0 0-.7-.23c-.55 0-.96.27-1.14.55a2.95 2.95 0 0 0-.37 1.6c0 .56.09 1.25.37 1.66.32.51.78.6 1.1.6.28 0 .55-.09.78-.32.23-.23.32-.46.32-.64h1.2z"/><path id="r6scB" d="M221.86 109.43h-1.8v-1.75h1.7c.28 0 .6.05.84.19.18.09.36.32.36.69a.8.8 0 0 1-.23.6c-.23.18-.64.22-.87.22zm-1.7-2.8v-1.43h1.52c.18 0 .64 0 .87.18.14.14.23.32.23.55 0 .23-.1.42-.23.51-.28.23-.74.18-.97.18zm-1.29-2.49v6.35h3.04c.36 0 1.2 0 1.79-.5.37-.33.6-.79.6-1.34 0-.42-.14-.78-.37-1.01-.23-.19-.5-.42-.87-.46a2 2 0 0 0 .73-.46c.19-.23.28-.56.28-.88 0-.6-.28-1-.5-1.2-.51-.45-1.3-.5-1.76-.5z"/><path id="r6scC" d="M227.8 105.24c-.51 0-.74.1-.83.14-.14.05-.37.28-.37.78 0 .23.09.46.32.6.23.19.55.19.78.19h1.38v-1.7zm2.52 5.25h-1.24v-2.44h-1.2l-1.42 2.44h-1.52l1.7-2.72c-.04 0-.55-.13-.87-.46-.14-.13-.46-.5-.46-1.28 0-.88.46-1.38.83-1.61.5-.28 1.2-.33 1.7-.33h2.53v6.4z"/><path id="r6scD" d="M233.77 106.62c.28 0 .7 0 .97-.18a.63.63 0 0 0 .37-.6c0-.23-.1-.46-.28-.6-.27-.18-.69-.18-.92-.18-.5 0-.73.1-.87.18-.1.05-.28.23-.32.56h-1.3c.1-.88.6-1.3.84-1.43.46-.28 1.1-.37 1.65-.37.46 0 1.2.05 1.8.46a1.66 1.66 0 0 1 .4 2.26c-.17.23-.45.36-.63.46.27.09.55.23.69.41.32.28.4.64.4 1.01a1.8 1.8 0 0 1-.82 1.57c-.23.13-.78.41-1.93.41-.32 0-1.2-.05-1.7-.32a1.94 1.94 0 0 1-.88-1.47h1.3c0 .18.08.46.4.6.1.04.33.09.83.09.33 0 .83-.05 1.15-.28a.83.83 0 0 0 .33-.69c0-.32-.14-.6-.42-.74-.32-.18-.64-.18-.96-.18h-.6v-1.01h.5z"/><path id="r6scE" d="M242.24 110.49v-4.6l-3.18 4.6h-1.33v-6.35h1.24v4.6l3.18-4.6h1.33v6.35z"/></defs><g><g transform="translate(-130 -50)"><use fill="#ef4135" xlink:href="#r6sca"/></g><g transform="translate(-130 -50)"><g><use fill="#fff" xlink:href="#r6scb"/></g><g><g><g><use fill="#fff" xlink:href="#r6scc"/></g><g><use fill="#fff" xlink:href="#r6scd"/></g><g><use fill="#fff" xlink:href="#r6sce"/></g><g><use fill="#fff" xlink:href="#r6scf"/></g><g><use fill="#fff" xlink:href="#r6scg"/></g><g><use fill="#fff" xlink:href="#r6sch"/></g><g><use fill="#fff" xlink:href="#r6sci"/></g><g><use fill="#fff" xlink:href="#r6scj"/></g></g><g><g><use fill="#fff" xlink:href="#r6sck"/></g><g><use fill="#fff" xlink:href="#r6scl"/></g><g><use fill="#fff" xlink:href="#r6scm"/></g><g><use fill="#fff" xlink:href="#r6scn"/></g><g><use fill="#fff" xlink:href="#r6sco"/></g><g><use fill="#fff" xlink:href="#r6scp"/></g><g><use fill="#fff" xlink:href="#r6scq"/></g></g></g></g><g transform="translate(-130 -50)"><use fill="#ef4135" xlink:href="#r6scr"/></g><g transform="translate(-130 -50)"><g><g><use fill="#fff" xlink:href="#r6scs"/></g><g><use fill="#fff" xlink:href="#r6sct"/></g><g><use fill="#fff" xlink:href="#r6scu"/></g><g><use fill="#fff" xlink:href="#r6scv"/></g><g><use fill="#fff" xlink:href="#r6scw"/></g><g><use fill="#fff" xlink:href="#r6scx"/></g><g><use fill="#fff" xlink:href="#r6scy"/></g><g><use fill="#fff" xlink:href="#r6scz"/></g></g><g><g><use fill="#fff" xlink:href="#r6scA"/></g><g><use fill="#fff" xlink:href="#r6scB"/></g><g><use fill="#fff" xlink:href="#r6scC"/></g><g><use fill="#fff" xlink:href="#r6scD"/></g><g><use fill="#fff" xlink:href="#r6scE"/></g></g></g></g></svg>