<svg xmlns="http://www.w3.org/2000/svg" viewBox="-3156.172 -14438 112.172 101.797"><defs><style>.a{fill:#ef4135;}</style></defs><g transform="translate(-3156.172 -14437.866)"><g transform="translate(40.107 -0.134)"><g transform="translate(0 0)"><path class="a" d="M253.479,52.948h-2.147a3.264,3.264,0,0,1,0-6.527h2.147a1.664,1.664,0,0,0,1.665-1.665V34.789a1.664,1.664,0,0,0-1.665-1.665h-2.147a3.272,3.272,0,0,1-3.264-3.264v-.613l2.431-2.234a1.649,1.649,0,0,0,.131-2.3l-6.484-7.557a1.641,1.641,0,0,0-1.139-.57,1.611,1.611,0,0,0-1.2.394l-1.621,1.4a3.283,3.283,0,0,1-4.6-.35,3.224,3.224,0,0,1-.767-2.366,3.186,3.186,0,0,1,1.139-2.234l1.621-1.4a1.663,1.663,0,0,0,.175-2.344L231.268,2.13a1.663,1.663,0,0,0-2.344-.175l-1.621,1.4a3.224,3.224,0,0,1-2.366.767A3.186,3.186,0,0,1,222.7,2.984L220.534.443a1.641,1.641,0,0,0-1.139-.57,1.612,1.612,0,0,0-1.2.394L189.5,24.866h-4.731a1.665,1.665,0,1,0,0,3.329h60v1.687a6.577,6.577,0,0,0,6.571,6.571h.482v6.637h-.482a6.571,6.571,0,0,0,0,13.143h.482v6.637h-.482a6.577,6.577,0,0,0-6.571,6.571v3.768H233.283a1.665,1.665,0,1,0,0,3.329h13.143a1.664,1.664,0,0,0,1.665-1.665V69.442a3.272,3.272,0,0,1,3.264-3.264H253.5a1.664,1.664,0,0,0,1.665-1.665V54.547A1.686,1.686,0,0,0,253.479,52.948ZM194.622,24.888,219.111,3.9l1.1,1.27a6.5,6.5,0,0,0,4.49,2.278,6.591,6.591,0,0,0,4.8-1.555l.372-.307,4.315,5.038-.372.307a6.587,6.587,0,0,0,8.565,10.01l.372-.307L246.4,24.91l-51.782-.022Z" transform="translate(-183.1 0.134)"/></g></g><g transform="translate(0 24.91)"><path class="a" d="M75.723,162.543H10.383v-1.687a6.577,6.577,0,0,0-6.571-6.571H3.329v-6.637h.482a6.571,6.571,0,1,0,0-13.143H3.329v-6.637h.482a6.577,6.577,0,0,0,6.571-6.571v-3.768H29.33a1.665,1.665,0,1,0,0-3.329H8.718a1.664,1.664,0,0,0-1.665,1.665V121.3a3.272,3.272,0,0,1-3.264,3.264H1.665A1.664,1.664,0,0,0,0,126.225v9.966a1.664,1.664,0,0,0,1.665,1.665H3.811a3.264,3.264,0,0,1,0,6.527H1.665A1.664,1.664,0,0,0,0,146.049v9.966a1.664,1.664,0,0,0,1.665,1.665H3.811a3.272,3.272,0,0,1,3.264,3.264v.9L4.731,163.7a1.692,1.692,0,0,0-.613,1.139,1.652,1.652,0,0,0,.394,1.249L11,173.648a1.641,1.641,0,0,0,1.139.569,1.611,1.611,0,0,0,1.2-.394l1.621-1.4a3.134,3.134,0,0,1,2.366-.767,3.186,3.186,0,0,1,2.234,1.139,3.283,3.283,0,0,1-.35,4.6l-1.621,1.4a1.663,1.663,0,0,0-.175,2.344L23.9,188.7a1.663,1.663,0,0,0,2.344.175l1.621-1.4a3.224,3.224,0,0,1,2.366-.767,3.186,3.186,0,0,1,2.234,1.139l2.169,2.541a1.682,1.682,0,0,0,2.344.175L65.625,166l.044-.044h10.1a1.664,1.664,0,0,0,1.665-1.665A1.779,1.779,0,0,0,75.723,162.543ZM36.033,186.857l-1.1-1.27a6.5,6.5,0,0,0-4.49-2.278,6.591,6.591,0,0,0-4.8,1.555l-.372.307-4.315-5.038.372-.307a6.5,6.5,0,0,0,2.278-4.49,6.591,6.591,0,0,0-1.555-4.8,6.505,6.505,0,0,0-4.49-2.278,6.591,6.591,0,0,0-4.8,1.555l-.372.307L8.74,165.85H60.522Z" transform="translate(0 -114.2)"/></g><g transform="translate(16.757 32.664)"><path class="a" d="M153.472,149.6H106.18a1.665,1.665,0,1,0,0,3.329h45.627v29.483H79.83V152.929H93.5a1.665,1.665,0,0,0,0-3.329H78.165a1.664,1.664,0,0,0-1.665,1.665v32.791a1.664,1.664,0,0,0,1.665,1.665h75.307a1.664,1.664,0,0,0,1.665-1.665V151.265A1.664,1.664,0,0,0,153.472,149.6Z" transform="translate(-76.5 -149.6)"/></g><g transform="translate(24.248 43.463)"><path class="a" d="M120.776,198.9H111.6c-.613,0-.9.657-.9,1.249,0,.7.329,1.27.9,1.27h3.176v12.42c0,.591.7.9,1.4.9s1.4-.307,1.4-.9v-12.42h3.154c.57,0,.9-.613.9-1.27C121.652,199.557,121.367,198.9,120.776,198.9Z" transform="translate(-110.7 -198.9)"/></g><g transform="translate(36.755 43.463)"><path class="a" d="M169.2,198.9c-.723,0-1.4.263-1.4.876v14.085c0,.591.7.9,1.4.9s1.4-.307,1.4-.9V199.776C170.6,199.163,169.9,198.9,169.2,198.9Z" transform="translate(-167.8 -198.9)"/></g><g transform="translate(41.991 43.485)"><path class="a" d="M200.462,209.273c-.745,0-1.336.219-1.38.9-.066.92-.241,2.322-2.212,2.322-1.49,0-2.322-.811-2.322-2.5V203.95c0-1.687.832-2.5,2.278-2.5a2.008,2.008,0,0,1,2.256,2.147c.022.657.613.9,1.4.9.964,0,1.4-.263,1.4-1.38,0-2.519-2.147-4.118-5.17-4.118-2.738,0-5.016,1.336-5.016,4.972v6.046c0,3.614,2.256,4.972,4.994,4.972,3.045,0,5.169-1.665,5.169-4.293C201.886,209.558,201.426,209.273,200.462,209.273Z" transform="translate(-191.7 -199)"/></g><g transform="translate(54.082 43.441)"><path class="a" d="M257.48,212.863l-4.731-7.207,3.877-4.863a.845.845,0,0,0,.175-.548,1.752,1.752,0,0,0-1.621-1.446.905.905,0,0,0-.789.416L249.7,205.59v-5.914c0-.613-.723-.876-1.4-.876-.723,0-1.4.263-1.4.876h0v14.085c0,.591.7.9,1.4.9s1.4-.307,1.4-.9v-4.249l1.161-1.468,4.074,6.177a1.112,1.112,0,0,0,.986.548,1.713,1.713,0,0,0,1.687-1.4A.706.706,0,0,0,257.48,212.863Z" transform="translate(-246.9 -198.8)"/></g><g transform="translate(66.063 43.485)"><path class="a" d="M310.537,212.34H304.4v-4.359h3.286a.983.983,0,0,0,.9-1.073c0-.591-.329-1.117-.9-1.117H304.4v-4.337h6.133c.57,0,.9-.591.9-1.249,0-.591-.285-1.2-.9-1.2h-7.71c-.635,0-1.227.307-1.227.9v14.063c0,.591.613.9,1.227.9h7.71c.613,0,.9-.635.9-1.2C311.413,212.931,311.107,212.34,310.537,212.34Z" transform="translate(-301.6 -199)"/></g><g transform="translate(76.468 43.463)"><path class="a" d="M359.176,198.9H350c-.613,0-.9.657-.9,1.249,0,.7.329,1.27.9,1.27h3.176v12.42c0,.591.7.9,1.4.9s1.4-.307,1.4-.9v-12.42h3.154c.569,0,.9-.613.9-1.27C360.074,199.557,359.789,198.9,359.176,198.9Z" transform="translate(-349.1 -198.9)"/></g></g></svg>