<svg xmlns="http://www.w3.org/2000/svg" viewBox="-2520.5 -13694.5 71 50.74"><defs><style>.a{fill:#ef4135;stroke:rgba(0,0,0,0);}</style></defs><path class="a" d="M66.416,21.556V4.286A4.3,4.3,0,0,0,62.13,0H7.906A4.3,4.3,0,0,0,3.62,4.286V21.538A4.279,4.279,0,0,0,0,25.752V36.432a1.36,1.36,0,0,0,1.351,1.351H2.791v6.663A1.36,1.36,0,0,0,4.142,45.8H6.573v2.593a1.351,1.351,0,0,0,2.7,0V45.8H60.725v2.593a1.351,1.351,0,0,0,2.7,0V45.8h2.431a1.36,1.36,0,0,0,1.351-1.351V37.782h1.441A1.36,1.36,0,0,0,70,36.432V25.752A4.215,4.215,0,0,0,66.416,21.556ZM6.321,4.286A1.587,1.587,0,0,1,7.906,2.7H62.13a1.587,1.587,0,0,1,1.585,1.585V21.5H58.979c.936-1.008,1.909-2.089,2.9-3.224a1.322,1.322,0,0,0,0-1.765,111.55,111.55,0,0,0-11.67-11.67,1.322,1.322,0,0,0-1.765,0,111.55,111.55,0,0,0-11.67,11.67,1.322,1.322,0,0,0,0,1.765c.99,1.135,1.963,2.215,2.9,3.224H30.4c.936-1.008,1.909-2.089,2.9-3.224a1.322,1.322,0,0,0,0-1.765,111.551,111.551,0,0,0-11.67-11.67,1.322,1.322,0,0,0-1.765,0A106.739,106.739,0,0,0,8.158,16.5a1.322,1.322,0,0,0,0,1.765c.99,1.135,1.963,2.215,2.9,3.224H6.321ZM43.383,21.5c-1.243-1.279-2.5-2.629-3.8-4.106a103.643,103.643,0,0,1,9.743-9.743A103.644,103.644,0,0,1,59.069,17.4c-1.315,1.477-2.557,2.845-3.8,4.106Zm-28.6,0c-1.243-1.279-2.5-2.629-3.818-4.106A105.843,105.843,0,0,1,20.71,7.654,103.643,103.643,0,0,1,30.453,17.4c-1.315,1.477-2.557,2.845-3.818,4.106H14.785Zm49.74,21.592H5.493V37.782H64.525Zm2.791-8.014H2.7V25.752A1.549,1.549,0,0,1,4.25,24.2h61.5A1.549,1.549,0,0,1,67.3,25.752l.018,9.329Z" transform="translate(-2520 -13694)"/></svg>