<svg xmlns="http://www.w3.org/2000/svg" viewBox="-2569.315 -14434 98.315 97.797"><defs><style>.a{fill:#ef4135;}</style></defs><g transform="translate(-2569.315 -14433.957)"><g transform="translate(0 93.855)"><g transform="translate(0)"><ellipse class="a" cx="1.94" cy="1.94" rx="1.94" ry="1.94"/></g></g><g transform="translate(49.355 44.865)"><ellipse class="a" cx="1.92" cy="1.92" rx="1.92" ry="1.92"/></g><g transform="translate(62.525 19.938)"><path class="a" d="M339.58,106.4a8.2,8.2,0,1,0,0,11.6A8.23,8.23,0,0,0,339.58,106.4Zm-2.727,8.892a4.345,4.345,0,1,1-6.145-6.145,4.314,4.314,0,0,1,3.073-1.267,4.34,4.34,0,0,1,3.073,7.413Z" transform="translate(-325.575 -104)"/></g><g transform="translate(6.192 72.774)"><path class="a" d="M50.132,385.053a1.924,1.924,0,0,0-2.593.864l-2.3,4.609a6.388,6.388,0,0,1-5.243,3.5l-2.669.192a1.088,1.088,0,0,1-.883-.327,1.118,1.118,0,0,1-.326-.883l.192-2.669a6.388,6.388,0,0,1,3.5-5.243l4.609-2.3a1.932,1.932,0,0,0-1.728-3.457l-4.609,2.3a10.252,10.252,0,0,0-5.627,8.431l-.192,2.669a5,5,0,0,0,4.993,5.339,2.092,2.092,0,0,0,.346-.019l2.669-.192a10.252,10.252,0,0,0,8.431-5.627l2.3-4.609A1.9,1.9,0,0,0,50.132,385.053Z" transform="translate(-32.241 -379.124)"/></g><g transform="translate(0.009 -0.043)"><g transform="translate(0 0)"><path class="a" d="M97.041,1.252A4.451,4.451,0,0,0,93.623-.035L91.837.08A58.184,58.184,0,0,0,50.509,21.4l-4.225,5.2-11.062-.326h-.058A32.611,32.611,0,0,0,11.946,35.9L.616,47.227a1.94,1.94,0,0,0-.442,2.055,1.922,1.922,0,0,0,1.709,1.229L25.85,51.74l-.979,1.21a1.891,1.891,0,0,0-.192,2.132c.384.691.768,1.364,1.171,2.036l-5.684,6.741a1.942,1.942,0,0,0-.269,2.074,25.155,25.155,0,0,0,12.041,12.06,2.077,2.077,0,0,0,.826.192,1.971,1.971,0,0,0,1.21-.423c1.229-1,2.631-2.17,3.995-3.3.979-.807,1.978-1.652,2.9-2.4.557.326,1.114.653,1.69.96a1.986,1.986,0,0,0,.922.23,1.938,1.938,0,0,0,1.191-.4l1.306-1.018L47.206,95.91a1.943,1.943,0,0,0,1.229,1.709,1.771,1.771,0,0,0,.691.134A1.933,1.933,0,0,0,50.49,97.2L61.82,85.866a32.611,32.611,0,0,0,9.621-23.218V52.086l4.475-3.476A58.04,58.04,0,0,0,98.308,5.592l.038-.941A4.4,4.4,0,0,0,97.041,1.252ZM6.4,46.882l8.258-8.258a28.748,28.748,0,0,1,20.472-8.488l8.085.23L28.865,48.034Zm29.133,24.6c-1,.845-2.036,1.709-3,2.5a21.169,21.169,0,0,1-4.993-3.726,20.427,20.427,0,0,1-3.591-4.859l4.167-4.936a44.417,44.417,0,0,0,4.129,4.782h0a46.176,46.176,0,0,0,5.3,4.571C36.874,70.349,36.2,70.925,35.529,71.482ZM67.62,62.61A28.792,28.792,0,0,1,59.132,83.1l-8.258,8.258L49.721,68.928l17.9-13.885V62.61ZM94.468,5.4A54.077,54.077,0,0,1,73.573,45.537L43.346,69a40.732,40.732,0,0,1-6.99-5.147l10.2-10.2a1.928,1.928,0,0,0-2.727-2.727L33.647,61.112a39.438,39.438,0,0,1-4.936-6.741L53.5,23.855A54.152,54.152,0,0,1,92.067,3.941l1.786-.115a.595.595,0,0,1,.634.634Z" transform="translate(-0.049 0.043)"/></g></g></g></svg>