<svg xmlns="http://www.w3.org/2000/svg" viewBox="-3293 -14148 61.075 61.594"><defs><style>.a{fill:#ef4135;}</style></defs><g transform="translate(-3293 -14147.973)"><path class="a" d="M57.447,10.028H38.228a7.55,7.55,0,0,0-.947-2.665l16.04-5.025A1.184,1.184,0,0,0,54.107.828,1.184,1.184,0,0,0,52.6.041L35.643,5.355a7.777,7.777,0,0,0-10.211,0L8.461.025a1.2,1.2,0,1,0-.722,2.3l16.04,5.041a7.879,7.879,0,0,0-.947,2.665H3.629A3.621,3.621,0,0,0,0,13.64V54.405a3.635,3.635,0,0,0,3.629,3.629h.578v2.328a1.2,1.2,0,1,0,2.408,0V58.034H54.46v2.328a1.2,1.2,0,1,0,2.408,0V58.034h.578a3.635,3.635,0,0,0,3.629-3.629V13.64A3.632,3.632,0,0,0,57.447,10.028ZM30.538,5.853a5.371,5.371,0,0,1,5.234,4.174H25.288A5.4,5.4,0,0,1,30.538,5.853ZM58.667,54.405a1.22,1.22,0,0,1-1.22,1.22H3.629a1.22,1.22,0,0,1-1.22-1.22V13.64a1.22,1.22,0,0,1,1.22-1.22H57.447a1.22,1.22,0,0,1,1.22,1.22V54.405Z" transform="translate(0 0)"/><path class="a" d="M77.261,93.27a1.211,1.211,0,0,0-1.092-1,284.7,284.7,0,0,0-47.669,0,1.211,1.211,0,0,0-1.092,1,99.7,99.7,0,0,0,0,33.685,1.211,1.211,0,0,0,1.092,1c7.9.658,15.863,1,23.826,1s15.927-.337,23.826-1a1.211,1.211,0,0,0,1.092-1A99.284,99.284,0,0,0,77.261,93.27Zm-2.232,32.352a281.85,281.85,0,0,1-45.389,0,96.667,96.667,0,0,1,0-31.019,281.852,281.852,0,0,1,45.389,0A96.668,96.668,0,0,1,75.029,125.622Z" transform="translate(-21.805 -76.643)"/><path class="a" d="M312.6,168.692a1.215,1.215,0,0,0-1.14,1.268,91.1,91.1,0,0,1-.177,12.732,1.206,1.206,0,0,0,1.108,1.3h.1a1.219,1.219,0,0,0,1.2-1.108,95.738,95.738,0,0,0,.177-13.053A1.194,1.194,0,0,0,312.6,168.692Z" transform="translate(-261.302 -141.63)"/><path class="a" d="M309.556,127.8h.112a1.205,1.205,0,0,0,1.076-1.317c-.112-1.236-.273-2.489-.434-3.725a1.2,1.2,0,1,0-2.376.321c.161,1.2.3,2.424.417,3.629A1.216,1.216,0,0,0,309.556,127.8Z" transform="translate(-258.483 -102.202)"/><path class="a" d="M346.214,324.765a1.2,1.2,0,1,0,.466,1.4A1.183,1.183,0,0,0,346.214,324.765Z" transform="translate(-289.057 -272.479)"/></g></svg>