<svg xmlns="http://www.w3.org/2000/svg" viewBox="-2908 -14151 58 76.021"><defs><style>.a{fill:#ef4135;}</style></defs><g transform="translate(-2908 -14151)"><g transform="translate(0 0)"><path class="a" d="M53.754,38.434H53.62V3.34a3.34,3.34,0,1,0-6.68,0V5.151c-1.544.238-3.592.475-6.294.668a181.716,181.716,0,0,1-19.6.223A1.129,1.129,0,1,0,20.961,8.3a186.448,186.448,0,0,0,19.848-.223c5.864-.416,8.907-1.039,10.54-1.6V25.058a12.74,12.74,0,0,1-3.474.965.055.055,0,0,0-.045.015c-1.009.178-2.271.356-3.845.52-4.127.431-9.486.668-15.068.668s-10.941-.238-15.068-.668c-1.588-.163-2.85-.341-3.845-.52a.055.055,0,0,1-.045-.015,12.74,12.74,0,0,1-3.474-.965V6.472a36.29,36.29,0,0,0,7.868,1.381,1.126,1.126,0,1,0,.223-2.242c-1.455-.148-2.657-.3-3.667-.445V3.34A3.368,3.368,0,0,0,7.556,0,3.332,3.332,0,0,0,4.231,3.34V38.434A4.283,4.283,0,0,0,4.29,47h6.947L24.776,60.374l-13.865,13.7a1.135,1.135,0,0,0,.787,1.945h.015l4.379-.074a1.078,1.078,0,0,0,.772-.327L28.517,64.1,40.17,75.62a1.1,1.1,0,0,0,.772.327l4.379.074h.015a1.111,1.111,0,0,0,1.039-.7,1.144,1.144,0,0,0-.252-1.247l-13.865-13.7L45.8,47h7.912A4.292,4.292,0,0,0,58,42.709,4.223,4.223,0,0,0,53.754,38.434ZM7.556,2.256A1.09,1.09,0,0,1,8.64,3.34v1.4a8.738,8.738,0,0,1-2.153-.7v-.7h0A1.077,1.077,0,0,1,7.556,2.256ZM49.211,4.721v-1.4a1.084,1.084,0,1,1,2.167,0v.7h0A9.2,9.2,0,0,1,49.211,4.721Zm0,23.336a17.676,17.676,0,0,0,2.153-.579V38.419H49.211ZM6.487,27.478a18.463,18.463,0,0,0,2.153.579V38.434H6.487Zm9.13,46.2L14.5,73.69,26.379,61.948l.549.534Zm26.958.03-1.113-.015L14.459,47h1.1ZM18.764,47H38.33l-9.783,9.664ZM30.7,58.786l-.549-.534L41.536,47.014h1.1ZM53.754,44.743H4.29a2.034,2.034,0,0,1,0-4.068H16.522a1.128,1.128,0,0,0,0-2.256H10.9V28.443c.8.119,1.707.238,2.731.341a152.61,152.61,0,0,0,15.305.683,152.61,152.61,0,0,0,15.305-.683c1.024-.1,1.93-.223,2.731-.341v9.976H22.995a1.128,1.128,0,1,0,0,2.256H53.754a2.034,2.034,0,1,1,0,4.068Z" transform="translate(0 0)"/></g><g transform="translate(22.551 9.976)"><path class="a" d="M166.9,72.618a1.144,1.144,0,0,0-.861-.757l-3.771-.713-1.841-3.37a1.13,1.13,0,0,0-.995-.579,1.148,1.148,0,0,0-.995.579l-1.841,3.37-3.771.713a1.121,1.121,0,0,0-.861.757,1.135,1.135,0,0,0,.252,1.128l2.628,2.791-.49,3.815a1.147,1.147,0,0,0,1.128,1.277,1.056,1.056,0,0,0,.475-.1l3.474-1.633,3.474,1.633a1.129,1.129,0,0,0,1.143-.1,1.163,1.163,0,0,0,.46-1.054l-.49-3.815,2.628-2.791A1.154,1.154,0,0,0,166.9,72.618Zm-4.884,2.761a1.11,1.11,0,0,0-.3.92l.3,2.3-2.093-.995a1.1,1.1,0,0,0-.965,0l-2.093.995.3-2.3a1.11,1.11,0,0,0-.3-.92l-1.6-1.677,2.271-.431a1.138,1.138,0,0,0,.787-.564l1.113-2.034,1.113,2.034a1.108,1.108,0,0,0,.787.564l2.271.431Z" transform="translate(-151.911 -67.2)"/></g></g></svg>