<svg xmlns="http://www.w3.org/2000/svg" viewBox="-2520 -14145 70 70"><defs><style>.a{fill:#ef4135;}</style></defs><g transform="translate(-2519 -14144)"><g transform="translate(-1 -1)"><path class="a" d="M104.22,161.1H98.384a1.1,1.1,0,0,0-1.162,1.162v7H92.561v-7A1.1,1.1,0,0,0,91.4,161.1H85.562a1.1,1.1,0,0,0-1.162,1.162V185.6a1.1,1.1,0,0,0,1.162,1.162H91.4a1.1,1.1,0,0,0,1.162-1.162v-7h4.661v7a1.1,1.1,0,0,0,1.162,1.162h5.837a1.1,1.1,0,0,0,1.162-1.162v-23.32A1.1,1.1,0,0,0,104.22,161.1Zm-1.162,23.333h-3.5v-7a1.1,1.1,0,0,0-1.162-1.162h-7a1.1,1.1,0,0,0-1.162,1.162v7h-3.5v-21h3.486v7a1.1,1.1,0,0,0,1.162,1.162h7a1.1,1.1,0,0,0,1.162-1.162v-7h3.5l.014,21Z" transform="translate(-72.727 -138.942)"/><path class="a" d="M287.259,161.1h-14a1.1,1.1,0,0,0-1.162,1.162V185.6a1.1,1.1,0,0,0,1.162,1.162h14a7.012,7.012,0,0,0,7-7V168.1A7.021,7.021,0,0,0,287.259,161.1Zm4.661,18.672a4.676,4.676,0,0,1-4.661,4.661H274.424v-21h12.835a4.676,4.676,0,0,1,4.661,4.661Z" transform="translate(-234.769 -138.942)"/><path class="a" d="M321.7,203.8h-5.837a1.1,1.1,0,0,0-1.162,1.162v11.66a1.1,1.1,0,0,0,1.162,1.162H321.7a3.438,3.438,0,0,0,3.5-3.5v-7A3.435,3.435,0,0,0,321.7,203.8Zm1.176,10.5a1.1,1.1,0,0,1-1.162,1.162h-4.661v-9.336h4.661a1.1,1.1,0,0,1,1.162,1.162V214.3Z" transform="translate(-271.546 -175.805)"/><path class="a" d="M56.151-1H11.835A12.794,12.794,0,0,0-1,11.835V56.165A12.794,12.794,0,0,0,11.835,69H56.165A12.794,12.794,0,0,0,69,56.165V11.835A12.814,12.814,0,0,0,56.151-1Zm10.5,57.151a10.449,10.449,0,0,1-10.5,10.5H11.835a10.449,10.449,0,0,1-10.5-10.5V11.835a10.449,10.449,0,0,1,10.5-10.5H56.165a10.449,10.449,0,0,1,10.5,10.5l-.014,44.316Z" transform="translate(1 1)"/></g></g></svg>