<svg xmlns="http://www.w3.org/2000/svg" viewBox="-3297 -13917 70 70"><defs><style>.a{fill:#ef4135;}</style></defs><g transform="translate(-3297 -13917)"><path class="a" d="M68.814,67.627a9.519,9.519,0,0,1-9.492-9.492h0a33.958,33.958,0,0,0,9.492-23.729A34.48,34.48,0,1,0,57.186,60.153,11.846,11.846,0,0,0,68.814,70a1.186,1.186,0,0,0,0-2.373ZM2.373,34.407A32.034,32.034,0,1,1,34.407,66.441,32.052,32.052,0,0,1,2.373,34.407Z" transform="translate(0 0)"/><path class="a" d="M33.661,4A29.661,29.661,0,1,0,63.322,33.661,29.672,29.672,0,0,0,33.661,4Zm0,56.949A27.288,27.288,0,1,1,60.949,33.661,27.292,27.292,0,0,1,33.661,60.949Z" transform="translate(0.746 0.746)"/><path class="a" d="M42.305,22a4.036,4.036,0,0,0-1.186.119h0l-.949.237h0a5.783,5.783,0,0,0-1.305.475h0c-.356.237-.831.356-1.186.593h0c-.356.237-.593.475-.949.712-.119,0-.119.119-.237.119l-.831.831c0,.119-.119.119-.119.237a4.162,4.162,0,0,0-.593.949h0a4.214,4.214,0,0,0-.475,1.068c0,.119,0,.119-.119.237a3.51,3.51,0,0,0-.237,1.186V29A4.866,4.866,0,0,0,34,30.305a4.867,4.867,0,0,0,.119,1.305v.237c.119.356.119.831.237,1.186,0,.119,0,.119.119.237.119.356.356.712.475,1.068h0a6.623,6.623,0,0,0,.593.949c0,.119.119.119.119.237a2.772,2.772,0,0,0,.831.831.414.414,0,0,0,.237.119c.356.237.593.475.949.712h0a3.711,3.711,0,0,0,1.186.593h0a4.25,4.25,0,0,0,1.305.475h0l.949.356h0c.356,0,.712.119,1.186.119a8.254,8.254,0,0,0,8.305-8.305A8.355,8.355,0,0,0,42.305,22Zm-1.186,8.305a12.582,12.582,0,0,1-1.186,5.458,2.974,2.974,0,0,1-.831-.475c-.119-.119-.237-.119-.237-.237a2.083,2.083,0,0,1-.593-.475l-.237-.237c-.237-.237-.356-.475-.593-.712l-.119-.119a2.385,2.385,0,0,1-.475-.949.414.414,0,0,0-.119-.237c-.119-.237-.119-.475-.237-.712a.436.436,0,0,0-.119-.356v-.949a3.285,3.285,0,0,1,.119-1.068.436.436,0,0,1,.119-.356c.119-.237.119-.475.237-.712a.414.414,0,0,1,.119-.237c.119-.356.356-.593.475-.949l.119-.119a3.145,3.145,0,0,1,.593-.712l.237-.237a2.588,2.588,0,0,1,.593-.475c.119-.119.237-.119.237-.237.237-.119.593-.356.831-.475A15.5,15.5,0,0,1,41.119,30.305Zm1.186,5.932h0a17.048,17.048,0,0,0,1.186-5.932,17.048,17.048,0,0,0-1.186-5.932h0a5.932,5.932,0,1,1,0,11.864Z" transform="translate(6.339 4.102)"/><path class="a" d="M24.831,35.425c0-.119.119-.119.119-.237a4.162,4.162,0,0,0,.593-.949h0a4.214,4.214,0,0,0,.475-1.068c0-.119,0-.119.119-.237a3.51,3.51,0,0,0,.237-1.186V31.51a1.951,1.951,0,0,0,.237-1.186,4.867,4.867,0,0,0-.119-1.305v-.237c-.119-.356-.119-.831-.237-1.186,0-.119,0-.119-.119-.237a4.214,4.214,0,0,0-.475-1.068h0a6.623,6.623,0,0,0-.593-.949c0-.119-.119-.119-.119-.237a5.16,5.16,0,0,0-.712-.831A.414.414,0,0,0,24,24.154c-.356-.237-.593-.475-.949-.712h0a3.711,3.711,0,0,0-1.186-.593h0a4.25,4.25,0,0,0-1.305-.475h0l-1.068-.356h0c-.356,0-.712-.119-1.186-.119a8.305,8.305,0,1,0,0,16.61,4.036,4.036,0,0,0,1.186-.119h0l.949-.237h0a5.783,5.783,0,0,0,1.305-.475h0c.356-.237.831-.356,1.186-.593h0c.356-.237.593-.475.949-.712.119,0,.119-.119.237-.119A5.161,5.161,0,0,0,24.831,35.425Zm-.712-4.034a.436.436,0,0,1-.119.356c-.119.237-.119.475-.237.712a.414.414,0,0,1-.119.237c-.119.356-.356.593-.475.949l-.119.119a3.146,3.146,0,0,1-.593.712l-.237.237a2.588,2.588,0,0,1-.593.475c-.119.119-.237.119-.237.237-.237.119-.593.356-.831.475a12.224,12.224,0,0,1-1.186-5.458,12.582,12.582,0,0,1,1.186-5.458,2.974,2.974,0,0,1,.831.475c.119.119.237.119.237.237a2.083,2.083,0,0,1,.593.475l.237.237c.237.237.356.475.593.712l.119.119a2.385,2.385,0,0,1,.475.949.414.414,0,0,0,.119.237c.119.237.119.475.237.712a.436.436,0,0,0,.119.356c.119.119.119.475.119.831A3.285,3.285,0,0,1,24.119,31.392ZM12.373,30.324a5.875,5.875,0,0,1,5.932-5.932h0a14.721,14.721,0,0,0-1.186,5.932,17.048,17.048,0,0,0,1.186,5.932h0A5.875,5.875,0,0,1,12.373,30.324Z" transform="translate(1.864 4.083)"/><path class="a" d="M22,19.492l.237.949h0a5.784,5.784,0,0,0,.475,1.305h0c.237.356.356.831.593,1.186h0c.237.356.475.593.712.949,0,.119.119.119.119.237a4.432,4.432,0,0,0,.831.712c.119,0,.119.119.237.119a4.162,4.162,0,0,0,.949.593h0a4.214,4.214,0,0,0,1.068.475c.119,0,.119,0,.237.119a3.51,3.51,0,0,0,1.186.237h.237a3.256,3.256,0,0,0,1.424.237,4.867,4.867,0,0,0,1.305-.119h.237c.356-.119.831-.119,1.186-.237.119,0,.119,0,.237-.119.356-.119.712-.356,1.068-.475h0a6.622,6.622,0,0,0,.949-.593c.119,0,.119-.119.237-.119a5.161,5.161,0,0,0,.831-.712A.414.414,0,0,0,36.475,24c.237-.356.475-.593.712-.949h0a3.711,3.711,0,0,0,.593-1.186h0a4.25,4.25,0,0,0,.475-1.305h0l.356-1.068h0c0-.356.119-.712.119-1.186a8.305,8.305,0,1,0-16.61,0A4.036,4.036,0,0,0,22,19.492Zm13.288,2.017c-.119.119-.119.237-.237.237a2.083,2.083,0,0,1-.475.593l-.237.237c-.237.237-.475.356-.712.593l-.119.119a2.385,2.385,0,0,1-.949.475.414.414,0,0,0-.237.119c-.237.119-.475.119-.712.237a.436.436,0,0,0-.356.119h-.949a3.285,3.285,0,0,1-1.068-.119A.436.436,0,0,1,28.881,24c-.237-.119-.475-.119-.712-.237a.414.414,0,0,1-.237-.119c-.356-.119-.593-.356-.949-.475l-.119-.119a3.146,3.146,0,0,1-.712-.593l-.237-.237a2.588,2.588,0,0,1-.475-.593c-.119-.119-.119-.237-.237-.237-.119-.237-.356-.593-.475-.831a13.453,13.453,0,0,1,10.915,0A2.265,2.265,0,0,1,35.288,21.508Zm-4.983-9.136a5.875,5.875,0,0,1,5.932,5.932h0a15.789,15.789,0,0,0-11.864,0h0A5.875,5.875,0,0,1,30.305,12.373Z" transform="translate(4.102 1.864)"/><path class="a" d="M38.629,41.119l-.237-.949h0a5.783,5.783,0,0,0-.475-1.305h0c-.237-.356-.356-.831-.593-1.186h0c-.237-.356-.475-.593-.712-.949,0-.119-.119-.119-.119-.237l-.831-.831c-.119,0-.119-.119-.237-.119a4.162,4.162,0,0,0-.949-.593h0a4.215,4.215,0,0,0-1.068-.475c-.119,0-.119,0-.237-.119a3.51,3.51,0,0,0-1.186-.237h-.237A6.269,6.269,0,0,0,30.324,34a4.867,4.867,0,0,0-1.305.119h-.237c-.356.119-.831.119-1.186.237-.119,0-.119,0-.237.119a4.214,4.214,0,0,0-1.068.475h0a6.623,6.623,0,0,0-.949.593c-.119,0-.119.119-.237.119a2.772,2.772,0,0,0-.831.831.414.414,0,0,0-.119.237c-.237.356-.475.593-.712.949h0a3.711,3.711,0,0,0-.593,1.186h0a4.25,4.25,0,0,0-.475,1.305h0l-.356.949h0c0,.356-.119.712-.119,1.186a8.305,8.305,0,1,0,16.61,0,4.036,4.036,0,0,0,.119-1.186ZM25.341,39.1c.119-.119.119-.237.237-.237a2.083,2.083,0,0,1,.475-.593l.237-.237c.237-.237.475-.356.712-.593l.119-.119a2.385,2.385,0,0,1,.949-.475.414.414,0,0,0,.237-.119c.237-.119.475-.119.712-.237a.436.436,0,0,0,.356-.119h.949a3.285,3.285,0,0,1,1.068.119.436.436,0,0,1,.356.119c.237.119.475.119.712.237a.414.414,0,0,1,.237.119c.356.119.593.356.949.475l.119.119a3.145,3.145,0,0,1,.712.593l.237.237a2.588,2.588,0,0,1,.475.593c.119.119.119.237.237.237.119.237.356.593.475.831a13.453,13.453,0,0,1-10.915,0A2.265,2.265,0,0,1,25.341,39.1Zm4.983,9.136a5.875,5.875,0,0,1-5.932-5.932h0a14.721,14.721,0,0,0,5.932,1.186,17.048,17.048,0,0,0,5.932-1.186h0A5.875,5.875,0,0,1,30.324,48.237Z" transform="translate(4.083 6.339)"/></g></svg>