<svg xmlns="http://www.w3.org/2000/svg" viewBox="-2914 -13921 70 66.541"><defs><style>.a{fill:#ef4135;}</style></defs><g transform="translate(-2914 -13921)"><g transform="translate(16.639 21.807)"><path class="a" d="M148.825,159.5H125.063a3.37,3.37,0,0,0-3.363,3.363v16.078a3.37,3.37,0,0,0,3.363,3.363h23.762a3.37,3.37,0,0,0,3.363-3.363V162.863A3.37,3.37,0,0,0,148.825,159.5Zm1.313,19.441a1.313,1.313,0,0,1-1.312,1.313H125.063a1.313,1.313,0,0,1-1.312-1.312V162.863a1.313,1.313,0,0,1,1.313-1.312h23.762a1.313,1.313,0,0,1,1.313,1.313Z" transform="translate(-121.7 -159.5)"/></g><g transform="translate(0 0)"><path class="a" d="M68.975,24.609A1.033,1.033,0,0,0,70,23.584V20.275a2.322,2.322,0,0,0-2.324-2.324H65.27a2.318,2.318,0,0,0-2.242,1.736l-6.043,4.1A5.132,5.132,0,0,0,53.1,20.494a4.365,4.365,0,0,0-4.238-3.4H47.578A9.567,9.567,0,1,0,32.156,8.545h-.492A9.583,9.583,0,1,0,16.215,17.09H14.93a4.359,4.359,0,0,0-4.348,4.348V23.16H6.891a2,2,0,0,0-1.8-1.176h-3.1A1.984,1.984,0,0,0,0,23.967v6.672a1.984,1.984,0,0,0,1.982,1.982h3.09a1.958,1.958,0,0,0,1.8-1.176h3.691v7.6a1.025,1.025,0,0,0,2.051,0V21.41a2.293,2.293,0,0,1,2.3-2.3h33.92a2.293,2.293,0,0,1,2.3,2.3V47.646a2.293,2.293,0,0,1-2.3,2.3H14.93a2.293,2.293,0,0,1-2.3-2.3v-4.5a1.025,1.025,0,1,0-2.051,0v4.5a4.359,4.359,0,0,0,4.348,4.348h5.3l-5.947,13.1a1.013,1.013,0,0,0,.068.984,1.046,1.046,0,0,0,.861.465h6.672a1.019,1.019,0,0,0,.93-.6l6.344-13.945h5.469l6.344,13.945a1.019,1.019,0,0,0,.93.6h6.672a1.046,1.046,0,0,0,.861-.465,1.008,1.008,0,0,0,.068-.984l-5.947-13.1h5.3a4.359,4.359,0,0,0,4.348-4.348V41.959A5.153,5.153,0,0,0,57,38.678l6.043,4.115a2.33,2.33,0,0,0,2.242,1.736h2.393A2.322,2.322,0,0,0,70,42.205V27.686a1.025,1.025,0,0,0-2.051,0V42.232a.274.274,0,0,1-.273.273H65.27A.274.274,0,0,1,65,42.232V20.275A.274.274,0,0,1,65.27,20h2.406a.274.274,0,0,1,.273.273v3.309A1.024,1.024,0,0,0,68.975,24.609ZM5,30.584H2.051V24.035H5Zm5.578-1.162H7.055V25.211h3.514C10.582,25.211,10.582,29.422,10.582,29.422ZM22.121,17.09a7.52,7.52,0,1,1,7.52-7.52A7.533,7.533,0,0,1,22.121,17.09Zm5.92,0c.027-.027.055-.041.082-.068a9.625,9.625,0,0,0,2.5-3.049A9.491,9.491,0,0,0,31.65,10.6h.492c.014.068.014.137.027.205a9.988,9.988,0,0,0,.889,2.98,9.71,9.71,0,0,0,2.6,3.254c.027.027.055.041.082.068h-7.7Zm13.6,0a3.582,3.582,0,0,1-.383-.014,7.446,7.446,0,1,1,.383.014ZM21.219,64.518H16.8l5.674-12.5h4.416Zm25.744,0H42.547l-5.674-12.5h4.416Zm8.271-27.549A3.066,3.066,0,0,1,53.2,39.854V22.641a3.066,3.066,0,0,1,2.037,2.885V36.969Zm7.711,3.309-5.66-3.855V26.059l5.66-3.855V40.277Z" transform="translate(0 0)"/></g><g transform="translate(39.348 45.828)"><ellipse class="a" cx="1.449" cy="1.449" rx="1.449" ry="1.449"/></g><g transform="translate(43.203 45.828)"><ellipse class="a" cx="1.449" cy="1.449" rx="1.449" ry="1.449"/></g><g transform="translate(16.652 4.102)"><path class="a" d="M127.269,30a5.469,5.469,0,1,0,5.469,5.469A5.467,5.467,0,0,0,127.269,30Zm0,8.887a3.418,3.418,0,1,1,3.418-3.418A3.419,3.419,0,0,1,127.269,38.887Z" transform="translate(-121.8 -30)"/></g><g transform="translate(36.176 4.102)"><path class="a" d="M270.069,30a5.469,5.469,0,1,0,5.469,5.469A5.467,5.467,0,0,0,270.069,30Zm0,8.887a3.418,3.418,0,1,1,3.418-3.418A3.419,3.419,0,0,1,270.069,38.887Z" transform="translate(-264.6 -30)"/></g><g transform="translate(24.062 31.24)"><path class="a" d="M177.025,228.5A1.033,1.033,0,0,0,176,229.525v1.23a1.025,1.025,0,0,0,2.051,0v-1.23A1.024,1.024,0,0,0,177.025,228.5Z" transform="translate(-176 -228.5)"/></g><g transform="translate(37.666 31.24)"><path class="a" d="M276.525,228.5a1.033,1.033,0,0,0-1.025,1.025v1.23a1.025,1.025,0,1,0,2.051,0v-1.23A1.024,1.024,0,0,0,276.525,228.5Z" transform="translate(-275.5 -228.5)"/></g><g transform="translate(29.197 32.383)"><path class="a" d="M218.609,237.111a1.034,1.034,0,0,0-1.449.1,1.207,1.207,0,0,1-.9.4,1.16,1.16,0,0,1-.9-.4,1.027,1.027,0,1,0-1.545,1.354,3.285,3.285,0,0,0,4.895,0A1.034,1.034,0,0,0,218.609,237.111Z" transform="translate(-213.559 -236.859)"/></g></g></svg>