<svg xmlns="http://www.w3.org/2000/svg" viewBox="-3293 -13700.143 61.875 61.862"><defs><style>.a{fill:#ef4135;}</style></defs><g transform="translate(-3293.108 -13700.242)"><g transform="translate(7.214 12.99)"><path class="a" d="M64.376,107.039a1.217,1.217,0,0,0-1.7.109,26.307,26.307,0,0,0-3.638,5.33,1.219,1.219,0,0,0,.52,1.632,1.143,1.143,0,0,0,.556.133,1.224,1.224,0,0,0,1.076-.653,24.561,24.561,0,0,1,3.312-4.847A1.217,1.217,0,0,0,64.376,107.039Z" transform="translate(-58.9 -106.742)"/></g><g transform="translate(5.866 21.12)"><path class="a" d="M49.357,174.075a1.212,1.212,0,0,0-1.547.737v.012a1.2,1.2,0,0,0,.737,1.535,1.161,1.161,0,0,0,.4.073,1.211,1.211,0,0,0,1.136-.8.012.012,0,0,1,.012-.012A1.222,1.222,0,0,0,49.357,174.075Z" transform="translate(-47.743 -174.003)"/></g><g transform="translate(25.398 54.908)"><path class="a" d="M217.914,454.995a1.208,1.208,0,0,0-1.293-1.124,24.423,24.423,0,0,1-5.862-.314,1.209,1.209,0,0,0-.423,2.381,27,27,0,0,0,4.629.4c.6,0,1.209-.024,1.813-.06A1.191,1.191,0,0,0,217.914,454.995Z" transform="translate(-209.337 -453.537)"/></g><g transform="translate(34.878 54.795)"><path class="a" d="M290.174,453.581a1.207,1.207,0,0,0-1.414-.955l-.036.012a1.2,1.2,0,0,0,.254,2.381,1.808,1.808,0,0,0,.254-.024h0A1.2,1.2,0,0,0,290.174,453.581Z" transform="translate(-287.764 -452.602)"/></g><g transform="translate(0.108 0.1)"><g transform="translate(0 0)"><path class="a" d="M60.7,22.268a1.064,1.064,0,0,0-.06-.181c-.036-.121-.073-.254-.121-.375-.048-.145-.1-.29-.133-.423-.012-.06-.036-.109-.048-.169a.175.175,0,0,1-.024-.085c-.06-.193-.133-.375-.193-.568-.024-.06-.048-.133-.073-.193-.06-.157-.121-.326-.181-.483l-.073-.181-.254-.616c-.024-.073-.06-.133-.085-.205-.06-.133-.109-.266-.169-.387s-.1-.205-.145-.314a1.5,1.5,0,0,0-.121-.242A30.978,30.978,0,0,0,32.175.112h0c-.157,0-.326-.012-.483-.012h-.629A31.024,31.024,0,0,0,14.938,4.621,30.2,30.2,0,0,0,9.753,8.585c-.012,0-.012.012-.024.012-.121.121-.242.23-.363.351l-.012.012c-.121.121-.242.23-.351.351l-.048.048a31.473,31.473,0,0,0-3.433,4.17h0l-.29.435c-.012.012-.012.024-.024.036-.266.4-.52.81-.761,1.221l-.109.181c-.06.1-.109.193-.157.278s-.109.181-.157.278a2.557,2.557,0,0,0-.133.254c-.06.109-.121.23-.181.338-.036.073-.073.133-.109.205-.1.181-.181.351-.266.532,0,.012-.012.012-.012.024a.042.042,0,0,1-.012.024c-.121.242-.23.483-.338.725a1.22,1.22,0,0,1-.085.181c-.1.193-.181.4-.266.6-.024.048-.036.1-.06.145-.1.218-.181.435-.266.653-.012.024-.024.06-.036.085a30.636,30.636,0,0,0-.87,20.041c.024.06.036.133.06.193.036.121.073.254.109.375l.145.435c.012.048.036.1.048.157.012.024.012.048.024.073.06.193.133.387.205.58.024.06.048.121.073.193.06.169.121.326.193.5a.947.947,0,0,1,.06.169l.254.616c.024.06.06.133.085.193.06.133.121.266.181.411.048.1.085.205.133.3s.085.169.121.254A30.936,30.936,0,0,0,30.41,61.962h.616a30.964,30.964,0,0,0,21.31-8.485.042.042,0,0,1,.024-.012c.121-.109.23-.23.351-.338l.024-.024.351-.351.06-.06a30.375,30.375,0,0,0,3.723-4.617c.012-.012.012-.024.024-.036.266-.4.52-.81.774-1.233a1.207,1.207,0,0,0,.1-.169c.06-.1.109-.193.169-.29a3.057,3.057,0,0,1,.157-.266l.145-.254c.06-.109.121-.218.181-.338.036-.073.073-.133.109-.205.1-.181.181-.351.266-.532,0-.012.012-.012.012-.024a.042.042,0,0,1,.012-.024c.121-.242.23-.483.338-.725.024-.06.048-.121.073-.169.1-.205.181-.4.266-.6.024-.048.036-.1.06-.145.1-.218.181-.435.266-.665.012-.024.024-.06.036-.085A30.786,30.786,0,0,0,60.7,22.268Zm-4.085-3.856c.012.012.012.036.024.048.06.109.109.23.157.338a1.505,1.505,0,0,0,.121.242c.036.085.085.181.121.266l.218.508a1.343,1.343,0,0,0,.085.193c.06.145.121.29.169.423a.839.839,0,0,1,.06.157c.073.193.145.375.218.568.024.048.036.109.06.157.048.145.1.278.145.423l.073.218.145.435c.048.145.1.29.133.447a.681.681,0,0,0,.048.145c.085.29.169.592.242.894L55.213,29.8H44.165l-5.512-9.549,5.524-9.573h6.841A28.367,28.367,0,0,1,56.615,18.412ZM42.086,31.019l-5.524,9.573H25.514l-5.524-9.573,5.524-9.573H36.562Zm1.6-25.552a29.345,29.345,0,0,1,4.545,2.792H44.189L42.159,4.766C42.666,4.983,43.174,5.213,43.682,5.467Zm-20.27-1.91a28.776,28.776,0,0,1,7.651-1.052h.544a28.476,28.476,0,0,1,7.059,1.04l3.421,5.923-5.524,9.573H25.514L19.991,9.468ZM19.93,4.729,17.887,8.259H13.814A28.537,28.537,0,0,1,19.93,4.729ZM3.649,23.114c.012-.036.024-.085.036-.121.048-.181.109-.363.169-.544.036-.109.073-.23.109-.338s.073-.218.109-.338c.06-.193.133-.387.205-.58a.833.833,0,0,1,.036-.1,26.7,26.7,0,0,1,1.172-2.7l.254-.508c.024-.048.048-.085.073-.133.06-.121.133-.254.193-.375a.9.9,0,0,1,.085-.145c.073-.121.133-.254.205-.375a.378.378,0,0,0,.06-.121c.085-.145.169-.3.266-.447,0-.012.012-.012.012-.024a28.577,28.577,0,0,1,4.412-5.6h6.841l5.524,9.573-5.524,9.573H6.84L3.419,23.9C3.492,23.634,3.564,23.368,3.649,23.114ZM2.754,34.5a28.545,28.545,0,0,1-.012-6.962l2.019,3.493Zm.689,3.638,3.409-5.9H17.9l5.524,9.573L17.9,51.386H11.058A28.717,28.717,0,0,1,3.443,38.138ZM18.4,56.584a28.13,28.13,0,0,1-4.533-2.792H17.9l2.019,3.493C19.4,57.067,18.9,56.825,18.4,56.584Zm20.27,1.91a28.843,28.843,0,0,1-7.651,1.052H30.47a27.843,27.843,0,0,1-7.059-1.04l-3.421-5.923,5.524-9.573H36.562l5.524,9.573Zm3.481-1.172,2.043-3.529h4.073A28.537,28.537,0,0,1,42.146,57.321ZM56.941,42.949c-.012.024-.012.036-.024.06-.1.218-.205.447-.314.665l-.254.508-.073.145a3.256,3.256,0,0,1-.193.351c-.024.048-.06.109-.085.157-.073.121-.133.242-.205.363-.024.036-.048.085-.073.121l-.254.435c-.012.012-.012.024-.024.036a28.149,28.149,0,0,1-4.412,5.584H44.189L38.653,41.8l5.524-9.573H55.225l3.421,5.923A28.33,28.33,0,0,1,56.941,42.949Zm2.405-8.413-2.031-3.505,2.019-3.505A27.773,27.773,0,0,1,59.347,34.536Z" transform="translate(-0.108 -0.1)"/></g></g></g></svg>