<svg xmlns="http://www.w3.org/2000/svg" viewBox="-2596.207 -10340.207 30.614 30.614"><defs><style>.a{fill:#fff;}</style></defs><g transform="translate(-2596.207 -10340.207)"><path class="a" d="M15.307,0A15.307,15.307,0,1,0,30.614,15.307,15.32,15.32,0,0,0,15.307,0Zm0,28A12.7,12.7,0,1,1,28.024,15.307,12.7,12.7,0,0,1,15.307,28Z"/><g transform="translate(8.055 9.402)"><path class="a" d="M54.357,36.3H48.4V48.162h3.056V44.174h2.875a3.94,3.94,0,1,0,.026-7.874Zm-.414,5.206H51.482V38.968h2.461a1.278,1.278,0,1,1,0,2.538Z" transform="translate(-43.919 -36.3)"/><path class="a" d="M32.654,41a1.554,1.554,0,1,0,1.554,1.554A1.559,1.559,0,0,0,32.654,41Z" transform="translate(-31.1 -39.783)"/><path class="a" d="M32.654,65.9a1.554,1.554,0,1,0,1.554,1.554A1.576,1.576,0,0,0,32.654,65.9Z" transform="translate(-31.1 -58.234)"/></g></g></svg>