<svg xmlns="http://www.w3.org/2000/svg" viewBox="-2685 -13227 78.5 49.004"><defs><style>.a{fill:#ee4034;}</style></defs><g transform="translate(-2685 -13227)"><g transform="translate(0)"><path class="a" d="M74.5,49H4a3.963,3.963,0,0,1-4-4V4A3.963,3.963,0,0,1,4,0H74.5a3.963,3.963,0,0,1,4,4V45.008A4.038,4.038,0,0,1,74.5,49ZM4,2A2.059,2.059,0,0,0,2,4V45.008a2.059,2.059,0,0,0,2,2H74.5a2.059,2.059,0,0,0,2-2V4a2.059,2.059,0,0,0-2-2ZM6.346,42.54a1.67,1.67,0,0,1-.705-.235.863.863,0,0,1-.235-.705V17.51a.927.927,0,0,1,.94-.94,1.011,1.011,0,0,1,.94.94V31.729l.705-.353,5.171-1.645,1.528-1.88a.838.838,0,0,1,.705-.353,2.179,2.179,0,0,1,.823.235l4,4,4-4a.727.727,0,0,1,.823-.235.838.838,0,0,1,.705.353l1.528,1.88,5.171,1.645a4.591,4.591,0,0,1,2.7,2.82v7.286a.927.927,0,0,1-.94.94ZM7.4,34.667v5.876H32.9V34.667a2.318,2.318,0,0,0-1.293-1.293l-4.7-1.528-2.82,4.583a.966.966,0,0,1-.705.47,1.7,1.7,0,0,1-.823-.235l-2.35-2.35-2.35,2.35a.727.727,0,0,1-.823.235.793.793,0,0,1-.705-.47l-2.938-4.7L8.7,33.257A2.542,2.542,0,0,0,7.4,34.667ZM21.74,32.9,23.033,34.2l2.233-3.525-.588-.705Zm-6.7-2.35,2.233,3.525,1.293-1.293-2.938-2.938Zm5.171-2.233c-3.76,0-7.051-4-7.051-8.461a8.107,8.107,0,0,1,1.763-5.171.711.711,0,0,1,.705-.353c.235,0,6.7-.705,10.694,1.763h0c1.175.705,1.058,2.115,1.058,3.173v.588C27.263,24.326,23.973,28.321,20.213,28.321Zm-4-12.1a6.6,6.6,0,0,0-1.058,3.643c0,3.408,2.468,6.463,5.053,6.463,2.7,0,5.053-3.055,5.053-6.463v-.588a5.744,5.744,0,0,0-.118-1.528h0C22.328,15.865,17.627,16.1,16.217,16.217ZM33.844,25.5a.927.927,0,0,1-.94-.94V8.461H7.4l-.118,5.876a.927.927,0,0,1-.94.94,1.011,1.011,0,0,1-.94-.94V8.461A2.106,2.106,0,0,1,7.521,6.346H32.787A2.106,2.106,0,0,1,34.9,8.461V24.443A1.24,1.24,0,0,1,33.844,25.5Z" transform="translate(0)"/><g transform="translate(11.574 9.373)"><path class="a" d="M12.142,19.286a1.067,1.067,0,0,1-.823-.353c-1.88-2.468-2-6.816-.118-8.814A3.936,3.936,0,0,1,14.61,8.944c2-1.645,4.583-.823,6.581-.235a8.558,8.558,0,0,0,3.408.118l.94-.118.235.94a15.89,15.89,0,0,1,0,7.756,1,1,0,1,1-1.88-.705,14.442,14.442,0,0,0,.118-5.876,11.089,11.089,0,0,1-3.29-.235c-2.585-.705-4-.94-5.053.118l-.47.47-.705-.353a1.484,1.484,0,0,0-1.763.47c-1.058,1.175-1.175,4.466.235,6.228a1.07,1.07,0,0,1-.118,1.41A.7.7,0,0,1,12.142,19.286Z" transform="translate(-9.849 -7.976)"/></g></g><g transform="translate(17.128 8.931)"><path class="a" d="M15.544,41.209h-.235a.943.943,0,0,1-.705-1.175l1.058-4.466-.588-1.41a.973.973,0,0,1,1.763-.823l.47,1.058h.47l.705-1.293a.973.973,0,0,1,1.763.823l-.823,1.645.823,4.113a1.014,1.014,0,0,1-2,.353l-.823-3.76-.94,4C16.367,40.857,16.015,41.209,15.544,41.209ZM63.021,39.8H43.161a.927.927,0,0,1-.94-.94,1.011,1.011,0,0,1,.94-.94h19.86a.94.94,0,1,1,0,1.88Zm-24.443,0a1.036,1.036,0,0,1-1.058-.94,1.011,1.011,0,0,1,.94-.94h0a.927.927,0,0,1,.94.94A.908.908,0,0,1,38.577,39.8Zm-7.286-5.288a.927.927,0,0,1-.94-.94V28.283a.927.927,0,0,1,.94-.94,1.011,1.011,0,0,1,.94.94v5.288A1.011,1.011,0,0,1,31.292,34.511Zm35.254-.235h-23.5a.927.927,0,0,1-.94-.94,1.011,1.011,0,0,1,.94-.94h23.5a.94.94,0,0,1,0,1.88Zm-27.969,0a1.036,1.036,0,0,1-1.058-.94,1.011,1.011,0,0,1,.94-.94h0a.927.927,0,0,1,.94.94A.908.908,0,0,1,38.577,34.276ZM57.5,28.753H43.513a.927.927,0,0,1-.94-.94,1.011,1.011,0,0,1,.94-.94H57.5a.94.94,0,0,1,0,1.88Zm-18.92,0a1.036,1.036,0,0,1-1.058-.94,1.011,1.011,0,0,1,.94-.94h0a.927.927,0,0,1,.94.94A.908.908,0,0,1,38.577,28.753ZM67.956,15.591H38.107a.927.927,0,0,1-.94-.94,1.011,1.011,0,0,1,.94-.94H67.956a.94.94,0,0,1,0,1.88ZM61.023,9.48H38.46a.927.927,0,0,1-.94-.94,1.011,1.011,0,0,1,.94-.94H61.023a.927.927,0,0,1,.94.94A1.011,1.011,0,0,1,61.023,9.48Z" transform="translate(-14.575 -7.6)"/></g></g></svg>