<svg xmlns="http://www.w3.org/2000/svg" viewBox="-3558 -13012 51.935 69.294"><defs><style>.a{fill:#ef4135;}</style></defs><g transform="translate(-3622.129 -13012)"><g transform="translate(70.633 6.504)"><g transform="translate(0)"><path class="a" d="M143.7,52.239a19.46,19.46,0,0,0-27.329,27.33,1.015,1.015,0,1,0,1.593-1.259,17.43,17.43,0,0,1,24.478-24.479,1.015,1.015,0,0,0,1.258-1.593Z" transform="translate(-112.188 -48.058)"/></g></g><g transform="translate(64.129)"><g transform="translate(0)"><path class="a" d="M90.1,0A26,26,0,0,0,64.129,25.968,43.616,43.616,0,0,0,68.118,43.98a57.513,57.513,0,0,0,8.73,13.565A65.7,65.7,0,0,0,89.542,69.129a1.015,1.015,0,0,0,1.109,0,65.7,65.7,0,0,0,12.694-11.583,57.51,57.51,0,0,0,8.73-13.565,43.614,43.614,0,0,0,3.989-18.013A26,26,0,0,0,90.1,0Zm20.143,43.114a55.434,55.434,0,0,1-8.4,13.069A66.929,66.929,0,0,1,90.1,67.046a66.761,66.761,0,0,1-11.7-10.818,55.48,55.48,0,0,1-8.425-13.083,41.6,41.6,0,0,1-3.809-17.178,23.937,23.937,0,0,1,47.875,0A41.589,41.589,0,0,1,110.239,43.114Z" transform="translate(-64.129)"/></g></g><g transform="translate(84.742 19.224)"><g transform="translate(0)"><path class="a" d="M226.693,143.6c-.147-.1-3.671-2.389-9.441-1.236a1.015,1.015,0,0,0-.816,1v1.085a1.015,1.015,0,0,0,2.03,0v-.23a12.643,12.643,0,0,1,5,.235,7.95,7.95,0,0,1,2.106.842,1.015,1.015,0,0,0,1.122-1.692Z" transform="translate(-216.436 -142.043)"/></g></g><g transform="translate(77.663 13.019)"><g transform="translate(0)"><path class="a" d="M191.848,97.1a1.015,1.015,0,1,0-1.593,1.259,17.418,17.418,0,0,1-1.367,23.112c-.124.124-.251.246-.378.366a4.274,4.274,0,0,0-.682-.328l-5.159-1.935a1.16,1.16,0,0,1-.749-1.081v-2.6q.331-.264.641-.564a8.541,8.541,0,0,0,2.614-6.179v-1.93l.29-.581a7.562,7.562,0,0,0,.794-3.365V97.208a1.015,1.015,0,0,0-1.015-1.015h-11.3a7.078,7.078,0,0,0-7.069,7.073,7.562,7.562,0,0,0,.794,3.365l.29.581v1.612a9.076,9.076,0,0,0,3.255,6.963v2.7a1.16,1.16,0,0,1-.749,1.081l-3.96,1.485a4.06,4.06,0,0,0-2.285,2.169,1.015,1.015,0,0,0,.3,1.2A19.46,19.46,0,0,0,191.848,97.1Zm-21.862,11.728v-1.851a1.015,1.015,0,0,0-.107-.454l-.4-.8a5.526,5.526,0,0,1-.58-2.461,5.044,5.044,0,0,1,5.039-5.039h10.29v5.043a5.521,5.521,0,0,1-.58,2.457l-.4.8a1.015,1.015,0,0,0-.107.454v2.17a6.579,6.579,0,0,1-6.783,6.576A6.8,6.8,0,0,1,169.986,108.823Zm5.564,17.722a17.322,17.322,0,0,1-9.026-3.155,2.015,2.015,0,0,1,.69-.437l3.96-1.485a3.15,3.15,0,0,0,.769-.421l3.607,2.705Zm-2.442-7.162a3.15,3.15,0,0,0,.132-.9v-1.439a8.171,8.171,0,0,0,3.06.7c.089,0,.178,0,.267,0a8.578,8.578,0,0,0,3.321-.664v1.4a3.149,3.149,0,0,0,.132.9l-3.457,2.593Zm4.472,7.161v-2.792l3.607-2.705a3.149,3.149,0,0,0,.769.421l4.812,1.8A17.406,17.406,0,0,1,177.58,126.545Z" transform="translate(-164.132 -96.193)"/></g></g></g></svg>