<svg xmlns="http://www.w3.org/2000/svg" viewBox="-2975 -13009 64.407 62.81"><defs><style>.a{fill:#ef4135;}</style></defs><g transform="translate(-2975 -13009)"><g transform="translate(35.399 18.618)"><path class="a" d="M309.49,148a.923.923,0,0,0-.918.918V185.8a.875.875,0,0,1-.881.881H282.318a.918.918,0,0,0,0,1.837h25.373a2.722,2.722,0,0,0,2.717-2.717V148.918A.915.915,0,0,0,309.49,148Z" transform="translate(-281.4 -148)"/></g><path class="a" d="M61.69,0H2.717A2.722,2.722,0,0,0,0,2.717v53.7a2.722,2.722,0,0,0,2.717,2.717h1.9a.918.918,0,0,0,0-1.837h-1.9a.875.875,0,0,1-.881-.881V2.717a.875.875,0,0,1,.881-.881H61.69a.875.875,0,0,1,.881.881V13.7a.918.918,0,1,0,1.837,0V2.717A2.722,2.722,0,0,0,61.69,0Z"/><g transform="translate(40.808 36.091)"><path class="a" d="M330.891,286.9h-4.7a1.793,1.793,0,0,0-1.786,1.786v4.7a1.793,1.793,0,0,0,1.786,1.786h4.7a1.793,1.793,0,0,0,1.786-1.786v-4.717A1.782,1.782,0,0,0,330.891,286.9Zm-.05,6.441h-4.6v-4.6h4.6Z" transform="translate(-324.4 -286.9)"/></g><g transform="translate(51.035 36.091)"><path class="a" d="M412.191,286.9h-4.7a1.793,1.793,0,0,0-1.786,1.786v4.7a1.793,1.793,0,0,0,1.786,1.786h4.7a1.793,1.793,0,0,0,1.786-1.786v-4.717A1.791,1.791,0,0,0,412.191,286.9Zm-.063,6.441h-4.6v-4.6h4.6Z" transform="translate(-405.7 -286.9)"/></g><g transform="translate(40.808 46.091)"><path class="a" d="M330.891,366.4h-4.7a1.793,1.793,0,0,0-1.786,1.786v4.7a1.793,1.793,0,0,0,1.786,1.786h4.7a1.793,1.793,0,0,0,1.786-1.786v-4.7A1.793,1.793,0,0,0,330.891,366.4Zm-.05,6.441h-4.6v-4.6h4.6Z" transform="translate(-324.4 -366.4)"/></g><g transform="translate(51.035 46.091)"><path class="a" d="M412.191,366.4h-4.7a1.793,1.793,0,0,0-1.786,1.786v4.7a1.793,1.793,0,0,0,1.786,1.786h4.7a1.793,1.793,0,0,0,1.786-1.786v-4.7A1.8,1.8,0,0,0,412.191,366.4Zm-.063,6.441h-4.6v-4.6h4.6Z" transform="translate(-405.7 -366.4)"/></g><g transform="translate(5.107 5.183)"><path class="a" d="M94.793,43.842A2.641,2.641,0,0,0,92.151,41.2H43.242A2.641,2.641,0,0,0,40.6,43.842V64.5a2.641,2.641,0,0,0,2.642,2.642H92.163A2.641,2.641,0,0,0,94.805,64.5l-.013-20.656ZM92.956,64.5h0a.811.811,0,0,1-.805.805H43.242a.811.811,0,0,1-.805-.805V43.842a.811.811,0,0,1,.805-.805H92.163a.811.811,0,0,1,.805.805L92.956,64.5Z" transform="translate(-40.6 -41.2)"/></g><g transform="translate(5.107 36.091)"><path class="a" d="M71.621,289.428a2.529,2.529,0,0,0-2.528-2.529H43.128a2.528,2.528,0,0,0,0,5.057h1.321l-1.635,15.322-.428,4.051a2.152,2.152,0,0,0,0,.4v.025a.1.1,0,0,0,.013.05,2.04,2.04,0,0,0,.5,1.094h0a2.233,2.233,0,0,0,1.409.7,1.859,1.859,0,0,0,.264.013H67.659a2.287,2.287,0,0,0,1.686-.717,1.993,1.993,0,0,0,.5-1.572l-2.076-19.372h1.321A2.537,2.537,0,0,0,71.621,289.428Zm-28.493.692a.692.692,0,0,1,0-1.384H44.8l-.151,1.384Zm5.321,21.662H44.563a.4.4,0,0,1-.314-.113.2.2,0,0,1-.05-.151l.478-4.428a4.594,4.594,0,0,1,3.774,4.516Zm1.824,0v-.189a6.438,6.438,0,0,0-5.409-6.34l1.774-16.53H65.583l1.774,16.53a6.428,6.428,0,0,0-5.409,6.34v.189Zm17.75-.264a.2.2,0,0,1-.05.151.4.4,0,0,1-.314.113H63.784v-.189a4.6,4.6,0,0,1,3.774-4.516Zm-.453-21.4-.151-1.384h1.673a.692.692,0,0,1,0,1.384Z" transform="translate(-40.6 -286.9)"/></g><g transform="translate(11.935 39.814)"><path class="a" d="M112.225,323.2c-.277-3.761-4.088-6.7-8.667-6.7s-8.391,2.944-8.667,6.7a6.337,6.337,0,0,0,1.761,4.78,9.936,9.936,0,0,0,13.812,0A6.372,6.372,0,0,0,112.225,323.2Zm-3.107,3.522a8.122,8.122,0,0,1-11.12,0,4.443,4.443,0,0,1-1.283-3.4c.2-2.805,3.208-5.007,6.843-5.007s6.629,2.2,6.843,5.007A4.426,4.426,0,0,1,109.118,326.727Z" transform="translate(-94.874 -316.5)"/></g><g transform="translate(15.41 43.953)"><path class="a" d="M132.626,352.042h-.377a2.362,2.362,0,0,0-2.365-2.415c-1.623,0-2.088,1.271-2.491,2.415h-2.981c.1-1.3.994-1.635.994-2.063,0-.315-.415-.579-.73-.579-.616,0-1.472,1.069-1.5,2.642h-.39a.332.332,0,0,0-.289.365c0,.189.138.377.289.377h.428a2.464,2.464,0,0,0,2.617,2.315c1.723,0,2.289-1.208,2.692-2.315h2.591c-.063.893-.465,1.22-.465,1.522,0,.377.478.553.73.553.616,0,.893-1.22.918-2.088h.34c.151,0,.289-.189.289-.377A.346.346,0,0,0,132.626,352.042Zm-6.931,1.786a1.2,1.2,0,0,1-1.258-1.12h2.679A1.472,1.472,0,0,1,125.7,353.828Zm3.082-1.711c.252-.679.516-1.22,1.245-1.22.654,0,.981.5,1.069,1.22Z" transform="translate(-122.5 -349.4)"/></g></g></svg>