<svg xmlns="http://www.w3.org/2000/svg" viewBox="-2974 -13232 76 58.184"><defs><style>.a{fill:#ef4135;}</style></defs><g transform="translate(-2974 -13232)"><g transform="translate(24.987 51.176)"><path class="a" d="M169.413,344.7a1.122,1.122,0,0,0-1.113,1.114v4.766a1.113,1.113,0,0,0,2.227,0v-4.766A1.112,1.112,0,0,0,169.413,344.7Z" transform="translate(-168.3 -344.7)"/></g><g transform="translate(48.801 51.176)"><path class="a" d="M329.813,344.7a1.122,1.122,0,0,0-1.113,1.114v4.766a1.113,1.113,0,0,0,2.227,0v-4.766A1.122,1.122,0,0,0,329.813,344.7Z" transform="translate(-328.7 -344.7)"/></g><g transform="translate(8.329 26.189)"><path class="a" d="M64.859,177.706c-2.583-1.292-7.438-1.307-7.646-1.307a1.113,1.113,0,1,0,0,2.227c1.247,0,4.885.193,6.636,1.069a1.187,1.187,0,0,0,.49.119,1.1,1.1,0,0,0,.995-.609A1.088,1.088,0,0,0,64.859,177.706Z" transform="translate(-56.1 -176.4)"/></g><g transform="translate(4.766 48.801)"><path class="a" d="M33.213,328.7a1.122,1.122,0,0,0-1.113,1.114v7.141a1.113,1.113,0,1,0,2.227,0v-7.141A1.112,1.112,0,0,0,33.213,328.7Z" transform="translate(-32.1 -328.7)"/></g><path class="a" d="M73.431,44.644l-4.513-2.257a.082.082,0,0,1-.045-.074V40.041a8.221,8.221,0,0,0,3.489-5.657,9.406,9.406,0,0,0-2.494-12.263,4.785,4.785,0,0,0,.208-1.381c0-2.91-2.628-5.285-5.879-5.285s-5.879,2.375-5.879,5.285a4.785,4.785,0,0,0,.208,1.381,9.514,9.514,0,0,0-3.088,4.023c-.282-2.717-.564-5.924-.846-9.65A18.522,18.522,0,0,0,49.469,4.454,15.987,15.987,0,0,0,38.007,0,15.936,15.936,0,0,0,26.546,4.469a18.416,18.416,0,0,0-5.122,12.041c-.1,1.307-.193,2.554-.3,3.726H10.63A7.074,7.074,0,0,0,3.563,27.3v.059a5.8,5.8,0,0,0,.624,2.628l.564,1.143v1.811a8.72,8.72,0,0,0,3.563,7.022v1.6a.459.459,0,0,1-.341.445l-4.6,1.307A4.744,4.744,0,0,0,0,47.836v9.2a1.122,1.122,0,0,0,1.113,1.113,1.122,1.122,0,0,0,1.113-1.113v-9.2a2.45,2.45,0,0,1,1.782-2.361l4.6-1.306a2.655,2.655,0,0,0,.475-.193L11.907,46.8V57.041a1.113,1.113,0,0,0,2.227,0V46.8l2.836-2.836a5.247,5.247,0,0,0,1.039.371l1.128.327a5.881,5.881,0,0,0-2.479,4.781v7.616a1.113,1.113,0,0,0,2.227,0V49.439a3.663,3.663,0,0,1,2.168-3.34l6.369-2.806a11.837,11.837,0,0,0,21.171.015l6.369,2.806a3.632,3.632,0,0,1,2.168,3.34V57.07a1.113,1.113,0,0,0,2.227,0V49.439a5.9,5.9,0,0,0-1.41-3.816l1.722-.861,1.292,1.232a4.664,4.664,0,0,0,6.443,0L68.7,44.763l3.727,1.856a2.446,2.446,0,0,1,1.351,2.2v8.225a1.113,1.113,0,1,0,2.227,0V48.816A4.594,4.594,0,0,0,73.431,44.644ZM64.2,17.7c2,0,3.652,1.366,3.652,3.058a.98.98,0,0,1-.015.208,9.25,9.25,0,0,0-3.637-.727,9.578,9.578,0,0,0-3.637.727c0-.074-.015-.134-.015-.208A3.392,3.392,0,0,1,64.2,17.7ZM13.02,44.763l-2.539-2.539a2.386,2.386,0,0,0,.074-.653V41.1a7.757,7.757,0,0,0,2.2.386h.252a8.44,8.44,0,0,0,2.45-.371v.445a3.174,3.174,0,0,0,.074.668Zm-.193-5.493a6.224,6.224,0,0,1-5.835-6.325V30.866a1.2,1.2,0,0,0-.119-.5l-.683-1.381a3.669,3.669,0,0,1-.386-1.633v-.059a4.841,4.841,0,0,1,4.84-4.84h9.591v4.617a4.992,4.992,0,0,1-.5,2.168l-.564,1.128a1.148,1.148,0,0,0-.119.5v2.375a6.036,6.036,0,0,1-6.221,6.028Zm9.309,3.92-3.519-1.01c-.92-.267-.92-.371-.92-.609V40.041a8.364,8.364,0,0,0,1.069-.876,8.932,8.932,0,0,0,.624-.683,2.352,2.352,0,0,0,.8.906,24.314,24.314,0,0,0,5.048,2.42ZM38.007,47.6a9.571,9.571,0,0,1-8.537-5.211l1.618-.713a3.5,3.5,0,0,0,2.079-3.192V35.81a13.126,13.126,0,0,0,4.84.935,12.831,12.831,0,0,0,4.84-.935v2.672a3.484,3.484,0,0,0,2.079,3.192l1.618.713A9.554,9.554,0,0,1,38.007,47.6Zm9.65-7.156-1.841-.817a1.268,1.268,0,0,1-.757-1.158v-3.83A13.015,13.015,0,0,0,51.013,23.71V21.617A4.662,4.662,0,0,0,49.424,18.1c-2.242-1.945-7.3-5.345-16.079-6.221a1.112,1.112,0,0,0-.223,2.212c8.166.817,12.8,3.9,14.847,5.686a2.4,2.4,0,0,1,.817,1.826V23.7a10.793,10.793,0,0,1-21.587,0V22.76a1.225,1.225,0,0,1,.638-1.054,8.819,8.819,0,0,0,4.068-4.81,1.113,1.113,0,1,0-2.108-.713,6.6,6.6,0,0,1-3.073,3.578,3.463,3.463,0,0,0-1.752,2.984v.935a13.015,13.015,0,0,0,5.953,10.927v3.83a1.268,1.268,0,0,1-.757,1.158l-1.841.817a24.945,24.945,0,0,1-6.948-2.925.077.077,0,0,1-.03-.059c.386-2.3,1.381-8.923,2.257-20.8A16.3,16.3,0,0,1,28.075,6.013a14.04,14.04,0,0,1,9.932-3.786A13.7,13.7,0,0,1,47.9,6.057a16.266,16.266,0,0,1,4.469,10.615c.876,11.877,1.871,18.5,2.257,20.8,0,.03,0,.045-.03.059A24.035,24.035,0,0,1,47.658,40.442Zm11.848,1.871a.082.082,0,0,1-.045.074l-3.489,1.737c-.045-.015-.074-.045-.119-.059l-5.092-2.242a24.7,24.7,0,0,0,5.048-2.42,2.248,2.248,0,0,0,1.01-2.3c-.015-.045-.015-.1-.03-.163a8.193,8.193,0,0,0,2.7,3.118v2.257Zm6.384,2.064a2.448,2.448,0,0,1-3.385,0l-1.039-.98a2.254,2.254,0,0,0,.267-1.084V41.125a8.27,8.27,0,0,0,4.9,0v1.188A2.254,2.254,0,0,0,66.9,43.4ZM64.2,39.269a5.993,5.993,0,0,1-5.983-5.374,1.01,1.01,0,0,0-.163-.46,7.214,7.214,0,1,1,13.362-3.771,6.851,6.851,0,0,1-.371,2.257c-3.162-3.207-8.73-4.469-9-4.528a1.123,1.123,0,0,0-.935.223,1.1,1.1,0,0,0-.416.861,2.667,2.667,0,0,1-.861,1.589,1.113,1.113,0,0,0,1.574,1.574,5.262,5.262,0,0,0,1.2-1.8c1.871.549,5.76,1.96,7.512,4.424A6,6,0,0,1,64.2,39.269Z"/><g transform="translate(69.022 50.271)"><path class="a" d="M466.013,338.6a1.122,1.122,0,0,0-1.114,1.113v5.671a1.113,1.113,0,1,0,2.227,0v-5.671A1.1,1.1,0,0,0,466.013,338.6Z" transform="translate(-464.9 -338.6)"/></g></g></svg>