<svg xmlns="http://www.w3.org/2000/svg" viewBox="-3557.535 -13232 59.492 58.98"><defs><style>.a{fill:#ee4034;}</style></defs><g transform="translate(-3557.535 -13232)"><g transform="translate(0 0)"><path class="a" d="M15.264,59.006H.961A.948.948,0,0,1,0,58.044a1.034,1.034,0,0,1,.961-.961H4.807V44.824H1.683a.948.948,0,0,1-.961-.961V32.445a4.979,4.979,0,0,1,5.168-5.168h8.052a10.967,10.967,0,0,1,3.365,1.082,24.7,24.7,0,0,0,3.125,1.082,35.1,35.1,0,0,0,5.889-2.284c.6-1.322,2.284-5.048,2.884-5.889a24.541,24.541,0,0,1,3.365-3c.721-.6,1.322-1.082,1.683-1.442a4.767,4.767,0,0,1,3.485-1.562H49.877c.841,0,1.082,0,1.2-.12V.956A.8.8,0,0,1,51.56.115a1.317,1.317,0,0,1,.961,0l6.37,2.764a.952.952,0,0,1,.6.961,1.226,1.226,0,0,1-.6.961l-5.769,2.4V8.768h2.524a.948.948,0,0,1,.961.961v6.49c0,3.125-1.8,5.048-4.807,5.048H46.873v4.086h3.485c3.606,0,5.649,2.163,5.649,6.129v6.971H58.05a.948.948,0,0,1,.961.961,1.034,1.034,0,0,1-.961.961H43.628V45.3a.948.948,0,0,1-.961.961H31.249v6.009a.948.948,0,0,1-.961.961H16.225V57.8C16.225,58.525,15.865,59.006,15.264,59.006ZM11.9,56.963h2.284V52.4a.948.948,0,0,1,.961-.961h2.4V46.506c0-1.683,0-1.8-1.8-1.8H13.581a1.848,1.848,0,0,0-1.8,1.8V56.963Zm-4.928,0H9.855V46.386A3.873,3.873,0,0,1,13.7,42.54h2.163c3.125,0,3.846,1.442,3.846,3.846v4.928h2.163V44.1c0-3.365-1.322-4.086-3.606-4.086H14.062a.948.948,0,0,1-.961-.961V33.406a1.091,1.091,0,0,1,.361-.841,1.144,1.144,0,0,1,.841-.24,65.229,65.229,0,0,0,6.851,1.322c.721,0,3.846-1.8,6.73-3.606l-.961-1.082c-1.923.841-5.288,2.284-6.37,2.284a15.425,15.425,0,0,1-3.846-1.2,15.4,15.4,0,0,0-2.644-.841H10.937v7.451a.948.948,0,0,1-.961.961c-.481,0-1.082-.361-1.082-.841V29.32h-3a3.011,3.011,0,0,0-3.125,3.245V42.9H4.928V33.887a.948.948,0,0,1,.961-.961,1.034,1.034,0,0,1,.961.961V56.963Zm16.946-5.528h5.168V45.425a.948.948,0,0,1,.961-.961h6.49V23.671a11.009,11.009,0,0,0-2.4,1.442c-.6.841-3.125,4.447-4.086,5.889-.12.12-.12.24-.24.24-2.043,1.322-7.091,4.447-8.653,4.447a34.836,34.836,0,0,1-6.13-1.082v3.365h3.125c3.846,0,5.649,1.923,5.649,6.009v7.451ZM38.58,44.463h2.884V33.647A3.873,3.873,0,0,1,45.31,29.8h2.163c3.125,0,3.846,1.442,3.846,3.846v4.807h2.644V31.483c0-2.884-1.082-4.086-3.606-4.086H45.911a.948.948,0,0,1-.961-.961V20.306a.948.948,0,0,1,.961-.961h6.009c.721,0,2.764,0,2.764-3V10.812H53.122v3.726c0,2.524-1.923,2.524-3.245,2.524H44.469l-1.923,4.567a.952.952,0,0,1-.961.6,1.226,1.226,0,0,1-.961-.6L38.46,17.061h-.841a2.61,2.61,0,0,0-2.163.961c-.361.361-1.082.961-1.8,1.562-1.082.841-2.644,2.284-3,2.644-.361.481-1.562,3.125-2.524,5.168l.841,1.082c1.082-1.562,2.764-4.086,3.365-4.807.961-1.082,3.966-2.4,4.567-2.764a.907.907,0,0,1,.961.12,1.217,1.217,0,0,1,.481.841V44.463Zm4.928-6.009h5.769V33.647c0-1.683,0-1.8-1.8-1.8H45.31a1.848,1.848,0,0,0-1.8,1.8ZM40.863,17.061l.721,1.562.721-1.562ZM53.122,2.519v2.4l2.764-1.2ZM9.254,26.436a6.538,6.538,0,1,1,3.365-.961c-.12,0-.12.12-.24.12A6.345,6.345,0,0,1,9.254,26.436Zm0-10.937a4.447,4.447,0,1,0,0,8.894,4.423,4.423,0,0,1-1.322-3,1.06,1.06,0,0,1,1.082-.961.982.982,0,0,1,.961,1.082,2.319,2.319,0,0,0,1.8,2.043,4.613,4.613,0,0,0,1.8-3.606A4.335,4.335,0,0,0,9.254,15.5Zm31.369-1.2a7.22,7.22,0,0,1-3.245-.841c-.12,0-.12-.12-.24-.12a6.463,6.463,0,1,1,3.485.961Zm.24-5.889a.948.948,0,0,1,.961.961,4.106,4.106,0,0,1-1.322,3A4.515,4.515,0,0,0,44.95,7.927a4.447,4.447,0,0,0-8.894,0,4.613,4.613,0,0,0,1.8,3.606c1.923-.6,1.8-2.043,1.8-2.043.24-.6.6-1.082,1.2-1.082Zm-10.937.961h0a.982.982,0,0,1-1.082-.961.948.948,0,0,1,.961-.961,1.156,1.156,0,0,1,1.082.961A.948.948,0,0,1,29.926,9.369Zm-3,0h0a1.06,1.06,0,0,1-1.082-.961,1.034,1.034,0,0,1,.961-.961,1.156,1.156,0,0,1,1.082.961A.948.948,0,0,1,26.922,9.369Zm-3,0h0a.982.982,0,0,1-1.082-.961.948.948,0,0,1,.961-.961,1.156,1.156,0,0,1,1.082.961A.948.948,0,0,1,23.917,9.369Z" transform="translate(0 -0.025)"/></g></g></svg>