<svg xmlns="http://www.w3.org/2000/svg" viewBox="-3267 -13010 41.212 65.632"><defs><style>.a{fill:#ef4135;}</style></defs><g transform="translate(-3267 -13010)"><g transform="translate(17.19 56.274)"><path class="a" d="M137.523,439a3.423,3.423,0,1,0,3.423,3.423A3.43,3.43,0,0,0,137.523,439Zm0,4.986a1.564,1.564,0,1,1,1.564-1.564A1.57,1.57,0,0,1,137.523,443.986Z" transform="translate(-134.1 -439)"/></g><path class="a" d="M40.276,10.87a.941.941,0,0,0,.936-.936v-6.1A3.835,3.835,0,0,0,37.379,0H3.833A3.835,3.835,0,0,0,0,3.833V61.8a3.835,3.835,0,0,0,3.833,3.833H37.379A3.835,3.835,0,0,0,41.212,61.8V15.844a.936.936,0,1,0-1.872,0V61.8a1.97,1.97,0,0,1-1.961,1.961H3.833A1.97,1.97,0,0,1,1.872,61.8V3.833A1.97,1.97,0,0,1,3.833,1.872H37.379a1.97,1.97,0,0,1,1.961,1.961v6.1A.933.933,0,0,0,40.276,10.87Z"/><g transform="translate(3.871 3.666)"><path class="a" d="M61.542,28.6H32.328A2.131,2.131,0,0,0,30.2,30.728V78.362a2.131,2.131,0,0,0,2.128,2.128H61.542a2.131,2.131,0,0,0,2.128-2.128V30.741A2.134,2.134,0,0,0,61.542,28.6ZM61.8,78.375a.271.271,0,0,1-.269.269h-29.2a.271.271,0,0,1-.269-.269V34.753H61.8Zm0-45.494H32.059V30.741a.271.271,0,0,1,.269-.269H61.542a.271.271,0,0,1,.269.269v2.141Z" transform="translate(-30.2 -28.6)"/></g><g transform="translate(9.643 11.421)"><path class="a" d="M93.937,102.406a10.951,10.951,0,0,0-4.41-2.692V97.586h1.82a1.039,1.039,0,0,0,.808-1.692l-5.166-6.409a1.06,1.06,0,0,0-.808-.385,1.04,1.04,0,0,0-.808.385l-5.166,6.409a1.039,1.039,0,0,0,.808,1.692h1.82v2.128a10.964,10.964,0,1,0,11.1,2.692ZM82.746,95.714l3.435-4.269,3.435,4.269h-.923a1.042,1.042,0,0,0-1.038,1.038v2.525a.116.116,0,0,1-.064-.013c-.179-.026-.359-.038-.551-.051-.064,0-.115-.013-.179-.013-.09,0-.167-.013-.256-.013h-.846c-.09,0-.179.013-.256.013s-.115.013-.179.013c-.179.013-.372.038-.551.051a.116.116,0,0,0-.064.013V96.753a1.042,1.042,0,0,0-1.038-1.038Zm9.87,20.869A9.091,9.091,0,0,1,79.76,103.726a8.942,8.942,0,0,1,4.2-2.384.047.047,0,0,0,.038-.013l.538-.115a.047.047,0,0,0,.038-.013c.154-.026.295-.051.449-.064.038,0,.077-.013.115-.013.077-.013.154-.013.244-.026s.179-.013.269-.026a.97.97,0,0,0,.192-.013h.692a.97.97,0,0,1,.192.013A1.913,1.913,0,0,1,87,101.1c.077.013.154.013.244.026.038,0,.077.013.115.013.154.013.295.038.449.064a.047.047,0,0,1,.038.013l.538.115a.047.047,0,0,1,.038.013,9.081,9.081,0,0,1,4.192,15.241Z" transform="translate(-75.225 -89.1)"/></g><g transform="translate(16.818 49.211)"><path class="a" d="M145.916,383.9h-13.78a.936.936,0,1,0,0,1.872h13.78a.936.936,0,1,0,0-1.872Z" transform="translate(-131.2 -383.9)"/></g><g transform="translate(9.319 49.211)"><path class="a" d="M75.225,383.9h-1.59a.936.936,0,0,0,0,1.872h1.59a.936.936,0,0,0,0-1.872Z" transform="translate(-72.7 -383.9)"/></g><g transform="translate(9.319 45.558)"><path class="a" d="M94.915,355.4H73.636a.936.936,0,1,0,0,1.872H94.915a.941.941,0,0,0,.936-.936A.925.925,0,0,0,94.915,355.4Z" transform="translate(-72.7 -355.4)"/></g><g transform="translate(17.01 26.24)"><path class="a" d="M136.981,210.238v-3.256c1.128.077,1.538.59,1.923.59.487,0,.705-.6.705-.91,0-.782-1.538-1.115-2.628-1.154v-.436c0-.192-.244-.372-.487-.372a.424.424,0,0,0-.461.372v.461c-1.525.154-3.038.961-3.038,2.974,0,2.051,1.6,2.628,3.038,3.141v3.769c-1.628-.128-2.064-1.243-2.589-1.243-.4,0-.743.526-.743.91,0,.782,1.346,1.859,3.333,1.884h0v.5a.424.424,0,0,0,.461.372c.244,0,.487-.179.487-.372v-.538a3.1,3.1,0,0,0,2.91-3.294C139.891,211.455,138.379,210.75,136.981,210.238Zm-.846-.308c-.846-.32-1.538-.654-1.538-1.564,0-.833.641-1.231,1.538-1.346Zm.743,5.461v-3.384a1.872,1.872,0,0,1,1.41,1.795A1.513,1.513,0,0,1,136.879,215.391Z" transform="translate(-132.7 -204.7)"/></g></g></svg>