<?xml version="1.0" encoding="utf-8"?>
<!-- Generator: Adobe Illustrator 19.0.1, SVG Export Plug-In . SVG Version: 6.00 Build 0)  -->
<svg version="1.1" id="Слой_1" xmlns="http://www.w3.org/2000/svg" xmlns:xlink="http://www.w3.org/1999/xlink" x="0px" y="0px"
	 viewBox="0 0 37.4 55.9" style="enable-background:new 0 0 37.4 55.9;" xml:space="preserve">
<style type="text/css">
	.st0{clip-path:url(#SVGID_2_);fill:none;stroke:#CF4238;stroke-width:1.69;stroke-linecap:round;stroke-linejoin:round;}
</style>
<g>
	<defs>
		<rect id="SVGID_1_" y="0" width="37.4" height="55.9"/>
	</defs>
	<clipPath id="SVGID_2_">
		<use xlink:href="#SVGID_1_"  style="overflow:visible;"/>
	</clipPath>
	<path class="st0" d="M6.4,36.7c-0.2,0.1-0.4,0.5-0.4,0.8v3.8h13.7v-3.8c0-0.3-0.2-0.6-0.4-0.8l-3.5-1.8c-0.7,0.7-1.7,1.2-2.8,1.2
		c-1.1,0-2.2-0.5-2.9-1.3L6.4,36.7z M9.6,29.8c0,1.8,1.5,3.3,3.3,3.3c1.8,0,3.3-1.5,3.3-3.3v-1.3c0-1.8-1.5-3.3-3.3-3.3
		c-1.8,0-3.3,1.5-3.3,3.3V29.8z M1.5,49.7h22.7 M10.2,52.3h5.3 M8.7,15.2h0.1 M11.8,15.2h3.3 M0.8,18.3h23.1 M22,0.8
		c8.1,0,14.6,6.5,14.6,14.6 M22,4.5c6.1,0,11,4.9,11,11 M22,8.6c3.8,0,6.9,3.1,6.9,6.9 M24.7,52c0,1.7-1.4,3-3,3H3.9
		c-1.7,0-3-1.4-3-3V15.3c0-1.7,1.4-3,3-3h17.7c1.7,0,3,1.4,3,3V52z"/>
</g>
</svg>
