<svg xmlns="http://www.w3.org/2000/svg" viewBox="-3551 -15047.145 38.968 39.457">
  <defs>
    <style>
      .cls-1 {
        fill: #ef4135;
      }
    </style>
  </defs>
  <g id="Group_2453" data-name="Group 2453" transform="translate(-3551 -15047.076)">
    <path id="Path_3199" data-name="Path 3199" class="cls-1" d="M1.158,39.459a1.109,1.109,0,0,1-.492-.112A1.165,1.165,0,0,1,0,38.292V1.165A1.165,1.165,0,0,1,.665.111,1.189,1.189,0,0,1,1.9.275L24.176,18.843a1.149,1.149,0,0,1,.415.89,1.164,1.164,0,0,1-.415.89L1.9,39.182A1.132,1.132,0,0,1,1.158,39.459ZM2.324,3.645V35.821l19.3-16.088Z" transform="translate(0 -0.07)"/>
    <path id="Path_3200" data-name="Path 3200" class="cls-1" d="M167.558,39.389a1.109,1.109,0,0,1-.492-.112,1.165,1.165,0,0,1-.665-1.054V32.477a1.158,1.158,0,1,1,2.316,0v3.275l19.3-16.088-19.3-16.088V6.85a1.158,1.158,0,1,1-2.316,0V1.1a1.161,1.161,0,0,1,1.9-.9l22.275,18.577a1.149,1.149,0,0,1,.415.89,1.163,1.163,0,0,1-.415.89L168.3,39.112A1.149,1.149,0,0,1,167.558,39.389Z" transform="translate(-152.023 0)"/>
  </g>
</svg>
