<svg xmlns="http://www.w3.org/2000/svg" viewBox="-3558 -15274 52.027 51">
  <defs>
    <style>
      .cls-1 {
        fill: #ef4135;
      }
    </style>
  </defs>
  <g id="Group_2451" data-name="Group 2451" transform="translate(-3558 -15274)">
    <path id="Path_3197" data-name="Path 3197" class="cls-1" d="M47.4,51H4.9A4.908,4.908,0,0,1,0,46.1V44.5a.789.789,0,0,1,.8-.8H1.9V19.5a2.582,2.582,0,0,1,2.6-2.6H21V15.2a.789.789,0,0,1,.8-.8h1.3L14.7,4.8a2.92,2.92,0,0,1-.9.2,2.433,2.433,0,0,1-2.4-2.4A2.715,2.715,0,0,1,14,0a2.433,2.433,0,0,1,2.4,2.4,2.663,2.663,0,0,1-.3,1.2l9.4,10.7h1.9L37.8,3.4a2.959,2.959,0,0,1-.2-1,2.4,2.4,0,0,1,4.8,0A2.433,2.433,0,0,1,40,4.8a4.253,4.253,0,0,1-1.1-.2l-9.3,9.7h.6a.789.789,0,0,1,.8.8v1.7H47.3a2.647,2.647,0,0,1,2.6,2.6V43.6h1.3a.789.789,0,0,1,.8.8V46A4.519,4.519,0,0,1,47.4,51ZM1.7,45.4v.7a3.222,3.222,0,0,0,3.2,3.2H47.5a3.222,3.222,0,0,0,3.2-3.2v-.7H31.5a2.348,2.348,0,0,1-2.4,2.3h-6a2.348,2.348,0,0,1-2.4-2.3Zm5.9-1.7h14a.789.789,0,0,1,.8.8v.8a.684.684,0,0,0,.7.7h6a.684.684,0,0,0,.7-.7v-.8a.789.789,0,0,1,.8-.8H44.2V22.4H7.6Zm38.3,0h2.5V19.5a.987.987,0,0,0-.9-1H4.5a.923.923,0,0,0-.9,1V43.7H5.9V21.6a.789.789,0,0,1,.8-.8H45.1a.789.789,0,0,1,.8.8ZM22.7,16.9h6.8V16H22.7ZM40.1,1.7a.684.684,0,0,0-.7.7.7.7,0,0,0,1.4,0A.684.684,0,0,0,40.1,1.7ZM14,1.7a.684.684,0,0,0-.7.7.7.7,0,1,0,1.4,0A.684.684,0,0,0,14,1.7ZM24.3,39a1.421,1.421,0,0,1-.6-.2.913.913,0,0,1,0-1.2l5.2-5.2a.849.849,0,0,1,1.2,1.2l-5.2,5.2C24.8,39,24.6,39,24.3,39Zm6.8-.2a1.421,1.421,0,0,1-.6-.2.913.913,0,0,1,0-1.2L31.9,36a.849.849,0,0,1,1.2,1.2l-1.4,1.4A.845.845,0,0,1,31.1,38.8Z"/>
  </g>
</svg>
